<svg width="33" height="32" viewBox="0 0 33 32" fill="none" xmlns="http://www.w3.org/2000/svg">
<g id="cloud_upload_32dp_1F1F1F_FILL0_wght400_GRAD0_opsz40 1">
<path id="Vector" d="M8.94431 26.6667C6.99631 26.6667 5.32409 25.9742 3.92765 24.589C2.53142 23.2037 1.83331 21.537 1.83331 19.589C1.83331 17.8557 2.37409 16.3224 3.45565 14.989C4.53698 13.6557 5.93698 12.8372 7.65565 12.5334C8.13698 10.4149 9.20365 8.68905 10.8556 7.35571C12.5074 6.02238 14.4036 5.35571 16.5443 5.35571C19.0852 5.35571 21.2241 6.26127 22.961 8.07238C24.6981 9.88349 25.5666 12.0668 25.5666 14.6224V15.1557C27.1444 15.1853 28.4722 15.75 29.55 16.85C30.6278 17.95 31.1666 19.3037 31.1666 20.911C31.1666 22.4888 30.6019 23.8426 29.4723 24.9724C28.3425 26.1019 26.9888 26.6667 25.411 26.6667H17.611C17.011 26.6667 16.4906 26.4464 16.05 26.0057C15.6093 25.5648 15.389 25.0444 15.389 24.4444V16.4224L12.8333 18.9557L11.2556 17.3777L16.5 12.1334L21.7443 17.3777L20.1666 18.9557L17.611 16.4224V24.4444H25.411C26.3888 24.4444 27.2221 24.0999 27.911 23.411C28.5999 22.7222 28.9443 21.8888 28.9443 20.911C28.9443 19.9333 28.5999 19.0999 27.911 18.411C27.2221 17.7222 26.3888 17.3777 25.411 17.3777H23.3443V14.6224C23.3443 12.689 22.6795 11.0316 21.35 9.65005C20.0204 8.26849 18.389 7.57771 16.4556 7.57771C14.5223 7.57771 12.8871 8.26849 11.55 9.65005C10.2129 11.0316 9.54431 12.689 9.54431 14.6224H8.89998C7.55176 14.6224 6.40731 15.0964 5.46665 16.0444C4.52598 16.9926 4.05565 18.1556 4.05565 19.5334C4.05565 20.8816 4.53287 22.0372 5.48731 23C6.44176 23.9629 7.59409 24.4444 8.94431 24.4444H13.1666V26.6667H8.94431Z" fill="#E24328" fill-opacity="0.8"/>
</g>
</svg>
