<svg width="1144" height="689" viewBox="0 0 1144 689" fill="none" xmlns="http://www.w3.org/2000/svg">
<path d="M175.808 688.6C272.903 688.6 351.615 664.019 351.615 633.696C351.615 603.374 272.903 578.792 175.808 578.792C78.7117 578.792 0 603.374 0 633.696C0 664.019 78.7117 688.6 175.808 688.6Z" fill="#D9DBDA"/>
<path d="M191.663 679.477C290.302 679.477 370.265 653.828 370.265 622.189C370.265 590.55 290.302 564.902 191.663 564.902C93.0234 564.902 13.0605 590.55 13.0605 622.189C13.0605 653.828 93.0234 679.477 191.663 679.477Z" fill="#AFAFAF"/>
<path d="M362.869 612.573C362.869 642.984 286.02 663.696 191.171 663.696C96.3221 663.696 19.4731 642.984 19.4731 612.573C19.4731 582.162 96.3221 580.354 191.171 580.354C286.02 580.354 362.869 582.244 362.869 612.573Z" fill="#D9DBDA"/>
<path d="M367.803 622.025C367.803 618.49 366.57 615.038 364.597 611.915C362.543 608.792 359.83 605.997 356.871 603.532C350.789 598.518 343.639 594.655 336.324 591.367C328.926 588.08 321.283 585.367 313.474 582.984C305.666 580.6 297.776 578.628 289.721 576.984C273.694 573.614 257.502 571.313 241.146 569.833C224.79 568.354 208.434 567.614 191.995 567.614C175.557 567.614 159.201 568.354 142.845 569.833C126.489 571.313 110.297 573.614 94.2697 576.984C86.2971 578.71 78.3245 580.682 70.5164 582.984C62.7082 585.367 55.0644 588.08 47.6671 591.367C40.3521 594.655 33.2014 598.6 27.1193 603.532C24.0782 605.997 21.3659 608.792 19.3933 611.915C17.4207 615.038 16.1878 618.49 16.1878 622.025C16.1878 625.559 17.4207 629.011 19.3933 632.134C21.4481 635.258 24.1604 638.052 27.1193 640.518C33.2014 645.531 40.3521 649.394 47.6671 652.682C55.0644 655.97 62.7082 658.682 70.5164 661.066C78.3245 663.449 86.2149 665.422 94.2697 667.066C110.297 670.436 126.489 672.737 142.845 674.216C159.201 675.696 175.557 676.436 191.995 676.436C208.434 676.436 224.79 675.696 241.146 674.216C257.502 672.737 273.694 670.436 289.721 667.066C297.694 665.34 305.666 663.367 313.474 661.066C321.283 658.682 328.926 655.97 336.324 652.682C343.639 649.394 350.789 645.449 356.871 640.518C359.912 638.052 362.625 635.258 364.597 632.134C366.57 628.929 367.803 625.477 367.803 622.025H373.556C373.556 624.408 373.145 626.792 372.406 629.011C371.666 631.23 370.597 633.285 369.447 635.175C366.981 638.956 363.858 642.162 360.57 644.874C353.912 650.381 346.351 654.408 338.707 657.86C331.063 661.312 323.173 664.107 315.2 666.49C307.228 668.874 299.173 670.929 291.036 672.655C274.762 676.107 258.324 678.408 241.803 679.97C225.283 681.449 208.762 682.189 192.16 682.189C175.557 682.189 159.037 681.449 142.516 679.97C125.996 678.408 109.557 676.107 93.2834 672.655C85.1464 670.929 77.0917 668.956 69.1191 666.49C61.1465 664.107 53.2562 661.312 45.6124 657.86C37.9685 654.408 30.4891 650.381 23.7494 644.874C20.4618 642.079 17.3385 638.956 14.8728 635.175C13.6399 633.285 12.5714 631.23 11.9139 629.011C11.1741 626.792 10.7632 624.408 10.7632 622.025C10.7632 619.641 11.1741 617.258 11.9139 615.038C12.6536 612.819 13.7221 610.764 14.8728 608.874C17.3385 605.093 20.4618 601.888 23.7494 599.176C30.4069 593.669 37.9685 589.641 45.6124 586.189C53.2562 582.737 61.1465 579.943 69.1191 577.559C77.0917 575.176 85.1464 573.121 93.2834 571.395C109.557 567.943 125.996 565.641 142.516 564.08C159.037 562.6 175.557 561.861 192.16 561.861C208.762 561.861 225.283 562.6 241.803 564.08C258.324 565.641 274.762 567.943 291.036 571.395C299.173 573.121 307.228 575.093 315.2 577.559C323.173 579.943 331.063 582.737 338.707 586.189C346.351 589.641 353.83 593.669 360.57 599.176C363.858 601.97 366.981 605.093 369.447 608.874C370.68 610.764 371.748 612.819 372.406 615.038C373.145 617.258 373.556 619.641 373.556 622.025H367.803Z" fill="#310401"/>
<path d="M367.801 623.093C367.801 619.477 366.651 615.943 364.76 612.737C362.87 609.532 360.24 606.573 357.281 603.943C351.363 598.682 344.295 594.573 336.98 591.039C329.665 587.504 321.939 584.628 314.13 582.08C306.322 579.614 298.35 577.477 290.295 575.669C274.185 572.052 257.911 569.587 241.473 568.025C225.035 566.463 208.514 565.641 191.994 565.641C175.473 565.641 158.953 566.381 142.515 568.025C126.076 569.669 109.72 572.052 93.6929 575.669C85.6381 577.477 77.6656 579.614 69.8574 582.08C62.0492 584.628 54.4054 587.504 47.0081 591.039C39.6931 594.573 32.6246 598.682 26.7068 603.943C23.748 606.573 21.1178 609.45 19.2274 612.737C17.337 615.943 16.1863 619.477 16.1863 623.093C16.1863 626.71 17.337 630.244 19.2274 633.449C21.1178 636.655 23.748 639.614 26.7068 642.244C32.6246 647.504 39.6931 651.614 47.0081 655.148C54.3232 658.682 62.0492 661.559 69.8574 664.107C77.6656 666.573 85.6381 668.71 93.6929 670.518C109.802 674.134 126.076 676.6 142.515 678.162C158.953 679.723 175.473 680.545 191.994 680.545C208.514 680.545 225.035 679.805 241.473 678.162C257.911 676.518 274.268 674.134 290.295 670.518C298.35 668.71 306.322 666.573 314.13 664.107C321.939 661.559 329.582 658.682 336.98 655.148C344.295 651.614 351.363 647.504 357.281 642.244C360.24 639.614 362.87 636.737 364.76 633.449C366.651 630.162 367.801 626.628 367.801 623.093H373.555C373.555 627.86 372.075 632.463 369.692 636.326C367.39 640.271 364.349 643.559 361.062 646.436C354.486 652.271 347.089 656.545 339.445 660.244C331.802 663.942 323.911 666.901 315.856 669.449C307.884 671.997 299.747 674.134 291.528 676.025C275.172 679.723 258.569 682.189 241.966 683.833C225.364 685.477 208.597 686.216 191.912 686.216C175.227 686.216 158.542 685.477 141.857 683.833C125.254 682.189 108.652 679.723 92.2956 676.025C84.1587 674.216 76.0217 672.079 67.967 669.449C59.9944 666.901 52.0218 663.942 44.378 660.244C36.7342 656.545 29.337 652.271 22.7617 646.436C19.474 643.559 16.5151 640.189 14.1316 636.326C11.8302 632.463 10.2686 627.778 10.2686 623.093C10.2686 618.326 11.748 613.723 14.1316 609.86C16.4329 605.915 19.474 602.628 22.7617 599.751C29.337 593.915 36.7342 589.641 44.378 585.943C52.0218 582.244 59.9122 579.285 67.967 576.737C75.9395 574.189 84.0765 572.052 92.2956 570.162C108.652 566.463 125.254 563.998 141.857 562.354C158.46 560.71 175.227 559.97 191.912 559.97C208.597 559.97 225.281 560.71 241.966 562.354C258.569 563.998 275.172 566.463 291.528 570.162C299.665 571.97 307.802 574.107 315.856 576.737C323.829 579.285 331.802 582.244 339.445 585.943C347.089 589.641 354.486 593.915 361.062 599.751C364.349 602.628 367.308 605.997 369.692 609.86C371.993 613.723 373.555 618.408 373.555 623.093H367.801Z" fill="#310401"/>
<path d="M335.007 543.614C335.007 549.779 341.5 582.655 340.103 615.614C319.308 640.436 270.569 652.764 191.418 654.408C136.514 655.559 67.4736 639.121 44.2134 615.778C46.7613 577.888 51.5284 550.6 51.5284 543.861C51.5284 525.779 111.364 501.203 193.144 501.203C274.925 501.203 335.007 525.614 335.007 543.614Z" fill="#DE4226"/>
<path d="M322.924 547.888C322.924 568.189 264.486 587.176 192.486 587.176C120.487 587.176 63.939 568.025 63.939 547.724C63.939 527.423 116.952 553.806 188.952 553.806C260.952 553.806 322.924 527.587 322.924 547.888Z" fill="#FC614C"/>
<path d="M50.2965 565.231L44.2144 616.765C64.5978 637.724 105.858 654.984 188.378 654.655C266.953 654.326 313.391 640.682 339.528 616.436C338.542 601.477 336.98 584.546 335.747 560.135C336.487 618.737 259.063 640.436 188.789 638.71C148.926 637.806 54.3239 629.915 50.2965 565.231Z" fill="#BC3624"/>
<path fill-rule="evenodd" clip-rule="evenodd" d="M344.46 613.23L339.446 543.45C339.282 542.299 338.953 541.148 338.624 540.08C337.967 538.107 336.98 536.299 335.83 534.738C333.611 531.532 330.898 528.984 328.104 526.765C325.309 524.628 322.35 522.738 319.309 521.094C316.268 519.45 313.227 517.97 310.186 516.655C304.022 514.025 297.693 511.888 291.282 510.08C284.871 508.272 278.46 506.71 272.049 505.477C259.145 502.847 246.077 501.121 233.091 499.97C220.022 498.82 206.954 498.327 193.885 498.327C180.817 498.327 167.666 498.902 154.68 499.97C141.611 501.121 128.625 502.847 115.721 505.477C109.228 506.792 102.817 508.272 96.4883 510.08C90.1596 511.888 83.8308 514.025 77.5843 516.655C74.461 517.97 71.4199 519.45 68.461 521.094C65.4199 522.738 62.5433 524.628 59.6666 526.765C56.8721 528.984 54.1597 531.45 51.9406 534.738C50.8721 536.381 49.8858 538.107 49.146 540.08C48.7351 541.231 48.4063 542.464 48.242 543.696L40.105 613.395C40.105 614.71 40.3516 616.025 40.7625 617.258C41.1735 618.408 41.6666 619.477 42.242 620.463C43.3926 622.354 44.7077 623.915 46.105 625.23C48.8995 627.943 51.8584 629.997 54.8994 631.806C60.9816 635.422 67.3104 638.134 73.6391 640.518C86.3788 645.285 99.4472 648.573 112.598 651.285C138.899 656.545 165.694 658.929 192.488 659.011C205.885 659.011 219.282 658.436 232.597 657.285C245.912 656.052 259.227 654.244 272.378 651.614C285.529 648.984 298.597 645.614 311.337 640.847C317.666 638.463 323.994 635.669 330.076 631.97C333.118 630.08 336.076 628.025 338.789 625.312C340.186 623.915 341.501 622.354 342.57 620.463C343.145 619.559 343.638 618.408 343.967 617.258C344.296 616.107 344.542 614.792 344.542 613.477L344.46 613.23ZM332.296 618.819C330.323 620.792 327.857 622.518 325.227 624.162C319.967 627.367 314.049 629.997 308.049 632.299C295.967 636.819 283.309 640.107 270.488 642.655C257.666 645.203 244.68 647.011 231.611 648.162C218.543 649.312 205.474 649.888 192.324 649.888C166.104 649.806 139.885 647.422 114.242 642.326C101.42 639.778 88.7623 636.491 76.6802 631.97C70.6802 629.751 64.7624 627.121 59.42 623.997C56.7898 622.436 54.3241 620.628 52.2693 618.737C51.283 617.751 50.4611 616.765 49.8858 615.86C49.557 615.367 49.3926 614.956 49.2282 614.545C49.146 614.299 49.1461 614.134 49.0639 613.97H49.146L56.9542 546.409H57.0364C57.0364 544.272 57.8584 542.053 59.3378 539.916C60.8172 537.779 62.872 535.806 65.1734 533.998C67.4747 532.19 70.0227 530.628 72.735 529.148C75.4473 527.669 78.2418 526.354 81.1185 525.121C86.8719 522.655 92.8719 520.683 98.9541 518.957C105.036 517.231 111.283 515.751 117.529 514.518C130.022 511.971 142.762 510.327 155.502 509.176C168.241 508.025 181.146 507.532 193.967 507.532C206.789 507.532 219.611 508.025 232.433 509.176C245.173 510.327 257.912 511.971 270.405 514.518C276.652 515.751 282.816 517.231 288.981 518.957C295.063 520.683 301.063 522.738 306.816 525.121C309.693 526.354 312.487 527.669 315.2 529.148C317.912 530.628 320.46 532.272 322.761 533.998C325.063 535.806 327.118 537.779 328.597 539.916C329.83 541.724 330.652 543.614 330.816 545.505V545.998C330.816 546.162 330.816 546.244 330.816 546.409L335.501 613.888C335.419 614.463 335.172 615.121 334.761 615.943C334.022 616.847 333.2 617.833 332.296 618.819Z" fill="#2E100D"/>
<path d="M596.788 330.492L607.555 350.629L647.993 358.848L663.363 344.547L629.747 329.67L596.788 330.492Z" fill="#2E100D"/>
<path d="M103.475 532.025L99.6123 541.149H127.311L125.585 546.82H97.2287L93.2836 556.107H122.626L120.735 562.19H78.5713L95.5027 525.943H131.914L130.023 532.025H103.475Z" fill="white"/>
<path d="M181.805 562.272L177.202 553.395H151.148L143.915 562.272H131.257L161.093 526.025H175.641L194.545 562.272H181.805ZM155.504 547.641H174.572L167.668 531.696H167.257L155.504 547.641Z" fill="white"/>
<path d="M245.172 532.107L240.898 537.779H240.405C236.706 534.655 230.542 531.368 223.391 531.368C217.556 531.368 214.597 533.258 214.761 535.642C214.926 538.436 219.035 539.505 228.816 541.066C240.405 542.792 250.432 544.929 251.83 552.162C253.145 559.148 244.021 562.847 230.131 562.847C216.487 562.847 206.542 559.148 202.186 555.943L207.611 549.696H208.186C212.049 552.737 219.611 556.6 229.474 556.6C236.789 556.6 240.898 555.203 240.487 552.327C239.994 548.792 233.665 547.97 224.049 546.491C212.049 544.601 204.076 542.135 204.076 535.642C204.076 529.97 211.227 525.368 222.734 525.368C233.583 525.368 241.638 529.231 245.172 532.107Z" fill="white"/>
<path d="M294.899 562.272H282.982L278.872 548.71L253.639 526.025H265.557L282.242 541.806L288.653 526.025H300.571L290.214 548.71L294.899 562.272Z" fill="white"/>
<path opacity="0.5" d="M196.269 542.053C239.483 542.053 274.515 536.202 274.515 528.984C274.515 521.767 239.483 515.916 196.269 515.916C153.055 515.916 118.023 521.767 118.023 528.984C118.023 536.202 153.055 542.053 196.269 542.053Z" fill="#BC3624"/>
<path fill-rule="evenodd" clip-rule="evenodd" d="M1076.38 289.396L975.449 277.149L887.011 364.766L885.861 536.135C857.34 578.792 837.696 609.203 820.601 633.285C863.833 634.847 946.271 631.395 1003.23 635.175C1023.28 619.23 1074.57 576.737 1074.57 576.737L1140.74 371.752L1076.38 289.396Z" fill="#AF3225"/>
<path fill-rule="evenodd" clip-rule="evenodd" d="M1099.47 317.752L1032.16 507.614L977.42 583.23L935.749 634.025C963.448 634.353 989.173 633.038 1007.34 633.038C1025.09 619.312 1074.82 574.518 1074.82 574.518L1107.61 461.34L1140.73 371.587L1099.47 317.752Z" fill="#C93C27"/>
<path fill-rule="evenodd" clip-rule="evenodd" d="M975.285 275.999L937.97 482.382L920.793 552.655L861.943 635.833C881.998 635.504 895.642 635.504 933.861 634.847C947.094 618.491 977.751 582.737 977.751 582.737L1034.22 505.559L1099.48 317.095L1076.22 289.067L975.285 275.999Z" fill="#EB6435"/>
<path fill-rule="evenodd" clip-rule="evenodd" d="M1075.56 288.985L977.584 277.889L887.996 364.848L886.27 384.081L961.721 350.957L1079.42 373.313L1122.49 428.875L1141.72 374.793L1075.56 288.985Z" fill="#401714"/>
<path fill-rule="evenodd" clip-rule="evenodd" d="M1059.37 431.998L951.119 409.56L887.503 440.135L887.339 507.779L938.051 482.792L1033.64 505.724L1074.57 579.203L1100.54 492.984L1059.37 431.998Z" fill="#401714"/>
<path fill-rule="evenodd" clip-rule="evenodd" d="M977.914 582.655L920.544 551.751L874.435 556.436L844.353 599.504L862.681 598.765L937.969 632.627L985.311 634.929L977.914 582.655Z" fill="#401714"/>
<path d="M1078.68 286.355L972.818 272.629L883.065 362.793L881.997 536.628L817.065 635.915L1011.78 634.025L1078.27 578.874L1143.78 372.82L1078.68 286.355ZM1071.12 572.463L998.051 634.271L825.942 633.038L890.791 538.107L892.435 366.738L976.846 281.67L1072.93 294.574L1134.9 375.286L1071.12 572.463Z" fill="#2E100D"/>
<path d="M715.061 400.272L793.142 448.519L828.156 635.586H768.978L756.896 588.491L752.211 493.477L715.061 400.272Z" fill="#E36337"/>
<path fill-rule="evenodd" clip-rule="evenodd" d="M773.83 635.176L828.488 635.258L794.049 451.642L737.173 451.478L716.132 401.259L690.899 367.314L526.516 366.492L479.421 401.423L453.119 453.779L456.325 588.573L448.023 635.422L773.83 635.176Z" fill="#C23C27"/>
<path fill-rule="evenodd" clip-rule="evenodd" d="M763.885 615.449L769.638 635.34L828.816 634.929L819.035 592.107L763.885 615.449Z" fill="#771213"/>
<path d="M509.008 353.505L198.325 339.204L128.873 371.505L128.708 424.601L182.626 461.834L178.517 514.025L215.585 519.614L221.092 477.779L269.502 448.93L267.53 425.587L453.2 468.573L484.515 403.971L528.159 367.807" fill="#E36337"/>
<path d="M363.035 395.67L340.104 440.628L452.706 468.573L534.322 369.779L501.117 349.396L467.994 349.889L488.871 384.574L363.035 395.67Z" fill="#C23C27"/>
<path d="M342.324 346.355L198.242 340.026L130.105 370.848L129.941 424.026L183.859 461.176L178.187 514.025L215.42 519.45L219.858 477.779L270.735 448.354L268.844 424.93L340.104 440.875L367.145 387.122L342.324 346.355Z" fill="#771213"/>
<path fill-rule="evenodd" clip-rule="evenodd" d="M530.379 370.19L479.585 406.848L466.763 463.149L483.201 570.82L468.407 637.723L743.09 636.491L729.611 576.409L739.063 456.162L714.57 396.327L530.379 370.19Z" fill="#771213"/>
<path fill-rule="evenodd" clip-rule="evenodd" d="M736.925 451.888L729.527 572.792L757.966 595.23L752.87 485.012L736.925 451.888Z" fill="#E36337"/>
<path fill-rule="evenodd" clip-rule="evenodd" d="M467.09 463.478L483.2 570.655L458.542 591.45L455.419 547.148L467.09 463.478Z" fill="#E36337"/>
<path d="M775.145 634.764L763.556 591.449L756.652 484.518L737.994 454.025L749.008 489.039L754.432 593.833L764.953 634.6L775.145 634.764Z" fill="#2E100D"/>
<path d="M479.911 405.697L449.171 453.45L450.486 589.23L440.952 642.326L450.897 642.244L459.692 590.381L458.788 453.286L479.911 405.697Z" fill="#2E100D"/>
<path d="M1007.5 637.641L443.174 642.408L444.078 635.34L1015.97 630.49L1007.5 637.641Z" fill="#310401"/>
<path d="M824.949 635.504L790.84 451.066L718.183 402.491L721.799 397.149L800.785 445.971L833.579 635.915L824.949 635.504Z" fill="#2E100D"/>
<path d="M181.061 466.272L125.664 428.135L123.773 365.423L201.033 333.615L497.58 346.026L510.32 357.204L198.485 342.903L132.814 371.834L132.404 421.971L184.184 457.395L181.061 466.272Z" fill="#2E100D"/>
<path d="M266.295 422.382C266.295 422.382 344.295 438.409 348.158 439.231L452.541 464.875L451.802 476.135L346.186 447.779C342.323 446.957 267.61 431.587 267.61 431.587L266.295 422.382Z" fill="#2E100D"/>
<path d="M267.445 404.793L273.938 455.834L222.404 480.902L219.199 475.313L265.144 448.683L261.034 405.368L267.445 404.793Z" fill="#2E100D"/>
<path d="M229.391 423.697L218.212 525.45L174.322 518.792L183.281 414.409L191.089 415.395L181.802 511.642L212.213 516.327L222.322 422.382L229.391 423.697Z" fill="#2E100D"/>
<path d="M160.515 406.026H154.104V444.245H160.515V406.026Z" fill="#2E100D"/>
<path d="M239.09 428.068L222.398 440.467L225.829 445.086L242.521 432.686L239.09 428.068Z" fill="#310401"/>
<path d="M400.597 288.821L565.308 390.738L660.486 409.642L857.088 369.861L844.924 333.04L869.252 344.382L842.869 284.958L881.745 258.574L877.554 239.177L848.869 250.273L884.951 210.821L864.156 174.328L884.211 90.657L850.841 70.9311L749.828 92.7118L609.034 66.3283L513.446 4.84912L481.966 13.3971L473.747 101.26L444.24 123.451L457.144 173.67L436.021 153.944L425.829 175.479L449.665 216.246L399.61 262.766L437.418 252.163L400.597 288.821Z" fill="#C23C27"/>
<path d="M673.393 269.341C680.215 275.588 691.476 285.204 691.476 285.204L714.571 281.67L726.489 260.793C731.092 258.821 736.188 256.766 740.79 254.793C731.092 245.752 710.215 227.506 710.215 227.506L675.695 235.478C675.695 235.478 664.517 256.437 658.435 268.108L667.558 269.834L673.393 269.341Z" fill="#F5DECD"/>
<path d="M615.856 258.574C607.226 261.862 593.171 266.547 593.171 266.547L572.952 254.711L569.911 230.958C566.376 227.424 562.678 223.396 559.144 219.862C571.472 215.095 597.609 205.807 597.609 205.807L626.705 226.026C626.705 226.026 629.993 250.109 631.39 263.177L620.623 261.287L615.856 258.574Z" fill="#F5DECD"/>
<path d="M852.322 72.7395L885.117 91.1504L864.404 175.397L885.774 211.15L848.87 250.273L878.87 239.999L882.24 258.657L842.87 284.958L821.007 233.013L799.638 187.479L789.528 173.095L766.104 151.561L770.049 121.808L852.322 72.7395Z" fill="#F5DECD"/>
<path d="M513.528 7.80811L483.446 13.9725L473.337 100.767L444.077 124.438L458.131 175.232L435.775 156.164L424.762 176.794L449.09 215.424L493.967 173.67L541.474 121.972L571.638 113.013L582.076 81.5338L513.528 7.80811Z" fill="#F5DECD"/>
<path d="M685.391 247.068C681.035 255.287 677.418 261.615 673.309 269.259C680.13 275.506 691.473 285.204 691.473 285.204L714.569 281.67C714.569 281.67 720.651 271.725 726.569 260.794C719.747 253.314 710.952 243.615 710.952 243.615L685.391 247.068Z" fill="#2E100D"/>
<path d="M615.855 258.574C607.225 261.862 593.088 266.629 593.088 266.629L572.951 254.794C572.951 254.794 570.978 243.287 569.581 230.958C578.704 226.602 590.458 220.766 590.458 220.766L613.143 233.835L615.855 258.574Z" fill="#2E100D"/>
<path d="M550.35 108.575C559.062 103.726 566.87 99.205 578.377 92.6297L571.555 113.013L541.473 122.301L512.624 59.9998C512.624 59.9998 540.158 96.164 550.35 108.575Z" fill="#E6B48A"/>
<path d="M504.159 114.493C489.94 120.575 475.638 124.684 464.542 129.041C463.638 142.931 463.063 171.205 462.652 182.876C449.419 181.643 441.693 180.821 429.282 179.588L450.652 214.109L491.912 175.314L474.159 144.082L504.159 114.493Z" fill="#E6B48A"/>
<path d="M768.897 130.273C775.555 139.726 780.158 147.616 786.24 155.013C799.801 147.369 841.144 120.739 841.144 120.739L789.527 173.342L765.938 151.725L768.897 130.273Z" fill="#E6B48A"/>
<path d="M861.771 205.479C856.757 219.862 848.456 242.136 843.278 254.382C848.703 256.026 864.812 261.78 872.292 264.081L842.785 283.807L820.429 233.67L846.401 211.396L830.045 176.794C830.045 176.712 853.059 197.342 861.771 205.479Z" fill="#E6B48A"/>
<path d="M616.925 70.356C633.527 88.6025 651.199 112.767 667.801 131.013C695.007 118.849 718.842 107.507 745.308 95.3422L616.925 70.356Z" fill="#E36337"/>
<path d="M852.074 74.1367C824.458 90.575 797.253 105.863 770.047 121.808L745.719 95.5065L852.074 74.1367Z" fill="#771213"/>
<path d="M514.431 9.04102C538.431 35.671 558.65 57.2052 581.91 82.2736L614.458 70.1093L514.431 9.04102Z" fill="#771213"/>
<path d="M820.431 233.67C829.061 226.355 838.431 218.465 847.061 211.15C841.801 200.301 830.376 176.876 830.376 176.876C830.376 176.876 837.774 136.849 841.472 120.328C824.212 138.493 789.609 173.177 789.609 173.177L820.431 233.67Z" fill="#2E100D"/>
<path d="M789.527 173.095C789.527 173.095 796.431 183.123 799.637 187.397C805.555 183.369 811.472 179.424 817.39 175.397C814.267 184.355 811.226 193.314 808.103 202.273C814.678 203.835 821.171 205.396 827.746 206.958C822.897 210.328 817.801 213.451 812.952 216.821L869.253 344.547L845.828 332.958L857.5 370.93L808.02 379.149L828.897 358.273L789.527 173.095Z" fill="#E36337"/>
<path d="M492.485 177.205C487.554 167.342 478.841 154.273 473.992 144.328C482.458 136.109 504.156 114.493 504.156 114.493C504.156 114.493 509.088 76.6847 512.376 58.4382C521.663 79.6436 531.773 99.9449 541.636 122.219L492.485 177.205Z" fill="#2E100D"/>
<path d="M541.558 122.219C541.558 122.219 532.024 131.506 526.681 135.534C523.887 129.287 521.175 124.273 518.38 116.794C516.983 127.972 515.257 136.438 514.764 145.972C507.613 145.561 501.942 145.479 494.791 145.15C497.832 149.999 504.161 156.081 507.202 160.931L401.422 262.437L439.23 252.245L400.518 289.889L463.969 331.642L443.339 288.738L541.558 122.219Z" fill="#E36337"/>
<path d="M522.57 363.286C512.132 340.355 489.2 290.136 489.2 290.136C489.2 290.136 524.953 236.876 540.241 214.273C546.57 234.903 559.556 277.807 559.556 277.807C559.556 277.807 545.255 297.698 536.214 309.78C546.488 327.122 571.885 369.04 571.885 369.04L621.693 393.533L672.158 386.3C672.158 386.3 708.405 358.766 724.268 345.286C721.638 336.41 715.473 308.958 715.473 308.958C715.473 308.958 749.254 275.341 766.432 259.232C770.952 295.889 776.624 347.588 776.624 347.588C776.624 347.588 744.158 378.327 726.569 392.875L661.967 408.492L567.118 390.081L522.57 363.286Z" fill="#771213"/>
<path d="M786.489 381.697C792.407 370.026 799.968 353.177 806.79 338.218C800.379 326.465 797.256 321.862 791.913 313.15C800.461 317.999 804.982 320.136 814.598 325.149C797.831 301.807 783.283 283.314 766.516 259.889L776.626 347.259L726.653 392.464L786.489 381.697Z" fill="#F5DECD"/>
<path d="M727.556 391.478L788.131 379.971L799.966 353.094L765.364 375.451L748.186 372.985L727.556 391.478Z" fill="#E6B48A"/>
<path d="M716.046 308.465C703.882 304.355 685.224 296.3 685.224 296.3C685.224 296.3 675.608 280.437 667.635 269.752C652.677 266.711 620.458 261.122 620.458 261.122L591.937 279.533C591.937 279.533 567.855 278.136 559.554 277.643L536.047 309.697L571.718 368.958L621.526 393.451L671.992 386.218L724.594 345.286L716.046 308.465Z" fill="#F5DECD"/>
<path d="M606.322 236.794C606.897 242.958 607.555 247.725 608.295 253.478C602.541 255.615 593.089 258.821 593.089 258.821L579.61 250.931C579.61 250.931 578.295 243.287 577.309 235.068C583.391 232.191 591.281 228.328 591.281 228.328L606.322 236.794Z" fill="#771213"/>
<path d="M599.744 241.972C600.073 245.917 599.991 248.465 600.237 252.081C595.717 254.218 591.443 256.109 591.443 256.109L583.224 251.588C583.224 251.588 582.402 246.41 581.662 242.3C585.196 240.41 591.032 237.451 591.032 237.451L599.744 241.972Z" fill="#2E100D"/>
<path d="M682.104 267.615C686.542 271.643 694.021 277.889 694.021 277.889L709.145 275.67C709.145 275.67 713.09 269.259 716.953 262.191C712.432 257.342 706.679 251.095 706.679 251.095L689.747 253.478L682.104 267.615Z" fill="#771213"/>
<path d="M686.954 269.834C690.242 272.711 694.598 276.41 694.598 276.41L703.064 275.013C703.064 275.013 704.625 271.725 707.091 266.876C703.803 263.506 700.516 259.561 700.516 259.561L692.05 260.711C692.05 260.629 688.762 266.629 686.954 269.834Z" fill="#2E100D"/>
<path d="M705.693 252.656L698.953 253.561L695.994 259.396L699.528 264.574L707.008 263.999L709.884 257.424L705.693 252.656Z" fill="white"/>
<path d="M604.926 238.191L599.337 234.985L593.173 238.191L592.844 244.684L598.926 248.383L605.255 244.931L604.926 238.191Z" fill="white"/>
<path d="M617.254 145.561C612.323 161.506 607.802 175.643 603.035 191.835C613.556 196.109 626.871 201.78 636.98 206.218C641.254 190.109 644.788 175.725 648.816 159.369C637.72 154.684 617.254 145.561 617.254 145.561Z" fill="#F5DECD"/>
<path d="M579.693 163.232C578.624 171.78 575.419 194.547 575.419 194.547L595.063 190.438C595.063 190.438 599.09 168.739 601.309 156.41C592.186 158.958 579.693 163.232 579.693 163.232Z" fill="#F5DECD"/>
<path d="M712.433 164.136C710.789 180.328 710.049 195.944 708.488 212.383C697.145 212.465 682.68 212.794 671.666 213.122C673.639 196.52 675.776 181.89 677.995 165.205C690.406 165.205 712.433 164.136 712.433 164.136Z" fill="#F5DECD"/>
<path d="M740.786 194.465C738.567 202.766 733.142 225.122 733.142 225.122L716.457 214.026C716.457 214.026 720.731 192.328 723.279 180.164C730.841 185.835 740.786 194.465 740.786 194.465Z" fill="#F5DECD"/>
<path d="M631.309 263.177C634.514 254.383 643.062 232.684 643.062 232.684C643.062 232.684 653.665 234.657 659.007 235.807C658.761 246.574 658.514 257.506 658.514 268.109L631.309 263.177Z" fill="#E36337"/>
<path d="M664.841 285.615C661.553 276.163 658.594 268.026 658.594 268.026L631.389 262.93C631.389 262.93 625.718 269.588 619.718 276.41L641.334 288.656L664.841 285.615Z" fill="#E6B48A"/>
<path d="M641.337 287.917C648.981 287.177 655.802 286.355 664.926 285.369C665.583 288.739 666.076 291.122 666.652 293.999C655.227 299.424 636.981 305.752 636.981 305.752C636.981 305.752 622.515 292.109 615.364 283.478C616.679 281.177 617.994 279.204 619.638 276.246C628.597 281.177 641.337 287.917 641.337 287.917Z" fill="#2E100D"/>
<path d="M579.693 163.232C581.666 170.301 583.967 177.04 585.939 184.109C590.624 175.15 595.638 166.273 601.063 157.725L595.063 190.438L575.419 194.547L579.693 163.232Z" fill="#E6B48A"/>
<path d="M641.664 187.808C634.925 189.287 629.253 190.766 622.432 192.246C620.295 174.821 618.733 163.89 617.089 145.726L602.952 191.753L636.897 206.136L641.664 187.808Z" fill="#E6B48A"/>
<path d="M740.708 194.465C735.858 200.465 731.749 205.314 727.064 211.232C725.995 201.862 724.845 191.999 723.201 180.328L716.379 214.027L733.064 225.122L740.708 194.465Z" fill="#E6B48A"/>
<path d="M712.351 164.054C704.132 180.328 698.543 189.862 690.077 205.232C684.324 201.287 679.803 197.999 674.05 194.054L671.666 212.958L708.488 212.218L712.351 164.054Z" fill="#E6B48A"/>
<path d="M716.048 352.026C716.048 352.026 702.24 344.464 691.637 338.793C677.418 359.341 662.706 379.067 662.706 379.067L584.459 363.286L574.843 316.19L544.104 323.095L571.802 368.957L621.61 393.45L672.076 386.218L716.048 352.026Z" fill="#E6B48A"/>
<path d="M522.568 363.286L489.198 290.136L540.239 214.273C515.828 229.314 492.732 244.602 468.568 258.574C476.048 260.218 480.732 260.629 487.554 262.355C475.965 269.177 466.678 274.437 466.678 274.437C466.678 274.437 469.719 315.615 471.445 332.465L522.568 363.286Z" fill="#F5DECD"/>
<path d="M471.283 331.889L468.488 298.273L494.296 331.725L508.105 331.478L522.57 363.286L471.283 331.889Z" fill="#E6B48A"/>
<path fill-rule="evenodd" clip-rule="evenodd" d="M663.033 412.765C639.115 408.163 571.307 394.355 563.088 392.793L392.048 290.629C397.39 285.451 425.089 259.478 425.664 258.985C421.554 260.054 395.171 264.245 387.116 266.218C387.116 266.218 498.157 169.15 506.869 160.602C498.486 169.479 415.883 251.177 412.596 254.3C415.143 253.561 450.897 245.588 451.472 244.931C444.732 251.752 406.924 288.821 406.924 288.821L568.513 385.971C592.43 390.574 658.348 403.231 661.964 403.889C661.964 403.889 852.073 367.56 852.32 367.478C852.32 367.478 852.32 367.478 852.402 367.478C852.402 367.478 841.553 330.574 840.155 326.218C840.073 326.711 859.964 334.519 859.964 334.519C859.964 334.519 830.046 257.424 819.443 231.533C831.032 256.93 876.32 350.547 876.32 350.547C876.32 350.547 859.964 344.382 852.813 341.012C854.21 344.547 863.991 375.533 863.991 375.533C863.991 375.533 663.197 412.765 663.033 412.765Z" fill="#2E100D"/>
<path d="M843.281 282.656C855.199 274.108 867.117 265.643 879.117 257.095C878.295 252.657 877.473 248.136 876.651 243.698C864.898 247.479 853.227 251.259 841.473 255.04C854.953 240.246 868.432 225.205 881.911 210.41C875.5 198.986 863.665 174.328 863.665 174.328C863.665 174.328 885.117 94.027 884.213 93.6161C874.021 87.9449 850.432 75.123 850.432 75.123C815.007 81.8627 782.213 89.9996 746.789 96.6572L614.049 70.2737L514.105 9.20543L486.077 15.9451C482.214 44.9587 477.201 102.246 477.201 102.246C477.201 102.246 453.94 120.657 447.776 125.589C453.447 147.041 459.118 168.492 464.79 189.944C455.913 179.424 436.762 159.616 436.762 159.616L431.009 178.191C431.009 178.191 452.708 214.355 453.201 214.027C451.557 215.095 449.995 216.164 448.351 217.232C439.557 204.492 421.886 176.876 421.886 176.876C421.886 176.876 431.42 155.342 435.201 148.109C440.954 154.109 444.982 157.972 450.735 163.972C446.954 148.191 443.584 136.684 439.475 121.397C445.803 116.794 469.803 99.2051 469.803 99.2051L479.831 10.274C479.831 10.274 508.187 2.46574 516.242 0C524.214 4.52053 617.83 63.3696 617.83 63.3696L744.076 88.6846L852.405 66.1641L893.665 90.6572L873.446 173.095C873.446 173.095 890.706 210.492 890.87 210.246C881.254 220.848 871.144 231.616 861.528 242.218C868.35 239.835 876.322 237.862 883.144 235.479C883.966 243.944 885.363 261.122 885.363 261.122C885.363 261.122 858.405 281.506 846.405 289.971C845.418 288.328 843.857 284.547 843.281 282.656Z" fill="#2E100D"/>
<path d="M690.979 338.136L689.418 330.41L686.623 330.327L685.883 334.519L663.363 338.711L635.911 326.382L640.185 303.615L634.349 302.465L630.075 325.232L600.24 326.711L581.5 314.547L582.158 310.108L579.281 308.793L574.925 315.862L598.596 333.286L631.801 332.218L662.459 345.533L690.979 338.136Z" fill="#2E100D"/>
<path d="M620.259 340.016L619.375 344.449L638.881 348.338L639.765 343.905L620.259 340.016Z" fill="#2E100D"/>
</svg>
