<svg width="1000" height="1049" viewBox="0 0 1000 1049" fill="none" xmlns="http://www.w3.org/2000/svg">
<path fill-rule="evenodd" clip-rule="evenodd" d="M970.951 323.74L993.151 483.13L856.841 740.7L583.601 886.64L477.091 841.92L493.451 772.43L553.351 784.79L681.531 620.5L710.961 377.63L821.581 270.71L970.951 323.74Z" fill="#C23C27"/>
<path fill-rule="evenodd" clip-rule="evenodd" d="M818.051 662.15L592.261 826.62L485.211 813.4L493.851 773.06L569.521 796.81L717.511 623.97L785.671 360L946.461 418.36L818.051 662.15Z" fill="#E36337"/>
<path fill-rule="evenodd" clip-rule="evenodd" d="M971.43 322.84L993.15 483.89L989.01 490.29L941.43 422.35L784.91 363.39L711.86 377.7L823.39 270.02L971.43 322.84Z" fill="#401714"/>
<path fill-rule="evenodd" clip-rule="evenodd" d="M820.731 657.1L856.161 737.99L773.691 780.16L741.101 719.19L640.761 675.02L681.461 623.93L721.351 620.5L820.731 657.1Z" fill="#401714"/>
<path fill-rule="evenodd" clip-rule="evenodd" d="M665.081 773.4L683.241 832.21L596.631 878.53L594.341 825.39L554.311 784.64L598.211 729.13L665.081 773.4Z" fill="#401714"/>
<path fill-rule="evenodd" clip-rule="evenodd" d="M547.33 821.98L525.11 860.04L477.73 841.52L487.32 804.12L494.32 771L526.74 782.58L547.33 821.98Z" fill="#401714"/>
<path fill-rule="evenodd" clip-rule="evenodd" d="M902.031 503.09L944.201 575.77L902.401 655.22L857.861 584.19L738.971 543.01L688.891 555.81L700.561 466.94L764.201 448.87L902.031 503.09Z" fill="#401714"/>
<path d="M493.09 768.91L551.68 781.03L674.15 626.64L704.93 374.81L822.22 262.62L980.57 318.97L999.7 484.97L863.02 745.57L584.51 889.01L474.73 844.77L477.63 837.58L584.07 880.47L856.59 736.71L988.031 482.8L968.19 326.79L824.51 276.16L716 379.09L681.54 629.8L554.79 789.6L491.52 776.51L493.09 768.91Z" fill="#2E100D"/>
<path fill-rule="evenodd" clip-rule="evenodd" d="M642.002 514.36L578.012 422.98L516.802 401.57L282.382 402.57L210.712 429.94L139.762 533.63L642.002 514.36Z" fill="#C23C27"/>
<path fill-rule="evenodd" clip-rule="evenodd" d="M329.751 423.05L292.161 455.79L255.831 527.92L406.791 575.31L542.501 520.95L505.971 445.65L477.851 415.11L329.751 423.05Z" fill="#771213"/>
<path fill-rule="evenodd" clip-rule="evenodd" d="M476.201 419.56L517.511 407.71L577.021 426.46L539.571 461.76L476.201 419.56Z" fill="#E36337"/>
<path fill-rule="evenodd" clip-rule="evenodd" d="M326.011 426.32L262.631 462.89L212.701 431.93L282.661 407.45L326.011 426.32Z" fill="#E36337"/>
<path d="M256.901 468.48L231.401 527.27L237.461 529.9L262.961 471.11L263.791 460.89L256.901 468.48Z" fill="#310401"/>
<path d="M539.201 469.77L560.491 519.84L566.561 517.26L545.281 467.18L539.021 460.89L539.201 469.77Z" fill="#310401"/>
<path fill-rule="evenodd" clip-rule="evenodd" d="M138.191 524.96L209.171 425.87L279.911 398.9L283.851 409.23L216.221 435.02L147.191 531.41L138.191 524.96Z" fill="#2E100D"/>
<path fill-rule="evenodd" clip-rule="evenodd" d="M637.942 517.62L573.532 429.07L513.382 406.76L517.232 396.39L580.512 419.87L646.892 511.11L637.942 517.62Z" fill="#2E100D"/>
<path d="M135.67 348.54L342.21 427.29L452.91 428.03L664.651 341.11L643.11 302.47L672.831 309.9L630.48 248.98L668.37 211.09L659.451 190.29L629.73 208.86L661.68 156.85L630.48 120.45L634.94 22.38L593.331 7.52003L484.86 53.58L321.41 54.33L201.05 6.03003L167.62 22.38L177.28 122.68L149.04 153.88L174.3 207.38L146.34 189.8L139.63 216.09L175.08 256.69L128.98 319.56L169.1 299.5L135.67 348.54Z" fill="#C23C27"/>
<path d="M436.82 267.95C445.78 273.45 460.51 281.79 460.51 281.79L485.65 272.87L494.51 246.94C499.23 243.78 504.53 240.31 509.25 237.15C496.46 229.11 469.15 213.13 469.15 213.13L432.19 229.48C432.19 229.48 424.21 255.38 419.9 269.73L430.49 269.67L436.82 267.95Z" fill="#F5DECD"/>
<path d="M370.05 268.28C361.09 273.78 346.36 282.14 346.36 282.14L321.15 273.22L312.65 247.24C307.93 244.08 302.91 240.31 298.19 237.15C310.98 229.11 338.29 213.13 338.29 213.13L375.25 229.48C375.25 229.48 384.14 255.73 388.46 270.08L376.04 270.3L370.06 268.28H370.05Z" fill="#F5DECD"/>
<path d="M594.99 9.18994L635.67 22.7499L630.65 121.56L662.23 157.04L629.35 208.86L660.74 190.84L668.54 211.09L630.1 248.98L594.45 195.5L560.68 149.06L546.23 135.12L515.33 116.08L513.36 81.9099L594.99 9.18994Z" fill="#F5DECD"/>
<path d="M201.41 9.37988L169.05 22.7499L176.34 122.12L148.66 155L175.37 208.86L146.25 192.33L138.26 217.78L173.92 255.85L215.15 199.39L257.29 131.26L289.1 114.69L294.09 77.1699L201.41 9.37988Z" fill="#F5DECD"/>
<path d="M445.47 240.44C442.38 250.56 439.71 258.46 436.74 267.93C445.7 273.43 460.51 281.86 460.51 281.86L485.58 272.94C485.58 272.94 490.22 260.5 494.5 246.94C485.21 240.07 473.32 231.06 473.32 231.06L445.47 240.44Z" fill="#2E100D"/>
<path d="M370.06 268.3C361.1 273.8 346.29 282.23 346.29 282.23L321.22 273.31C321.22 273.31 316.58 260.87 312.3 247.31C321.59 240.44 333.48 231.43 333.48 231.43L361.7 241.19L370.06 268.3Z" fill="#2E100D"/>
<path d="M264.38 114.32C273.06 107.05 280.85 100.28 292.34 90.45L289.1 114.72L257.41 131.57L211.63 67.97C211.63 67.97 250.26 102.61 264.38 114.31V114.32Z" fill="#E6B48A"/>
<path d="M213.85 130.94C199.18 140.78 184.13 148.49 172.62 155.74C174.62 171.51 180.05 203.29 182.09 216.48C167.05 217.97 158.13 218.71 144.01 220.01L175.4 254.09L213.29 201.71L186.68 170.51L213.84 130.95L213.85 130.94Z" fill="#E6B48A"/>
<path d="M513.94 91.57C523.41 100.76 530.28 108.57 538.72 115.53C552.31 104.01 592.9 65.26 592.9 65.26L546.43 135.22L515.28 116.09L513.95 91.56L513.94 91.57Z" fill="#E6B48A"/>
<path d="M634.12 155.85C631.57 173.08 627.11 199.82 623.9 214.59C630.31 215.29 649.62 218.26 658.54 219.19L629.73 247.69L593.85 196.29L618.14 165.7L592.4 130.47C592.4 130.47 622.6 148.61 634.12 155.85Z" fill="#E6B48A"/>
<path d="M330.75 57.1799C353.26 74.0799 378.29 97.3299 400.8 114.23C428.66 94.7299 452.96 76.9299 480.02 57.5999L330.75 57.1899V57.1799Z" fill="#E36337"/>
<path d="M595.021 10.79C567.621 35.12 540.441 58.16 513.361 81.91L480.391 57.64L595.011 10.79H595.021Z" fill="#771213"/>
<path d="M202.66 10.51C235.26 35.15 262.58 54.97 294.04 78.09L327.85 57.45L202.66 10.51Z" fill="#771213"/>
<path d="M593.881 196.39C602.021 186.36 610.731 175.45 618.871 165.42C610.661 154.4 592.761 130.57 592.761 130.57C592.761 130.57 592.451 84.11 592.991 64.79C577.531 88.85 546.391 135.1 546.391 135.1L593.881 196.39Z" fill="#2E100D"/>
<path d="M546.23 135.12C546.23 135.12 556.15 144.89 560.68 149.06C566.46 143.3 572.23 137.54 578.01 131.78C576.47 142.49 574.92 153.21 573.38 163.92C581.05 164.25 588.721 164.58 596.391 164.91C591.681 169.69 586.65 174.35 581.94 179.12L672.49 310.16L643.75 302.18L665.021 342.22L611.341 362.09L630.29 334.23L546.24 135.12H546.23Z" fill="#E36337"/>
<path d="M214.28 203.71C206.65 193.68 194.08 180.92 186.45 170.89C194.15 159.87 213.82 130.92 213.82 130.92C213.82 130.92 211.21 87.5301 210.93 66.3501C225.91 88.0801 241.6 108.7 257.43 131.54L214.27 203.7" fill="#2E100D"/>
<path d="M257.45 131.53C257.45 131.53 248.77 144.03 243.67 149.61C239.21 143.2 235.03 138.19 230.3 130.39C231.14 143.21 231.08 153.11 232.53 163.82C224.45 164.93 218.04 166.05 209.96 167.16C214.37 171.94 222.82 177.43 227.23 182.2L130.53 318.76L170.71 299.25L135.39 349.73L215.52 382.89L183.2 339.24L257.44 131.52L257.45 131.53Z" fill="#E36337"/>
<path d="M287.99 405.69C271.31 382.25 234.84 330.89 234.84 330.89C234.84 330.89 263.46 263.54 275.7 234.86C287.22 256.59 310.98 301.89 310.98 301.89C310.98 301.89 299.19 327.22 291.67 342.77C306.95 359.98 344.42 401.46 344.42 401.46L405.53 418.18L460.51 399.23C460.51 399.23 495.24 360.6 510.1 342.02C505.23 332.66 492.45 303.2 492.45 303.2C492.45 303.2 521.26 259.67 536.81 236.21C551.09 276.88 569.45 333.11 569.45 333.11C569.45 333.11 539.61 374.72 523.01 394.77L454 426.16H343.67L287.98 405.68L287.99 405.69Z" fill="#771213"/>
<path d="M587.771 369.53C591.861 355.23 596.69 334.66 601.12 316.41C591.37 304.62 586.91 300.16 579.05 291.51C589.69 295.14 595.17 296.53 607.06 300.06C583.24 277.49 536.82 235.84 536.82 235.84L569.35 332.93L523.021 394.41L587.76 369.52L587.771 369.53Z" fill="#F5DECD"/>
<path d="M523.8 393.17L589.23 367.25L596.69 334.61L562.69 367.08L542.91 368.09L523.8 393.17Z" fill="#E6B48A"/>
<path d="M493.02 302.62C478.53 300.62 455.87 295.6 455.87 295.6C455.87 295.6 441.64 279.88 430.5 269.66C413.04 269.47 375.82 270.15 375.82 270.15L347.77 296.9C347.77 296.9 320.51 300.53 311.07 301.77L291.68 342.78L344.43 401.47L405.54 418.19L460.52 399.24L510.68 342.08L493.03 302.62H493.02Z" fill="#F5DECD"/>
<path d="M354.641 245.98C356.631 252.78 358.421 257.93 360.401 264.23C354.411 267.89 344.501 273.5 344.501 273.5L327.731 267.57C327.731 267.57 324.621 259.29 321.771 250.27C327.981 245.7 335.941 239.7 335.941 239.7L354.641 245.98Z" fill="#771213"/>
<path d="M352.09 256.97C353.44 261.45 354 264.24 354.86 268.06C350.46 271.69 346.06 274.75 346.06 274.75L333.92 270.45C333.92 270.45 332.29 265 330.48 259.36C334.88 255.92 339.56 252.09 339.56 252.09L352.09 256.97Z" fill="#2E100D"/>
<path d="M446.21 264.15C452.09 267.69 461.8 273.12 461.8 273.12L478.25 267.38C478.25 267.38 481.3 259.36 484.1 250.63C478.01 246.2 470.21 240.4 470.21 240.4L451.7 246.68" fill="#771213"/>
<path d="M453.73 268.83C458 271.34 463.86 274.67 463.86 274.67L474 271.13C474 271.13 474.54 267.59 476.2 260.58C473.01 257.52 468.3 253.7 468.3 253.7L457.85 256.89C457.85 256.89 455.56 264.64 453.74 268.84L453.73 268.83Z" fill="#2E100D"/>
<path d="M469.69 243.03L462.88 245.45L461.04 252.49L465.79 257.43L473.16 255.31L474.91 247.53L469.69 243.03Z" fill="#F5DECD"/>
<path d="M353.55 247.57L347.32 245.25L341.4 249.43L342.5 256.12L349.81 258.8L355.46 254.33L353.55 247.57Z" fill="#F5DECD"/>
<path d="M348.07 132.23C345.99 151.11 343.94 168.01 342.08 187.12C354.76 189.63 370.92 193.11 383.17 195.9C384.49 176.88 385.33 160.03 386.37 140.87C372.96 138.02 348.06 132.23 348.06 132.23H348.07Z" fill="#F5DECD"/>
<path d="M309.76 160.14C310.41 169.94 311.71 196.17 311.71 196.17L332.81 187.32C332.81 187.32 332.67 162.11 332.46 147.9C322.78 152.64 309.75 160.14 309.75 160.14H309.76Z" fill="#F5DECD"/>
<path d="M458.68 132.51C460.35 151.04 462.89 168.64 464.67 187.4C451.99 189.91 435.83 193.39 423.58 196.18C422.26 177.16 421.42 160.31 420.38 141.15C434.27 138.48 458.69 132.51 458.69 132.51H458.68Z" fill="#F5DECD"/>
<path d="M496.99 160.42C496.34 170.22 495.04 196.45 495.04 196.45L473.94 187.6C473.94 187.6 474.08 162.39 474.29 148.18C483.97 152.92 497 160.42 497 160.42H496.99Z" fill="#F5DECD"/>
<path d="M388.311 270.18C389.981 260.8 394.951 237.39 394.951 237.39C394.951 237.39 407.211 237.31 413.521 237.47C415.561 248.32 417.641 259.3 419.971 269.91L388.311 270.18Z" fill="#E36337"/>
<path d="M430.7 288.03C424.94 278.19 419.93 269.64 419.93 269.64L388.36 269.79C388.36 269.79 383.45 278.44 378.19 287.4L405.05 296.49L430.7 288.04V288.03Z" fill="#E6B48A"/>
<path d="M404.88 295.7C413.27 293.18 420.66 291.05 430.76 288.01C432.31 291.52 433.35 294.01 434.61 297.07C422.98 305.64 403.87 316.64 403.87 316.64C403.87 316.64 384.69 304.45 374.87 296.3C375.89 293.43 376.88 290.94 378.14 287.25C389.2 290.91 404.88 295.7 404.88 295.7Z" fill="#2E100D"/>
<path d="M309.771 160.14C313.491 167.63 317.521 174.7 321.241 182.19C324.531 171.1 328.301 160.16 332.521 149.39L332.821 187.33L311.721 196.18L309.781 160.15L309.771 160.14Z" fill="#E6B48A"/>
<path d="M384.54 174.33C377.28 177.49 371.22 180.31 363.96 183.47C357.83 164.41 353.72 152.52 347.99 132.5L342.09 187.12L383.18 195.9L384.54 174.34V174.33Z" fill="#E6B48A"/>
<path d="M496.93 160.44C492.83 168.24 489.25 174.5 485.29 182.19C482.04 171.96 478.66 161.1 474.34 148.38L473.94 187.61L495.04 196.46L496.93 160.45V160.44Z" fill="#E6B48A"/>
<path d="M458.62 132.5C452.89 152.53 448.7 164.41 442.57 183.47C435.31 180.31 429.46 177.6 422.2 174.44L423.58 196.17L464.67 187.39L458.62 132.49V132.5Z" fill="#E6B48A"/>
<path d="M502.451 351.47C502.451 351.47 485.401 345.99 472.211 341.91C460.691 367.97 448.441 393.25 448.441 393.25L357.341 392.41L336.431 341.68L303.521 356.03L344.431 401.47L405.541 418.19L460.521 399.24L502.451 351.47Z" fill="#E6B48A"/>
<path d="M287.99 405.69L234.84 330.89L275.62 234.71C251.47 256.81 228.99 279.02 204.93 299.88C213.66 300.07 219.02 299.56 227.03 300.07C215.51 310.19 206.2 318.16 206.2 318.16C206.2 318.16 218.46 363.64 224.08 382.17L287.98 405.71L287.99 405.69Z" fill="#F5DECD"/>
<path d="M223.83 381.55L213.43 344.55L249.53 376.47L264.96 373.23L287.99 405.69L223.83 381.55Z" fill="#E6B48A"/>
<path fill-rule="evenodd" clip-rule="evenodd" d="M456.1 430.95C428.33 430.95 349.34 430.06 339.78 430.06L126.15 352.44C130.98 345.53 156.44 310.39 157.02 309.71C152.63 311.78 124.02 322.19 115.41 326.1C115.41 326.1 218.97 193.46 226.92 182C219.42 193.75 144.44 303.1 141.42 307.31C144.09 305.96 182.42 289.29 183 288.45C176.94 297.54 142.54 347.22 142.54 347.22L344.41 421.31H453.03C453.03 421.31 658.19 339.68 658.47 339.57C658.5 339.58 658.52 339.58 658.53 339.57C658.53 339.57 658.54 339.56 658.56 339.52C658.56 339.52 638.45 300.46 635.97 295.94C635.97 296.53 659.99 300.95 659.99 300.95C659.99 300.95 609.87 220.97 592.44 194.25C610.9 220.26 681.8 315.32 681.8 315.32C681.8 315.32 662.12 311.96 653.39 309.73C655.67 313.39 673.3 345.97 673.3 345.97C673.3 345.97 456.31 430.94 456.1 430.97V430.95Z" fill="#2E100D"/>
<path d="M630.04 246.34C641.58 234.23 653.12 222.12 664.67 210C662.8 205.17 660.93 200.34 659.05 195.51C646.72 202.27 634.39 209.03 622.07 215.78C633.97 196.31 645.87 176.5 657.77 157.03C648.15 145.62 629.58 120.57 629.58 120.57C629.58 120.57 636.33 25.96 635.24 25.69C622.64 21.52 593.38 12.21 593.38 12.21H593.35C555.13 27.38 520.11 43.56 481.88 58.7L327.5 57.73L202.3 10.83C202.3 10.83 172.32 24.39 172.35 24.38C174.28 57.75 180.96 123.03 180.96 123.03C180.96 123.03 158.88 148.68 153.02 155.51C164.01 178.33 174.99 201.15 185.98 223.96C173.77 214.09 148.09 196.01 148.09 196.01L145.6 218.03C145.6 218.03 177.7 253.84 178.14 253.41C176.57 254.96 175.01 256.51 173.44 258.06C160.83 245.72 135.11 218.54 135.11 218.54C135.11 218.54 141.16 192.34 143.83 183.42C151.6 188.93 156.87 192.33 164.63 197.85C157.02 180.96 150.76 168.77 142.82 152.55C148.97 146.06 172.01 121.12 172.01 121.12L164.07 19.34C164.07 19.34 194.16 4.47 202.66 0C212.61 3.36 330.13 49.18 330.13 49.18L477.04 50.39L593.6 1.83L645.12 20.35L640.31 117.1C640.31 117.1 667.67 155.27 667.82 155.02C659.31 168.98 650.33 183.17 641.82 197.13C648.93 193.01 657.44 189.08 664.55 184.97C667.32 194.28 672.6 213.24 672.6 213.24C672.6 213.24 646.78 241.92 635.19 253.92C633.69 252.28 631.08 248.3 629.95 246.42L630.03 246.34H630.04Z" fill="#2E100D"/>
<path d="M471.35 341.27L467.96 332.99L464.76 333.49L464.85 338.34L440.49 347.86L407.09 340.02L407.01 313.54L400.21 313.55L400.3 339.96L367.21 347.99L343.59 338.41L343.32 333.3L339.9 332.47L336.54 341.35L366.78 355.74L403.71 347.41L440.99 355.74L471.35 341.27Z" fill="#2E100D"/>
<path d="M392.489 358.593L392.453 363.732L415.153 363.891L415.188 358.751L392.489 358.593Z" fill="#2E100D"/>
<path d="M430.698 288.03C424.938 278.19 420.098 269.72 420.098 269.72L388.358 269.78C388.358 269.78 383.448 278.43 378.188 287.39L405.048 296.48L430.698 288.03Z" fill="#E6B48A"/>
<path d="M536.249 286.84L537.909 171.33L417.589 171.78L418.259 224.95H390.149L390.469 171.31L273.879 169.55L275.159 286.25L379.399 285.43L388.339 269.72L390.159 236.89L419.039 237.27L420.029 269.59L428.889 284.89L536.269 286.83L536.249 286.84ZM287.829 273.71L287.349 182.97L377.619 184.02L376.659 274.1L287.829 273.72V273.71ZM523.819 184.59L522.739 273.71L430.879 274.67L429.639 184.79L523.829 184.6L523.819 184.59Z" fill="#2E100D"/>
<path d="M78.1796 589.98C78.1796 589.98 41.9496 523.99 44.4596 500.13C46.9696 476.25 66.6596 467.25 66.6596 467.25L64.5096 442.69L79.7496 445.27L79.4296 431.21C162.09 449.08 356.04 508.72 405.19 557.03C460.2 516.82 551.25 470.97 725.51 428.53L724.76 443.87L737.1 443.01L737.72 471.23L741.28 489.03L732.9 580.97L78.1896 589.98H78.1796Z" fill="#BFBCA9"/>
<path d="M118.39 466.2C92.1498 458.68 72.9398 492.17 76.4998 507.88C67.0798 498.87 58.6998 494.69 42.5698 497.83C45.9998 607.62 59.1198 833.89 36.5098 942.59C136.41 953.27 294.95 1006.36 401.14 1042.17C513.4 990.22 731.64 939.96 731.64 939.96C726.19 764.03 734.36 591.45 738.76 495.95C739.33 483.51 721.73 483.6 716.7 497.56C715.72 478.57 692.42 460.91 682.84 464.12C546.21 509.91 470.54 535.04 405.47 560.74C316.9 528.66 186.52 485.74 118.4 466.22L118.39 466.2Z" fill="#EAE9CC"/>
<path d="M70.6899 471.06C66.8899 472.5 63.3399 474.45 60.2799 476.95C57.2099 479.45 54.6299 482.5 52.6599 485.95C50.6799 489.4 49.2999 493.22 48.3699 497.21C47.4699 501.21 47.1299 505.37 46.9899 509.54L47.0199 512.69L47.0399 514.27L47.0999 515.91L47.3499 522.48L47.8299 535.62L48.6999 561.91C49.7899 596.96 50.5699 632.02 50.9999 667.1C51.4299 702.17 51.4899 737.25 50.9099 772.34C50.3199 807.42 49.2199 842.52 46.7999 877.58L45.8299 890.73C45.6499 892.92 45.5399 895.11 45.3099 897.3L44.6499 903.87C43.7599 912.62 43.0099 921.39 41.6999 930.12L40.8199 936.67L40.3999 939.81V939.76L50.1699 941.56C58.8399 943.07 67.4199 944.93 76.0299 946.68C110.42 953.9 144.5 962.39 178.39 971.49C212.28 980.61 245.98 990.4 279.52 1000.71C313.05 1011.05 346.42 1021.92 379.54 1033.58C383.69 1035.01 387.81 1036.52 391.94 1038.03L398.13 1040.28L399.3 1040.7L399.25 1040.72L399.97 1040.38L401.47 1039.68L413.45 1034.1L419.44 1031.31L425.52 1028.73L437.68 1023.58C439.71 1022.74 441.72 1021.83 443.77 1021.05L449.92 1018.66C458.12 1015.49 466.29 1012.2 474.59 1009.32C507.64 997.31 541.19 986.83 574.97 977.26C608.76 967.71 642.79 959.05 676.98 951.13C685.53 949.16 694.08 947.2 702.65 945.32L715.51 942.51L726.77 940.09V940.11V940.14L726.74 939.48L726.67 937.83L726.37 931.23L726.07 924.63C725.96 922.43 725.96 920.24 725.9 918.04L725.63 904.86L725.5 898.27L725.46 891.69C725.15 856.58 725.57 821.52 726.17 786.46C726.76 751.4 727.58 716.35 728.54 681.31C729.49 646.27 730.57 611.23 731.76 576.19L732.67 549.91L733.14 536.77C733.31 532.37 733.44 528.06 733.65 523.57C734.17 514.65 735.18 506.01 735.47 497.42C735.62 493.14 735.6 488.88 735.14 484.82C734.9 482.8 734.54 480.83 733.98 479.05C733.44 477.26 732.6 475.74 731.66 474.73L736.63 469.85C738.7 472.03 739.87 474.55 740.62 476.93C741.38 479.33 741.79 481.69 742.07 484.02C742.6 488.67 742.6 493.2 742.45 497.67C742.15 506.6 741.12 515.38 740.63 523.96C740.43 528.22 740.29 532.68 740.12 537.03L739.65 550.16L738.74 576.42C737.55 611.44 736.48 646.47 735.52 681.49C734.56 716.52 733.73 751.55 733.15 786.57C732.56 821.6 732.13 856.63 732.44 891.62L732.48 898.18L732.61 904.73L732.88 917.84C732.94 920.02 732.94 922.21 733.05 924.39L733.35 930.92L733.65 937.45L733.84 941.73L733.99 945.03C733.93 945.24 734.18 945.71 733.86 945.72L733.06 945.89L731.45 946.23L717.01 949.33L704.19 952.14C695.64 954.02 687.11 955.97 678.59 957.94C644.49 965.84 610.57 974.48 576.91 983.99C543.26 993.53 509.85 1003.96 477.02 1015.9C468.77 1018.77 460.67 1022.03 452.53 1025.18L446.43 1027.55C444.39 1028.32 442.4 1029.23 440.39 1030.06L428.34 1035.16L422.32 1037.71L416.4 1040.47L404.55 1045.99L400.76 1047.75L400.02 1048.1C399.78 1048.29 399.52 1048.24 399.26 1048.1L397.71 1047.54L395.79 1046.84L389.63 1044.6C385.52 1043.1 381.42 1041.6 377.29 1040.17C344.3 1028.55 311 1017.7 277.54 1007.39C244.08 997.1 210.45 987.33 176.65 978.24C142.85 969.16 108.88 960.71 74.6699 953.52C66.1099 951.78 57.5599 949.93 48.9599 948.43L32.8799 945.47C32.4599 945.53 32.8299 945.02 32.7599 944.82L32.8699 944.01L33.0899 942.38L33.5399 939.07L33.9899 935.69L34.8599 929.22C36.1499 920.61 36.8999 911.91 37.7799 903.23L38.4299 896.72C38.6499 894.55 38.7699 892.37 38.9399 890.19L39.9099 877.12C42.3099 842.25 43.4099 807.25 43.9999 772.26C44.5799 737.26 44.5199 702.23 44.0899 667.21C43.6699 632.19 42.8799 597.17 41.7999 562.16L40.9299 535.9L40.4499 522.77L40.1999 516.21L40.1399 514.57L40.1199 512.87L40.0799 509.45C40.2299 504.88 40.5999 500.27 41.6299 495.71C42.6799 491.16 44.2899 486.66 46.6799 482.51C49.0499 478.36 52.2199 474.61 55.9499 471.58C59.6699 468.54 63.9099 466.23 68.2999 464.57L70.7499 471.09L70.6899 471.06Z" fill="#310401"/>
<path d="M734.43 480.24C733.35 476.99 731.69 474 729.39 471.61C727.1 469.21 724.2 467.43 721.02 466.19C714.54 463.87 707.26 463.47 700.08 464.01C685.62 465.11 671.45 469.41 657.24 473.43C643.05 477.54 628.93 481.96 614.87 486.56C607.83 488.82 600.82 491.21 593.8 493.54C586.8 495.94 579.78 498.29 572.8 500.74C544.83 510.44 516.98 520.51 489.2 530.76C475.31 535.89 461.43 541.06 447.57 546.26L405.24 562.27L362.7 548.06L320.97 534.03C293.15 524.68 265.34 515.33 237.48 506.15C209.62 496.97 181.7 487.96 153.65 479.44C150.15 478.36 146.63 477.35 143.12 476.3C139.61 475.26 136.1 474.21 132.58 473.22L127.31 471.72L124.67 470.97C123.79 470.73 122.9 470.44 122.09 470.27C118.61 469.48 115.03 468.88 111.47 468.38C104.32 467.43 97.09 466.94 89.94 467.29C82.8 467.62 75.68 468.71 69.1 471.13L67.46 466.78C74.68 464.13 82.24 463 89.73 462.65C97.24 462.29 104.71 462.8 112.1 463.78C115.8 464.3 119.46 464.92 123.14 465.75C124.13 465.96 124.99 466.24 125.88 466.49L128.54 467.25L133.85 468.76C137.4 469.75 140.92 470.81 144.44 471.85C147.96 472.9 151.49 473.92 155 475C183.11 483.53 211.06 492.56 238.94 501.74C266.82 510.93 294.65 520.27 322.46 529.63L405.15 557.34L445.95 541.91C459.82 536.7 473.71 531.53 487.61 526.4C515.41 516.15 543.29 506.07 571.3 496.35C578.29 493.9 585.32 491.54 592.34 489.14C599.38 486.8 606.39 484.41 613.45 482.14C627.54 477.53 641.7 473.09 655.97 468.96L661.32 467.41L666.69 465.93L672.06 464.45L677.51 463.09C684.8 461.37 692.19 459.92 699.77 459.36C707.31 458.81 715.17 459.14 722.69 461.83C726.4 463.27 729.96 465.42 732.78 468.39C735.62 471.34 737.62 475 738.87 478.77L734.46 480.22L734.43 480.24Z" fill="#2E100D"/>
<path d="M44.0198 496.95C47.8998 496.09 51.9098 495.63 55.9598 495.82C59.9998 496 64.0698 496.86 67.8398 498.5C68.7798 498.92 69.7098 499.35 70.5998 499.87C71.5098 500.34 72.3598 500.92 73.2098 501.49C73.4198 501.63 73.6398 501.77 73.8398 501.93L74.3298 502.31L74.3498 502.33L74.7798 500.24C74.9598 499.28 75.1898 498.33 75.4398 497.38C75.6998 496.43 75.8898 495.47 76.2098 494.54C78.3898 487.02 82.1598 479.59 88.0698 473.97C91.0298 471.2 94.4298 468.94 98.0298 467.16L100.77 465.92C101.69 465.54 102.64 465.24 103.58 464.9L104.99 464.41L106.42 464.03L109.29 463.27L110.31 467.8L107.67 468.5L106.35 468.85L105.07 469.3C104.22 469.61 103.35 469.88 102.52 470.22L100.06 471.33C96.8498 472.92 93.8598 474.91 91.2698 477.34C86.1098 482.25 82.7098 488.82 80.6698 495.85C80.3698 496.71 80.1898 497.63 79.9498 498.51C79.7098 499.4 79.4998 500.29 79.3198 501.2L79.0398 502.56L78.8898 503.27C78.7898 503.8 78.7298 504.23 78.6398 504.71L77.6998 510.35L77.5798 511.05C77.5798 511.05 77.5798 511.22 77.5298 511.17L77.3998 511.06L77.1298 510.83L76.0698 509.91L73.9498 508.07L72.8398 507.06C72.4698 506.72 72.0998 506.47 71.7298 506.18L71.0898 505.68C70.9198 505.54 70.7298 505.43 70.5498 505.31C69.8198 504.83 69.0998 504.33 68.3198 503.93C67.5698 503.48 66.7698 503.12 65.9698 502.76C59.5298 499.95 52.0798 499.87 45.0298 501.48L44.0098 496.95H44.0198Z" fill="#2E100D"/>
<path d="M737.93 490.45C737.25 490.13 736.45 489.92 735.61 489.79C734.75 489.72 733.86 489.67 732.95 489.8C731.14 490 729.3 490.57 727.57 491.4C725.83 492.23 724.18 493.31 722.63 494.54L721.49 495.5L721.35 495.62L721.06 495.91L720.49 496.5L719.34 497.68C717.79 499.22 716.32 500.9 714.81 502.5L714.05 495.69C713.97 495.12 713.95 494.51 713.83 493.96L713.58 492.72C713.47 492.21 713.4 491.69 713.26 491.19C712.95 490.2 712.72 489.18 712.36 488.21L711.79 486.77C711.61 486.29 711.43 485.8 711.17 485.35C709.41 481.62 706.85 478.31 703.68 475.69C700.52 473.05 696.77 471.11 692.78 469.81C688.78 468.5 684.56 467.82 680.29 467.55L680.55 462.91C685.15 463.21 689.77 463.94 694.24 465.4C698.69 466.85 702.99 469.06 706.66 472.12C710.34 475.17 713.34 479.06 715.38 483.37C715.67 483.9 715.88 484.45 716.09 485.01L716.74 486.67C717.15 487.79 717.42 488.94 717.77 490.08L718.21 492.21L719.72 490.94C721.52 489.51 723.46 488.23 725.58 487.22C727.7 486.21 730 485.47 732.44 485.2C733.65 485.03 734.92 485.07 736.18 485.2C737.45 485.38 738.74 485.71 740 486.31L737.92 490.46L737.93 490.45Z" fill="#2E100D"/>
<path d="M405.18 557.69L414.61 552.62C417.75 550.93 420.89 549.22 424.1 547.67C430.5 544.52 436.83 541.22 443.33 538.27C449.8 535.26 456.23 532.17 462.77 529.35C469.3 526.49 475.79 523.52 482.38 520.82C508.64 509.7 535.21 499.34 562.09 489.81C588.97 480.29 616.1 471.46 643.56 463.75L653.86 460.86L664.23 458.22L674.6 455.6L685.05 453.27C698.96 450.06 713.07 447.74 727.28 446.01L727.51 448.32C713.44 450.04 699.4 452.34 685.55 455.54L675.14 457.86L664.8 460.48L654.46 463.11L644.19 465.99C616.79 473.68 589.71 482.49 562.87 492C536.04 501.51 509.5 511.86 483.29 522.96C476.7 525.66 470.23 528.62 463.72 531.48C457.18 534.3 450.77 537.38 444.32 540.38C437.84 543.32 431.53 546.61 425.15 549.75C421.95 551.3 418.83 553 415.7 554.68L406.31 559.72L405.17 557.69H405.18Z" fill="#2E100D"/>
<path d="M722.97 441.91L734.6 440.74L739.9 440.21L740.57 440.14C740.66 440.14 740.83 440.08 740.87 440.14V440.48L740.8 441.82L740.68 444.5L740.36 451.69L739.41 473.15L732.45 472.84L733.4 451.38L733.56 447.84H733.52L723.77 448.83L722.99 441.91H722.97Z" fill="#310401"/>
<path d="M403.87 555.09C409.59 549.58 415.86 544.99 422.22 540.62L427.04 537.42L431.94 534.38C435.19 532.32 438.54 530.46 441.84 528.52C455.16 520.94 468.84 514.15 482.66 507.68C510.32 494.8 538.57 483.37 567.12 472.78C595.68 462.22 624.55 452.5 653.75 443.83C668.36 439.51 683.04 435.43 697.86 431.81C705.28 430.02 712.71 428.27 720.21 426.76L725.07 425.77L727.86 425.2L729.25 424.91C729.33 424.87 729.33 424.92 729.33 425V425.18V425.54V426.25L729.3 435.55L729.27 446.94L722.3 446.92L722.33 435.53V433.44L721.61 433.59C714.22 435.08 706.87 436.81 699.52 438.59C684.84 442.18 670.25 446.23 655.73 450.53C626.7 459.16 597.96 468.83 569.54 479.33C541.13 489.86 513.03 501.24 485.61 514.01C471.92 520.42 458.37 527.14 445.29 534.59C442.05 536.49 438.75 538.32 435.59 540.33L430.81 543.3L426.14 546.4C420 550.62 413.97 555.05 408.75 560.09L403.89 555.1L403.87 555.09Z" fill="#310401"/>
<path d="M404.95 559.74C378.79 546.76 352.01 535.01 324.97 523.94C297.92 512.88 270.57 502.55 242.97 492.95C215.37 483.35 187.53 474.43 159.4 466.53C155.88 465.55 152.38 464.5 148.85 463.59L138.25 460.83C134.71 459.94 131.2 458.93 127.64 458.13L116.98 455.63C109.89 453.87 102.72 452.54 95.5695 451.05C91.9995 450.27 88.3995 449.69 84.8095 449.09L74.0195 447.28L74.3595 444.98L85.1995 446.8C88.8195 447.4 92.4395 447.98 96.0095 448.77C103.18 450.27 110.39 451.6 117.49 453.37L128.18 455.88C131.75 456.69 135.27 457.69 138.82 458.59L149.45 461.36C152.99 462.27 156.5 463.33 160.03 464.31C188.21 472.23 216.1 481.16 243.74 490.77C271.38 500.38 298.77 510.73 325.86 521.81C352.94 532.9 379.76 544.66 406 557.68L404.96 559.76L404.95 559.74Z" fill="#2E100D"/>
<path d="M76.3801 447.75L68.2901 446.76L68.5601 450.6L69.9801 471.05L63.0301 471.53L61.6101 451.08L61.1701 444.7L60.8201 439.59L60.7801 438.95C60.7801 438.95 60.7301 438.8 60.8101 438.83L60.9701 438.85L61.2901 438.89L62.5601 439.04L65.1001 439.35L77.3601 440.84L76.4101 447.74L76.3801 447.75Z" fill="#310401"/>
<path d="M402.91 560.99C397.58 555.96 391.47 551.54 385.25 547.34L380.52 544.25C378.92 543.25 377.29 542.28 375.68 541.3C372.48 539.3 369.14 537.49 365.86 535.59C352.62 528.18 338.91 521.52 325.06 515.17C297.32 502.52 268.9 491.3 240.17 480.96C211.43 470.64 182.38 461.17 153.02 452.81C138.34 448.63 123.59 444.73 108.76 441.24L97.6197 438.71C93.8997 437.94 90.1797 437.12 86.4497 436.39L82.5497 435.64L82.3997 446.3L75.4297 446.2L75.6097 433.9L75.6897 428.16V427.44L75.6997 427.26C75.7097 427.22 75.7997 427.26 75.8497 427.26L76.1997 427.33L77.6097 427.6L80.4297 428.14L87.7997 429.55C91.5797 430.29 95.3397 431.11 99.1097 431.9L110.36 434.46C125.32 437.98 140.17 441.92 154.94 446.12C184.47 454.54 213.65 464.05 242.54 474.42C271.41 484.82 299.99 496.1 327.96 508.85C341.93 515.26 355.78 521.99 369.26 529.53C372.61 531.46 376 533.3 379.29 535.36C380.94 536.37 382.61 537.36 384.25 538.39L389.13 541.57C395.58 545.92 401.93 550.5 407.74 555.98L402.93 561.02L402.91 560.99Z" fill="#310401"/>
<path d="M404.62 1041.5V1041.61C404.54 1041.16 404.81 1042.76 404.43 1040.64C393.76 1041.11 399.41 1041.15 397.65 1041.69V1041.6V1041.14V1040.2V1038.31V1034.53L397.63 1026.96L397.6 1011.82L397.55 981.54L397.5 920.99L397.62 799.88C397.72 759.51 397.89 719.14 398.2 678.77C398.36 658.58 398.56 638.39 398.84 618.2C399.14 598.01 399.46 577.82 400.17 557.59L407.13 557.84C406.43 577.95 406.11 598.13 405.81 618.3C405.53 638.47 405.33 658.65 405.17 678.82C404.85 719.17 404.69 759.54 404.59 799.9L404.47 920.99L404.52 981.53L404.57 1011.8L404.6 1026.94L404.62 1034.51V1038.3V1040.19V1041.14V1041.63V1041.78C401.79 1041.95 410.87 1043.42 397.84 1042.9C397.46 1040.7 397.73 1042.22 397.65 1041.69V1041.56L404.62 1041.5Z" fill="#310401"/>
<path d="M220.999 703.03L222.729 562.82C222.789 557.8 219.359 553.42 214.469 552.27L95.3494 524.38C88.5994 522.8 82.1494 527.96 82.2094 534.89L83.4694 679.74C83.5094 684.8 87.0994 689.14 92.0694 690.14L208.199 713.39C214.769 714.7 220.909 709.73 220.999 703.03Z" fill="#D1CF8C"/>
<path d="M364.91 895.23L367.01 821.38C367.13 817.16 364.21 813.45 360.07 812.58L261.1 791.8C255.76 790.68 250.71 794.67 250.57 800.12L248.71 872.66C248.6 876.83 251.46 880.5 255.53 881.41L354.26 903.5C359.62 904.7 364.74 900.71 364.9 895.22L364.91 895.23Z" fill="#D1CF8C"/>
<path d="M698.13 911.25L695.19 844.86L559.89 883.82L565.76 945.59L698.13 911.25Z" fill="#E36337"/>
<path d="M563.82 824.06L561.76 741.95C561.52 732.57 552.52 725.93 543.49 728.46L455.14 753.24C448.77 755.03 444.43 760.93 444.64 767.55L447.43 854.94C447.74 864.61 457.32 871.23 466.48 868.09L554.1 838.04C560.04 836 563.97 830.35 563.82 824.07V824.06Z" fill="#D1CF8C"/>
<path d="M463.71 556.86C471.24 554.6 476.41 558.01 476.65 567.42C476.87 576.1 471.91 581.64 466.34 584.18L477.61 599.08L469.04 601.66L458.55 586.72L455.59 587.61L456.14 605.54L449.29 607.6L447.79 561.64L463.71 556.85V556.86ZM455.36 580.19L462.69 577.99C467.32 576.6 469.91 573.63 469.79 569.23C469.68 565.02 467.72 563.42 463.02 564.84L454.97 567.26L455.37 580.2L455.36 580.19Z" fill="#E36337"/>
<path d="M508.41 570.91C508.43 572.03 508.41 573.63 508.41 573.63L487.32 579.98C487.55 585.34 490.75 588.49 495.37 587.1C499.34 585.9 502.5 581.51 503.85 578.39L504.17 578.29L507.2 584.47C505.69 587.71 501.42 592.7 495.53 594.48C486.59 597.17 480.94 591.06 480.66 579.68C480.38 568.23 486.46 558.52 494.25 556.18C502.09 553.82 508.23 559.66 508.43 570.93L508.41 570.91ZM487.34 573.67L501.62 569.37C501.27 565.24 498.6 562.13 494.39 563.39C490.07 564.69 487.74 569.7 487.34 573.66V573.67Z" fill="#E36337"/>
<path d="M535.65 581.59L534.9 576.92L534.74 576.97C533.11 580.71 530.08 584.07 525.74 585.38C517.27 587.93 512.37 581.19 512.2 570.25C512.02 559.24 517.57 549.16 525.47 546.79C529.21 545.67 532.42 546.82 533.97 549L534.08 548.97L533.91 533L540.43 531.04L540.87 580.03L535.67 581.6L535.65 581.59ZM518.66 568.3C518.76 574.89 521.41 579.26 526.56 577.71C531.45 576.24 534.46 570.56 534.39 563.7C534.32 556.7 531.4 552.28 526.26 553.83C521.13 555.37 518.57 562.1 518.66 568.3Z" fill="#E36337"/>
<path d="M575.57 551.17C575.57 562.15 570.9 571.77 562.74 574.22C558.99 575.35 556.02 574.06 554.45 571.75L554.23 571.81L554.31 588.2L547.89 590.13L547.55 540.91L553.02 539.27L553.53 544.01L553.69 543.96C555.03 540.58 558.05 536.96 562.6 535.59C570.13 533.33 575.55 540.1 575.55 551.15L575.57 551.17ZM553.89 557.82C553.93 564.89 557.02 568.53 561.69 567.12C566.53 565.66 569.1 559.93 569.09 553.11C569.08 546.36 566.53 541.7 561.55 543.2C556.63 544.68 553.84 550.55 553.88 557.82H553.89Z" fill="#E36337"/>
<path d="M603.57 536.4L603.39 561.19L598.29 562.73L597.62 558.04L597.46 558.09C595.72 562.12 592.7 565.21 588.57 566.46C582.61 568.25 579.61 565.12 579.62 558.9C579.62 553.14 582.01 548.39 588.97 544.44C596.11 540.51 597.2 538.99 597.21 536.67C597.22 534.15 595.61 532.79 591.98 533.88C588.41 534.95 585.42 538.89 583.52 543.44L583.19 543.54L579.85 537.99C582.35 532.87 586.63 528.41 592.06 526.78C599 524.69 603.63 528.13 603.57 536.42V536.4ZM597.05 544.78C596.45 546.35 594.72 547.66 590.83 549.96C586.89 552.27 585.86 554.23 585.86 556.42C585.86 558.8 587.3 559.76 589.61 559.06C593.38 557.93 597.11 553.89 597.13 549.99L597.16 544.75L597.05 544.78Z" fill="#E36337"/>
<path d="M636.08 526.69L635.69 551.46L629.24 553.4L629.56 530.83C629.63 525.52 627.83 523.28 624.04 524.42C619.54 525.77 616.57 531.1 616.5 538.19L616.29 557.3L609.84 559.24L610.17 522.11L615.59 520.48L615.97 525.26L616.13 525.21C618.12 521.11 621.29 517.97 625.41 516.73C632.79 514.51 636.17 519.58 636.06 526.69H636.08Z" fill="#E36337"/>
<path d="M663.76 543.02L663.17 538.31L663.01 538.36C661.27 542.12 658.15 545.51 653.79 546.82C645.29 549.38 640.65 542.58 640.84 531.55C641.03 520.46 646.87 510.31 654.79 507.92C658.54 506.79 661.7 507.96 663.16 510.16L663.27 510.13L663.62 494.03L670.16 492.07L668.98 541.45L663.76 543.02ZM647.32 529.59C647.2 536.24 649.69 540.64 654.86 539.09C659.76 537.61 662.94 531.9 663.1 524.98C663.26 517.93 660.5 513.47 655.35 515.02C650.2 516.57 647.44 523.35 647.32 529.59Z" fill="#E36337"/>
<path d="M699.27 507.63L698.48 532.57L693.37 534.11L692.82 529.39L692.66 529.44C690.83 533.49 687.75 536.6 683.61 537.84C677.64 539.64 674.73 536.48 674.89 530.23C675.04 524.44 677.52 519.66 684.55 515.7C691.75 511.75 692.87 510.23 692.94 507.89C693.02 505.36 691.44 503.98 687.81 505.07C684.23 506.15 681.16 510.11 679.16 514.67L678.83 514.77L675.64 509.19C678.25 504.05 682.63 499.56 688.06 497.93C695.02 495.84 699.54 499.3 699.28 507.64L699.27 507.63ZM692.58 516.05C691.94 517.63 690.19 518.95 686.27 521.25C682.29 523.57 681.22 525.54 681.16 527.74C681.09 530.14 682.51 531.1 684.83 530.4C688.6 529.26 692.41 525.21 692.53 521.28L692.69 516.01L692.58 516.04V516.05Z" fill="#E36337"/>
<path d="M481.78 690.28L459.1 636.93L458.93 636.98L459.65 696.98L448.96 700.22L447.91 628.11L465.72 622.73L488.46 675.95L488.63 675.9L488.29 615.9L499.07 612.64L499.31 684.97L481.77 690.28H481.78Z" fill="#2E100D"/>
<path d="M522.65 617.62L522.62 635.83L549.44 627.72L549.35 639.12L522.6 647.21L522.56 665.73L549.2 657.67L549.1 669.9L511.84 681.18L511.81 608.8L549.67 597.36L549.58 609.48L522.66 617.62H522.65Z" fill="#2E100D"/>
<path d="M607.349 652.26L597.549 596.94L597.379 596.99L585.439 658.89L569.889 663.6L556.439 595.3L568.159 591.76L577.699 646.97L577.869 646.92L589.809 585.22L605.179 580.57L615.429 635.55L615.599 635.5L627.269 573.9L638.999 570.36L622.889 647.56L607.339 652.27L607.349 652.26Z" fill="#2E100D"/>
<path d="M684.79 568.7L679.13 581.67L678.62 581.82C675.63 576.53 670.09 571.69 662.8 573.9C656.87 575.69 653.7 580.47 653.55 585.17C653.38 590.8 657.28 591.79 666.56 592.08C677.41 592.31 686.53 593.79 685.98 608.41C685.45 622.51 676.47 632.56 664.17 636.29C652.13 639.94 643.64 635.17 639.89 629.9L645.28 615.87L645.78 615.72C649.13 620.8 655.61 626.49 664.5 623.8C671.13 621.79 675.17 617.78 675.37 611.94C675.62 604.84 669.87 604.93 661.04 604.71C649.86 604.37 642.42 601.67 642.79 588.54C643.11 577.18 650.93 565.52 662.92 561.9C674.48 558.41 681.94 563.9 684.78 568.72L684.79 568.7Z" fill="#2E100D"/>
<path d="M707.18 599.53L697.93 602.33L697.41 573.57L698.25 552.45L711.01 548.6L710.11 569.73L707.18 599.53ZM709 613.33C708.78 618.56 706.02 623.01 701.51 624.38C696.91 625.77 694.54 622.87 694.75 617.65C694.96 612.42 697.62 608.11 702.24 606.71C706.78 605.34 709.23 608.11 709 613.34V613.33Z" fill="#2E100D"/>
<path d="M483.69 811.94C501.63 806.93 525.84 799.1 542.31 794.24C553.92 790.81 551 774.01 536.67 777.64C541.2 767.25 533.33 756.18 521.02 762.29C514.59 743.72 485.76 751.97 488.77 773.18C479.05 771.17 471.21 782.06 478.03 789.67C461.93 794.78 464.3 817.35 483.7 811.93L483.69 811.94Z" fill="#B7B479"/>
<path d="M530.4 817.39L525.06 819.17L526.21 835.62L521.39 837.5L520.5 820.48L515.479 821.95L522.02 807.86L530.4 817.39Z" fill="#B7B479"/>
<path d="M493.76 836.23L498.53 834.34L497.38 817.22L502.4 815.44L503.35 832.77L507.27 831.46L502.3 846.23L493.76 836.23Z" fill="#B7B479"/>
<path d="M367.219 579.08C344.239 571.78 321.009 565.12 297.809 558.45C274.589 551.81 251.339 545.28 228.079 538.8C181.539 525.88 134.959 513.1 88.2295 500.9L88.8095 498.65C135.559 510.85 182.149 523.63 228.699 536.56C251.969 543.04 275.219 549.57 298.449 556.22C321.669 562.9 344.879 569.55 367.939 576.87L367.219 579.08Z" fill="#2E100D"/>
<path d="M243.52 581.051L242.924 583.294L367.472 616.387L368.068 614.145L243.52 581.051Z" fill="#2E100D"/>
<path d="M243.504 613.718L242.954 615.972L365.544 645.857L366.094 643.603L243.504 613.718Z" fill="#2E100D"/>
<path d="M241.527 646.662L241.002 648.922L364.712 677.687L365.237 675.427L241.527 646.662Z" fill="#2E100D"/>
<path d="M241.51 680.166L241.022 682.434L363.061 708.686L363.549 706.418L241.51 680.166Z" fill="#2E100D"/>
<path d="M98.7198 714.899L98.2783 717.177L366.594 769.186L367.036 766.908L98.7198 714.899Z" fill="#2E100D"/>
<path d="M83.226 738.441L82.7861 740.719L364.472 795.116L364.912 792.838L83.226 738.441Z" fill="#2E100D"/>
<path d="M84.7712 772.167L84.292 774.437L230.206 805.239L230.685 802.969L84.7712 772.167Z" fill="#2E100D"/>
<path d="M83.4537 803.342L82.9512 805.607L228.472 837.895L228.975 835.63L83.4537 803.342Z" fill="#2E100D"/>
<path d="M84.4619 832.018L83.9238 834.275L226.177 868.19L226.715 865.933L84.4619 832.018Z" fill="#2E100D"/>
<path d="M82.0814 862.505L81.5469 864.763L360.252 930.749L360.787 928.491L82.0814 862.505Z" fill="#2E100D"/>
<path d="M81.8142 892.995L81.2588 895.248L358.749 963.663L359.305 961.411L81.8142 892.995Z" fill="#2E100D"/>
<path d="M82.0836 917.07L81.5078 919.318L262.173 965.604L262.749 963.357L82.0836 917.07Z" fill="#2E100D"/>
<path d="M240.092 712.546L239.646 714.823L334.648 733.444L335.094 731.167L240.092 712.546Z" fill="#2E100D"/>
<path d="M670.167 706.343L584.853 729.875L585.469 732.111L670.784 708.58L670.167 706.343Z" fill="#2E100D"/>
<path d="M682.7 730.259L587.266 757.66L587.906 759.89L683.34 732.489L682.7 730.259Z" fill="#2E100D"/>
<path d="M696.12 756.645L588.837 787.854L589.485 790.081L696.768 758.872L696.12 756.645Z" fill="#2E100D"/>
<path d="M697.344 785.862L590.086 818.245L590.756 820.466L698.015 788.083L697.344 785.862Z" fill="#2E100D"/>
<path d="M694.27 818.38L440.114 897.006L440.8 899.222L694.956 820.596L694.27 818.38Z" fill="#2E100D"/>
<path d="M541.537 891.094L440.099 922.165L440.778 924.383L542.216 893.312L541.537 891.094Z" fill="#2E100D"/>
<path d="M541.832 919.955L439.912 951.056L440.589 953.275L542.509 922.174L541.832 919.955Z" fill="#2E100D"/>
<path d="M518.914 954.747L442.26 979.461L442.972 981.669L519.626 956.955L518.914 954.747Z" fill="#2E100D"/>
<path d="M658.143 669.903L444.294 731.991L444.941 734.219L658.79 672.131L658.143 669.903Z" fill="#2E100D"/>
<path d="M351.69 864.45L353.22 854.38L344.53 853.06C344.34 849.92 343.55 846.91 342.26 844.15L349.16 839.07L343.13 830.87L336.1 836.04C333.96 834.19 331.49 832.69 328.76 831.67L330.06 823.16L319.99 821.63L318.69 830.14C315.68 830.31 312.79 831.04 310.14 832.24L304.99 825.23L296.79 831.26L301.92 838.24C299.95 840.44 298.36 843.01 297.27 845.87L289.02 844.61L287.49 854.68L295.72 855.93C295.88 858.86 296.58 861.69 297.71 864.29L290.82 869.36L296.85 877.56L303.62 872.58C305.87 874.65 308.53 876.3 311.49 877.42L310.21 885.83L320.28 887.36L321.56 878.95C324.63 878.77 327.57 878.02 330.27 876.78L335.26 883.57L343.46 877.54L338.45 870.72C340.39 868.53 341.96 865.97 343.02 863.13L351.69 864.45ZM318.32 867.87C310.95 866.75 305.89 859.86 307.01 852.5C308.13 845.13 315.02 840.07 322.38 841.19C329.75 842.31 334.81 849.2 333.69 856.56C332.57 863.93 325.68 868.99 318.32 867.87Z" fill="#B7B479"/>
<path d="M351.69 864.45L353.22 854.38L344.53 853.06C344.34 849.92 343.55 846.91 342.26 844.15L349.16 839.07L343.13 830.87L336.1 836.04C333.96 834.19 331.49 832.69 328.76 831.67L330.06 823.16L319.99 821.63L318.69 830.14C315.68 830.31 312.79 831.04 310.14 832.24L304.99 825.23L296.79 831.26L301.92 838.24C299.95 840.44 298.36 843.01 297.27 845.87L289.02 844.61L287.49 854.68L295.72 855.93C295.88 858.86 296.58 861.69 297.71 864.29L290.82 869.36L296.85 877.56L303.62 872.58C305.87 874.65 308.53 876.3 311.49 877.42L310.21 885.83L320.28 887.36L321.56 878.95C324.63 878.77 327.57 878.02 330.27 876.78L335.26 883.57L343.46 877.54L338.45 870.72C340.39 868.53 341.96 865.97 343.02 863.13L351.69 864.45ZM318.32 867.87C310.95 866.75 305.89 859.86 307.01 852.5C308.13 845.13 315.02 840.07 322.38 841.19C329.75 842.31 334.81 849.2 333.69 856.56C332.57 863.93 325.68 868.99 318.32 867.87Z" fill="#B7B479"/>
<path d="M318.49 866.79C321.71 867.29 325.09 866.46 327.71 864.52C330.34 862.6 332.14 859.62 332.62 856.4C333.12 853.18 332.29 849.8 330.35 847.18C328.43 844.55 325.45 842.75 322.23 842.27C319.01 841.77 315.63 842.6 313.01 844.54C310.38 846.46 308.58 849.44 308.1 852.66C307.6 855.88 308.43 859.26 310.37 861.88C312.29 864.51 315.27 866.31 318.49 866.79L318.16 868.95C316.28 868.66 314.44 868 312.81 867.01C311.18 866.02 309.739 864.71 308.609 863.17C307.479 861.63 306.65 859.87 306.2 858.02C305.74 856.17 305.66 854.22 305.94 852.33C306.23 850.45 306.89 848.61 307.88 846.98C308.87 845.35 310.18 843.91 311.72 842.78C313.26 841.65 315.02 840.82 316.87 840.37C318.72 839.91 320.67 839.83 322.56 840.11C324.44 840.4 326.28 841.06 327.91 842.05C329.54 843.04 330.979 844.35 332.109 845.89C333.239 847.43 334.07 849.19 334.52 851.04C334.98 852.89 335.06 854.84 334.78 856.73C334.49 858.61 333.83 860.45 332.84 862.08C331.85 863.71 330.54 865.15 329 866.28C327.46 867.41 325.7 868.24 323.85 868.69C322 869.15 320.05 869.23 318.16 868.95L318.49 866.79Z" fill="#B7B479"/>
<path d="M346.81 852.31L345.55 852.12L345.52 851.77C345.39 850.62 345.19 849.48 344.91 848.35C344.63 847.23 344.27 846.12 343.84 845.05L343.62 844.52L344.46 843.9L350.7 839.31L343.37 829.35L337.27 833.84L336.15 834.66L336.02 834.55C335.14 833.85 334.21 833.2 333.24 832.62C332.27 832.04 331.26 831.53 330.23 831.08L329.97 830.97L330.16 829.73L331.3 822.25L319.08 820.39L317.93 827.93L317.75 829.11L317.38 829.15C316.25 829.27 315.12 829.47 314.02 829.74C312.91 830.01 311.83 830.36 310.77 830.78L310.51 830.88L309.74 829.84L305.22 823.69L295.26 831.02L299.76 837.13L300.53 838.17L300.38 838.35C299.66 839.23 299 840.15 298.41 841.11C297.82 842.07 297.28 843.07 296.82 844.11L296.59 844.64L295.62 844.49L288.12 843.35L286.26 855.57L293.64 856.7L294.7 856.86L294.74 857.27C294.86 858.37 295.05 859.47 295.31 860.55C295.57 861.63 295.91 862.69 296.31 863.73L296.38 863.9L295.32 864.68L289.3 869.11L296.63 879.07L302.79 874.54L303.57 873.96L304.02 874.34C304.9 875.06 305.84 875.72 306.81 876.32C307.78 876.92 308.8 877.45 309.84 877.9L310.29 878.09L310.13 879.17L308.98 886.72L321.2 888.58L322.34 881.09L322.51 879.95L322.9 879.91C324.02 879.79 325.14 879.59 326.24 879.32C327.34 879.05 328.42 878.7 329.47 878.29L329.91 878.11L330.54 878.97L335.03 885.08L344.99 877.75L340.47 871.61L339.84 870.75L340.16 870.35C340.87 869.46 341.51 868.52 342.09 867.54C342.67 866.56 343.19 865.54 343.63 864.5L343.7 864.33L345.05 864.54L352.59 865.69L352.75 864.61L352.91 863.53L354.44 853.46L346.79 852.29L346.81 852.31ZM345.39 862.39L343.51 862.1L342.7 861.98C342.57 861.97 342.42 861.92 342.31 861.94L342.16 862.32L341.62 863.66C341.21 864.62 340.74 865.55 340.21 866.44C339.68 867.33 339.09 868.19 338.44 869.01L338.2 869.31L338 869.56L337.73 869.87L337.2 870.49L337.07 870.64L337.05 870.66V870.68L337.1 870.72L337.16 870.8L337.4 871.13L338.71 872.9L341.94 877.29L335.49 882.03L332.29 877.68L331 875.92L330.76 875.59L330.64 875.43C330.59 875.43 330.52 875.48 330.46 875.5L329.72 875.82L329.35 875.98L329.03 876.11C328.91 876.16 328.79 876.21 328.67 876.26C327.71 876.64 326.72 876.95 325.72 877.2C324.72 877.45 323.7 877.63 322.67 877.74L322.26 877.78C321.99 877.81 321.72 877.82 321.45 877.84L320.64 877.9C320.56 878.13 320.55 878.42 320.5 878.68L320.18 880.75L319.37 886.09L311.46 884.88L312.28 879.48L312.61 877.32L312.67 876.92L312.7 876.72C312.7 876.72 312.7 876.69 312.68 876.69L312.63 876.67L312.53 876.63L311.77 876.33L311.39 876.18L311.07 876.05L310.71 875.9C309.76 875.48 308.83 875 307.94 874.45C307.05 873.9 306.2 873.3 305.39 872.64L305.09 872.39L304.9 872.23L304.59 871.96L303.98 871.42C303.88 871.34 303.78 871.22 303.67 871.17L303.34 871.41L301.48 872.78L297.08 876.02L292.34 869.57L296.6 866.44L298.11 865.33L298.75 864.86L298.91 864.74L298.99 864.68C298.99 864.68 299.05 864.64 299.02 864.61L298.87 864.24L298.33 862.94C297.96 861.99 297.66 861.02 297.42 860.04C297.18 859.05 297 858.05 296.9 857.04L296.86 856.66L296.8 855.86L296.74 855.07V854.97C296.74 854.97 296.67 854.96 296.64 854.95L296.44 854.92L296.05 854.86L293.96 854.54L288.73 853.74L289.94 845.83L295.28 846.64L297.52 846.98L297.92 847.04C297.92 847.04 297.97 847.02 297.98 846.99L298.02 846.9L298.1 846.71L298.4 845.96L298.55 845.58L298.65 845.35L298.81 844.99C299.23 844.05 299.72 843.13 300.26 842.25C300.8 841.37 301.41 840.53 302.06 839.73L302.43 839.29L302.96 838.68C303.61 838.28 302.92 837.83 302.67 837.4L301.51 835.83L298.31 831.48L304.76 826.74L307.99 831.13L309.16 832.72L309.64 833.38L309.76 833.54L309.78 833.56H309.8L309.85 833.53L309.94 833.49L310.32 833.33C310.78 833.13 311.45 832.85 311.57 832.8C312.54 832.42 313.53 832.1 314.54 831.85C315.55 831.6 316.58 831.42 317.61 831.31L318.05 831.27L318.87 831.21L319.28 831.18L319.48 831.16H319.58C319.58 831.16 319.65 831.16 319.65 831.11L319.77 830.3L320.08 828.25L320.9 822.86L328.81 824.07L328 829.4L327.7 831.36L327.58 832.16C327.58 832.23 327.56 832.3 327.55 832.36L327.74 832.43L328.12 832.58C328.59 832.76 329.25 833.03 329.37 833.08C330.32 833.49 331.24 833.96 332.12 834.49C333 835.02 333.85 835.61 334.66 836.25L335.78 837.18L335.94 837.31L336.02 837.37C336.02 837.37 336.07 837.44 336.1 837.4L336.43 837.16L337.08 836.68L338.57 835.58L342.91 832.39L347.65 838.84L343.17 842.14L341.33 843.49L341 843.74C341 843.74 340.93 843.78 340.93 843.8L340.97 843.89L341.05 844.08L341.39 844.84C341.67 845.46 341.71 845.58 341.82 845.85C342.22 846.83 342.54 847.84 342.8 848.87C343.06 849.9 343.24 850.94 343.36 851.99L343.41 852.46L343.47 853.29L343.5 853.7L343.52 853.91C343.52 853.91 343.51 853.99 343.54 854L343.64 854.02L344.46 854.15L346.49 854.46L351.99 855.3L350.78 863.21L345.4 862.39H345.39Z" fill="#B7B479"/>
<path d="M294.38 827.36L293.73 821.94L289.05 822.5C288.5 820.91 287.67 819.46 286.6 818.22L289.44 814.61L285.15 811.24L282.26 814.92C280.89 814.27 279.4 813.85 277.84 813.71L277.29 809.13L271.87 809.78L272.42 814.36C270.89 814.88 269.5 815.67 268.3 816.67L264.63 813.79L261.26 818.08L264.91 820.95C264.21 822.37 263.75 823.93 263.6 825.56L259.16 826.09L259.81 831.51L264.24 830.98C264.74 832.47 265.51 833.83 266.47 835.01L263.64 838.61L267.93 841.98L270.71 838.44C272.17 839.19 273.78 839.66 275.47 839.81L276.01 844.34L281.43 843.69L280.89 839.16C282.45 838.63 283.86 837.82 285.08 836.79L288.63 839.58L292 835.29L288.43 832.49C289.12 831.08 289.56 829.53 289.7 827.92L294.37 827.36H294.38ZM277.63 833.9C273.66 834.37 270.06 831.54 269.59 827.58C269.12 823.61 271.95 820.01 275.91 819.54C279.88 819.07 283.48 821.9 283.95 825.86C284.42 829.82 281.59 833.43 277.63 833.9Z" fill="#B7B479"/>
<path d="M294.38 827.36L293.73 821.94L289.05 822.5C288.5 820.91 287.67 819.46 286.6 818.22L289.44 814.61L285.15 811.24L282.26 814.92C280.89 814.27 279.4 813.85 277.84 813.71L277.29 809.13L271.87 809.78L272.42 814.36C270.89 814.88 269.5 815.67 268.3 816.67L264.63 813.79L261.26 818.08L264.91 820.95C264.21 822.37 263.75 823.93 263.6 825.56L259.16 826.09L259.81 831.51L264.24 830.98C264.74 832.47 265.51 833.83 266.47 835.01L263.64 838.61L267.93 841.98L270.71 838.44C272.17 839.19 273.78 839.66 275.47 839.81L276.01 844.34L281.43 843.69L280.89 839.16C282.45 838.63 283.86 837.82 285.08 836.79L288.63 839.58L292 835.29L288.43 832.49C289.12 831.08 289.56 829.53 289.7 827.92L294.37 827.36H294.38ZM277.63 833.9C273.66 834.37 270.06 831.54 269.59 827.58C269.12 823.61 271.95 820.01 275.91 819.54C279.88 819.07 283.48 821.9 283.95 825.86C284.42 829.82 281.59 833.43 277.63 833.9Z" fill="#B7B479"/>
<path d="M277.56 833.32C279.29 833.12 280.92 832.2 282 830.83C283.08 829.46 283.59 827.66 283.37 825.93C283.17 824.2 282.25 822.57 280.88 821.49C279.51 820.41 277.71 819.9 275.98 820.12C274.25 820.32 272.62 821.24 271.54 822.61C270.46 823.98 269.95 825.78 270.17 827.51C270.37 829.24 271.29 830.87 272.66 831.95C274.03 833.03 275.83 833.54 277.56 833.32L277.7 834.48C276.68 834.6 275.64 834.52 274.66 834.24C273.67 833.96 272.74 833.49 271.94 832.86C271.14 832.23 270.46 831.44 269.96 830.54C269.46 829.65 269.14 828.65 269.01 827.64C268.89 826.62 268.97 825.58 269.25 824.6C269.53 823.61 270 822.68 270.63 821.88C271.26 821.08 272.05 820.4 272.95 819.9C273.84 819.4 274.84 819.08 275.85 818.95C276.87 818.83 277.91 818.91 278.89 819.19C279.88 819.47 280.81 819.94 281.61 820.57C282.41 821.2 283.09 821.99 283.59 822.89C284.09 823.78 284.41 824.78 284.54 825.79C284.66 826.81 284.58 827.85 284.3 828.83C284.02 829.82 283.55 830.75 282.92 831.55C282.29 832.35 281.5 833.03 280.6 833.53C279.71 834.03 278.71 834.35 277.7 834.48L277.56 833.32Z" fill="#B7B479"/>
<path d="M290.12 821.78L289.44 821.86L289.37 821.68C289.14 821.1 288.87 820.54 288.56 820C288.25 819.46 287.91 818.94 287.53 818.45L287.34 818.21L287.68 817.77L290.25 814.51L285.04 810.41L282.53 813.6L282.07 814.18L281.99 814.14C281.43 813.9 280.86 813.7 280.28 813.54C279.7 813.38 279.1 813.26 278.5 813.17L278.35 813.15L278.27 812.48L277.79 808.45L271.21 809.24L271.7 813.3L271.78 813.94L271.59 814.01C271.02 814.24 270.47 814.5 269.94 814.8C269.41 815.1 268.9 815.44 268.41 815.8L268.29 815.89L267.74 815.46L264.52 812.93L260.42 818.14L263.62 820.65L264.17 821.08L264.12 821.2C263.88 821.75 263.67 822.33 263.5 822.91C263.33 823.49 263.2 824.09 263.11 824.69L263.07 825L262.55 825.06L258.51 825.54L259.3 832.12L263.28 831.64L263.85 831.57L263.93 831.78C264.15 832.33 264.41 832.87 264.7 833.39C264.99 833.91 265.32 834.41 265.67 834.89L265.73 834.97L265.29 835.53L262.82 838.68L268.03 842.78L270.56 839.56L270.88 839.15L271.17 839.28C271.73 839.53 272.31 839.73 272.89 839.9C273.48 840.07 274.08 840.2 274.68 840.28L274.94 840.31L275.01 840.89L275.5 844.96L282.08 844.17L281.6 840.13L281.53 839.52L281.73 839.44C282.29 839.22 282.84 838.95 283.37 838.66C283.9 838.36 284.41 838.03 284.89 837.67L285.09 837.51L285.54 837.86L288.74 840.37L292.84 835.16L289.63 832.63L289.18 832.28L289.29 832.03C289.53 831.47 289.73 830.89 289.89 830.3C290.05 829.71 290.17 829.11 290.25 828.51V828.41L290.99 828.32L295.05 827.83L294.98 827.25L294.91 826.67L294.26 821.25L290.14 821.74L290.12 821.78ZM290.83 827.19L289.82 827.31L289.39 827.36C289.32 827.37 289.23 827.36 289.18 827.4L289.16 827.62L289.08 828.39C289.01 828.94 288.9 829.49 288.75 830.03C288.6 830.57 288.42 831.1 288.2 831.61L288.12 831.8L288.05 831.96L287.96 832.16L287.78 832.56L287.73 832.66L287.74 832.68L287.76 832.7L287.8 832.73L287.97 832.87L288.9 833.6L291.19 835.4L288.54 838.77L286.26 836.98L285.34 836.26L285.17 836.13L285.08 836.06C285.08 836.06 285.02 836.1 285 836.12L284.66 836.39L284.49 836.53L284.34 836.65C284.29 836.69 284.23 836.74 284.18 836.78C283.74 837.11 283.27 837.42 282.79 837.69C282.31 837.96 281.81 838.2 281.29 838.41L281.08 838.49C280.95 838.54 280.81 838.59 280.67 838.64L280.26 838.79C280.26 838.92 280.29 839.07 280.3 839.21L280.43 840.32L280.77 843.19L276.51 843.7L276.16 840.79L276.02 839.63L275.99 839.41V839.3C275.99 839.3 275.97 839.28 275.96 839.29H275.93H275.88L275.44 839.24L275.22 839.22L275.04 839.2L274.83 839.17C274.28 839.09 273.73 838.97 273.19 838.82C272.65 838.67 272.12 838.48 271.61 838.25L271.42 838.16L271.3 838.1L271.1 838L270.71 837.81C270.65 837.78 270.58 837.74 270.52 837.72L270.38 837.89L269.62 838.86L267.81 841.16L264.44 838.51L266.19 836.28L266.81 835.49L267.07 835.15L267.14 835.07L267.17 835.03C267.17 835.03 267.2 835 267.17 834.99L267.04 834.82L266.58 834.22C266.26 833.78 265.96 833.33 265.69 832.85C265.43 832.37 265.19 831.88 264.99 831.38L264.92 831.19L264.77 830.79L264.63 830.39L264.61 830.34C264.61 830.34 264.58 830.34 264.56 830.34H264.45L264.24 830.38L263.11 830.51L260.3 830.85L259.79 826.59L262.67 826.25L263.88 826.11L264.1 826.08C264.1 826.08 264.12 826.06 264.12 826.04V825.99L264.14 825.88L264.19 825.45L264.21 825.23L264.23 825.1L264.26 824.89C264.34 824.34 264.46 823.8 264.62 823.27C264.77 822.74 264.97 822.22 265.19 821.71L265.32 821.43L265.51 821.04C265.79 820.74 265.37 820.61 265.18 820.42L264.36 819.77L262.08 817.98L264.73 814.61L267.03 816.42L267.86 817.07L268.2 817.34L268.29 817.41H268.3H268.31L268.33 817.39L268.37 817.36L268.54 817.22C268.75 817.05 269.05 816.81 269.11 816.77C269.56 816.43 270.02 816.13 270.51 815.85C271 815.58 271.5 815.34 272.02 815.13L272.24 815.04L272.65 814.89L272.86 814.82L272.96 814.78L273.01 814.76C273.01 814.76 273.05 814.75 273.04 814.73L272.99 814.29L272.86 813.19L272.51 810.29L276.77 809.78L277.11 812.65L277.24 813.7L277.29 814.13C277.29 814.13 277.29 814.2 277.3 814.24H277.41L277.63 814.27C277.9 814.3 278.28 814.34 278.35 814.35C278.9 814.43 279.44 814.54 279.97 814.68C280.5 814.83 281.03 815.01 281.54 815.23L282.25 815.55L282.35 815.59L282.4 815.61C282.4 815.61 282.44 815.64 282.44 815.61L282.57 815.44L282.84 815.1L283.45 814.32L285.24 812.05L288.61 814.7L286.77 817.04L286.01 818L285.87 818.18C285.87 818.18 285.84 818.21 285.84 818.22L285.88 818.26L285.95 818.35L286.23 818.69C286.46 818.97 286.5 819.03 286.6 819.15C286.95 819.6 287.26 820.08 287.54 820.57C287.82 821.06 288.07 821.58 288.28 822.1L288.37 822.34L288.52 822.76L288.6 822.97L288.64 823.07C288.64 823.07 288.64 823.11 288.66 823.11H288.72L289.16 823.05L290.25 822.92L293.21 822.57L293.72 826.83L290.82 827.18L290.83 827.19Z" fill="#B7B479"/>
<path d="M204.06 698.46L175.08 693.11V566.11L205.24 573.28L204.06 698.46Z" fill="#E36337"/>
<path d="M162.37 690.81L132.64 684.74L132.08 591.47L162.24 598.63L162.37 690.81Z" fill="#E36337"/>
<path d="M123.699 683.53L93.5395 676.36L92.9795 614.36L123.699 621.53V683.53Z" fill="#E36337"/>
<path fill-rule="evenodd" clip-rule="evenodd" d="M42.9704 607.49L2.40039 631.31L10.0904 744.51L75.7404 764.71L118.86 690.66L99.6904 642.09L44.1804 635.92C44.1804 635.92 43.4204 620.05 42.9704 607.49Z" fill="#771213"/>
<path fill-rule="evenodd" clip-rule="evenodd" d="M737.25 611.83L765.55 623.5L757.14 737.86L699.77 756.98L656.62 688.32L674.96 639.66L736.49 634.39C736.49 634.39 736.57 623.87 737.25 611.82V611.83Z" fill="#771213"/>
<path d="M44.91 630.97L103.36 637.51L120.93 691.02L77.33 769.92L6.96 747.27L0 628.8L44.38 603.01L48.32 609.8L8.12 633.16L14.48 741.44L73.59 760.47L112.4 690.22L97.48 644.75L44.04 638.77L44.91 630.97Z" fill="#2E100D"/>
<path d="M36.7747 672.326L35.7129 676.854L116.345 695.766L117.407 691.238L36.7747 672.326Z" fill="#2E100D"/>
<path d="M29.9396 709.758L28.6221 714.217L92.694 733.148L94.0116 728.688L29.9396 709.758Z" fill="#2E100D"/>
<path d="M734.04 638.68L677.82 644.8L663.19 688.28L700.25 752.62L753.6 736.6L761.42 625.13L732.64 612.75L735.74 605.54L769.64 620.12L761.05 742.55L696.55 761.93L654.62 689.13L671.98 637.54L733.19 630.87L734.04 638.68Z" fill="#2E100D"/>
<path d="M740.084 666.554L657.647 686.939L658.764 691.453L741.201 671.068L740.084 666.554Z" fill="#2E100D"/>
<path d="M741.998 704.425L676.52 723.102L677.795 727.573L743.273 708.897L741.998 704.425Z" fill="#2E100D"/>
</svg>
