<svg width="1032" height="1254" viewBox="0 0 1032 1254" fill="none" xmlns="http://www.w3.org/2000/svg">
<path opacity="0.5" d="M482.603 1253.35C614.726 1253.35 721.832 1242.33 721.832 1228.73C721.832 1215.13 614.726 1204.11 482.603 1204.11C350.481 1204.11 243.375 1215.13 243.375 1228.73C243.375 1242.33 350.481 1253.35 482.603 1253.35Z" fill="#C6C6C6"/>
<path fill-rule="evenodd" clip-rule="evenodd" d="M14.2728 658.298L3.69141 787.981L131.141 952.807L357.314 1025.72L432.792 981.655L413.983 932.882L370.329 948.362L258.883 842.769L213.922 669.312L121.043 603.53L14.2728 658.298Z" fill="#C23C27"/>
<path fill-rule="evenodd" clip-rule="evenodd" d="M160.681 887.851L345.735 984.18L424.029 961.79L413.75 933.385L363.388 956.147L239.609 846.229L154.395 665.641L45.2812 727.248L160.681 887.851Z" fill="#E36337"/>
<path fill-rule="evenodd" clip-rule="evenodd" d="M13.8335 657.695L3.78516 789.771L8.67353 795.786L45.6884 726.816L154.46 665.621L213.201 668.185L119.617 603.229L13.8335 657.695Z" fill="#401714"/>
<path fill-rule="evenodd" clip-rule="evenodd" d="M162.132 887.86L140.023 957.112L205.393 978.798L227.582 924.392L298.483 881.393L263.208 848.653L239.581 845.615L162.132 887.86Z" fill="#401714"/>
<path fill-rule="evenodd" clip-rule="evenodd" d="M285.643 952.184L276.449 1001.7L346.476 1024.16L343.488 982.339L369.59 948.362L331.489 912.745L285.643 952.184Z" fill="#401714"/>
<path fill-rule="evenodd" clip-rule="evenodd" d="M378.352 974.765L398.569 1000.03L432.285 981.434L421.562 955.272L413.204 931.936L390.039 943.876L378.352 974.765Z" fill="#401714"/>
<path fill-rule="evenodd" clip-rule="evenodd" d="M84.4022 779.039L51.3906 849.025L92.1673 903.29L123.519 835.466L211.319 788.765L245.407 797.536L226.034 730.718L184.03 726.343L84.4022 779.039Z" fill="#401714"/>
<path d="M416.187 936.684L369.526 953.26L258.864 850.111L209.417 671.585L119.344 609.072L17.4931 661.014L8.57131 788.946L135.83 950.424L357.567 1019.93L431.436 977.581L435.368 984.431L358.492 1028.49L131.143 957.223L0.484375 791.431L9.91913 656.005L119.968 599.889L216.267 666.727L265.885 845.857L371.407 944.208L413.552 929.241L416.187 936.684Z" fill="#2E100D"/>
<path fill-rule="evenodd" clip-rule="evenodd" d="M544.016 673.195L598.844 802.676L646.641 852.878L678.134 849.176L699.247 826.575L674.795 730.809L655.342 744.147L600.886 684.128L560.873 666.345L544.016 673.195Z" fill="#C23C27"/>
<path fill-rule="evenodd" clip-rule="evenodd" d="M418.051 673.195L358.596 764.706L280.704 675.941L240.219 618.709L292.462 550.754L393.599 665.047L418.051 673.195Z" fill="#C23C27"/>
<path fill-rule="evenodd" clip-rule="evenodd" d="M342.379 995.968L361.49 1091.09L395.326 1173.83L349.39 1194.08L349.641 1227.91L410.645 1248.17L475.844 1210.88L475.109 1176.05L458.553 1096.77L491.655 977.974L342.379 995.968Z" fill="#C23C27"/>
<path fill-rule="evenodd" clip-rule="evenodd" d="M571.675 990.325L622.56 999.217L606.749 1095.28L574.894 1168.64L613.417 1196.3L612.18 1228.17L553.399 1248.66L496.841 1206.19L510.922 1099.24L487.215 1009.59L571.675 990.325Z" fill="#C23C27"/>
<path fill-rule="evenodd" clip-rule="evenodd" d="M623.545 1001.93L592.424 851.268L603.267 747.375L580.565 697.898L539.306 670.912L412.168 672.058L376.561 706.538L357.43 759.596L367.126 858.742L341.246 994.027L382.485 996.994L410.649 1030.8L484.367 1049.11L549.384 1031.16L574.862 998.101L623.545 1001.93Z" fill="#C23C27"/>
<path fill-rule="evenodd" clip-rule="evenodd" d="M593.957 974.775L574.957 853.521L591.443 853.984L616.88 990.939L593.957 974.775Z" fill="#E36337"/>
<path fill-rule="evenodd" clip-rule="evenodd" d="M365.889 975.027L385.211 853.31L368.413 852.757L348.035 988.475L365.889 975.027Z" fill="#E36337"/>
<path fill-rule="evenodd" clip-rule="evenodd" d="M427.154 676.142L399.172 700.524L372.125 754.205L385.221 853.25L365.828 975.037L412.63 1032.8L463.012 1050.33L502.159 1050.84L549.213 1031.07L593.942 974.765L574.902 852.757L585.513 749.025L558.325 692.97L537.394 670.238L427.154 676.142Z" fill="#771213"/>
<path fill-rule="evenodd" clip-rule="evenodd" d="M585.386 749.991L558.379 693.1L581.986 702.002L603.933 755.261L585.386 749.991Z" fill="#E36337"/>
<path fill-rule="evenodd" clip-rule="evenodd" d="M582.074 701.952L601.799 680.608L645.764 734.45L582.074 701.952Z" fill="#E36337"/>
<path fill-rule="evenodd" clip-rule="evenodd" d="M372.863 752.716L399.065 700.705L377.42 705.804L358.973 752.837L372.863 752.716Z" fill="#E36337"/>
<path fill-rule="evenodd" clip-rule="evenodd" d="M351.877 1193.34L348.91 1228.66L412.63 1245.95L474.378 1208.41L474.62 1176.29L463.757 1118.51L438.56 1139.01L406.454 1100.23L365.949 1095.04L393.861 1173.09L351.877 1193.34Z" fill="#771213"/>
<path fill-rule="evenodd" clip-rule="evenodd" d="M612.684 1196.55V1228.17L553.651 1248.41L495.855 1205.94L497.586 1179.02L507.463 1117.51L535.868 1148.89L574.894 1100.73L603.048 1097.51L573.898 1171.61L612.684 1196.55Z" fill="#771213"/>
<path d="M265.902 654.134L203.61 568.869L88.8746 575.357L82.6484 517.089L90.3029 484.51L192.878 456.638L218.034 414.886L246.942 423.989L233.021 468.95L244.91 483.021L242.194 493.643L321.354 583.514L311.718 637.588L265.902 654.134Z" fill="#771213"/>
<path d="M684.235 843.614L745.058 775.76L775.927 760.19L738.882 752.777L714.43 707.353L727.023 706.257L725.917 671.233L680.101 672.139L671.46 705.16L678.129 729.783L657.007 746.209L646.445 808.047L684.235 843.614Z" fill="#771213"/>
<path fill-rule="evenodd" clip-rule="evenodd" d="M401.009 1090.1L401.995 1036.5L353.715 1000.32L371.307 1087.14L401.009 1090.1Z" fill="#E36337"/>
<path fill-rule="evenodd" clip-rule="evenodd" d="M574.395 1091.58L563.773 1030.83L611.44 1007.86L597.851 1091.58H574.395Z" fill="#E36337"/>
<path fill-rule="evenodd" clip-rule="evenodd" d="M376.441 987.851L419.713 1016.89L484.599 1027.53L538.854 1019.75L579.349 993.071L549.466 1032.3L505.863 1048.48L464.12 1047.5L411.264 1031.7L376.441 987.851Z" fill="#59171E"/>
<path fill-rule="evenodd" clip-rule="evenodd" d="M554.082 1219.65L510.368 1187.78L502.774 1146.11L497.584 1180.19L494.496 1205.53L553.71 1249.28L554.082 1219.65Z" fill="#59171E"/>
<path fill-rule="evenodd" clip-rule="evenodd" d="M414.352 1216.68L460.288 1185.38L467.329 1140.18L475.114 1178.34L473.253 1212.98L414.533 1246.5L414.352 1216.68Z" fill="#59171E"/>
<path fill-rule="evenodd" clip-rule="evenodd" d="M429.695 1038.55L457.577 1098.5L467.676 1046.51L429.695 1038.55Z" fill="#A3332B"/>
<path fill-rule="evenodd" clip-rule="evenodd" d="M534.625 1039.96L510.174 1098.5L500.789 1050.59L534.625 1039.96Z" fill="#A3332B"/>
<path d="M351.134 760.793L365.588 852.324L335.805 991.512L343.882 993.192L371.784 852.214L357.983 761.628L376.36 707.604L351.134 760.793Z" fill="#310401"/>
<path d="M602.573 760.954L589.176 852.224L621.533 1005.33L628.926 1003.91L597.001 852.707L610.369 760.693L584.016 706.307L602.573 760.954Z" fill="#310401"/>
<path d="M473.42 1049.67L463.583 1096.33L478.329 1176.71L477.926 1212.22L413.663 1252.24L346.353 1230.77L347.499 1191.31L388.608 1171.61L357.96 1092.6L336.043 991.18L343.758 989.511L365.544 1090.33L398.616 1175.56L355.254 1196.35L354.42 1225.06L412.587 1243.61L470.081 1207.81L470.423 1177.38L455.536 1096.22L465.695 1048.04L473.42 1049.67Z" fill="#2E100D"/>
<path d="M503.433 1048.94L513.452 1099.52L500.788 1182.95L500.114 1204.73L554.56 1244.98L607.638 1226.07L609.107 1197.31L569.698 1175.08L602.71 1092.55L621.167 1002.6L628.902 1004.19L610.304 1094.82L579.595 1171.6L617.244 1192.83L615.252 1231.74L553.243 1253.83L492.098 1208.62L492.912 1182.24L505.435 1099.7L495.689 1050.47L503.433 1048.94Z" fill="#2E100D"/>
<path d="M246.533 489.867L240.578 495.052L390.602 667.331L396.557 662.146L246.533 489.867Z" fill="#2E100D"/>
<path d="M352.316 768.418L279.162 681.04L200.797 570.77L207.234 566.194L285.418 676.212L358.371 763.348L352.316 768.418Z" fill="#2E100D"/>
<path d="M682.114 728.858L655.429 750.745L597.091 683.294L554.312 669.835L556.686 662.302L601.597 676.434L656.365 739.761L677.105 722.753L682.114 728.858Z" fill="#2E100D"/>
<path d="M603.478 803.119L647.121 848.422L675.506 845.485L731.3 776.474L767.349 755.211L771.353 762.01L736.54 782.55L679.58 852.999L644.114 856.68L597.785 808.591L603.478 803.119Z" fill="#2E100D"/>
<path d="M389.524 1214.98L389.402 1242.9L394.079 1242.92L394.201 1215L389.524 1214.98Z" fill="#2E100D"/>
<path d="M367.053 1207.79L366.066 1236.2L370.741 1236.36L371.728 1207.95L367.053 1207.79Z" fill="#2E100D"/>
<path d="M576.232 1215.57H571.555V1242.25H576.232V1215.57Z" fill="#2E100D"/>
<path d="M593.076 1209.69L592.828 1231.91L597.505 1231.97L597.753 1209.74L593.076 1209.69Z" fill="#2E100D"/>
<path d="M218.112 551.046L204.674 571.867L85.2206 579.32L78.9844 517.36L87.3831 482.347L189.053 453.289L213.918 411.114L248.88 420.488L233.33 467.159L249.715 482.156L243.218 506.688L236.438 504.898L241.86 484.459L225.243 469.261L239.878 425.336L217.257 419.261L193.67 459.253L93.2472 487.96L86.0755 517.843L91.5171 571.907L200.701 565.087L212.228 547.244L218.112 551.046Z" fill="#310401"/>
<path d="M150.184 485.03L143.164 547.026L150.13 547.815L157.15 485.819L150.184 485.03Z" fill="#310401"/>
<path d="M147.282 529.714L84.7266 538.406L85.6914 545.349L148.247 536.658L147.282 529.714Z" fill="#310401"/>
<path d="M152.38 498.835L82.8555 513.588L84.3107 520.446L153.835 505.693L152.38 498.835Z" fill="#310401"/>
<path d="M376.198 987.61C386.226 1003.13 401.022 1022.86 409.32 1036.5C430.362 1042.43 461.985 1052.31 464.359 1052.97C475.916 1053.13 483.742 1053.44 504.2 1053.74C513.323 1050.64 538.479 1040.87 551.978 1036.27C559.491 1025.32 572.467 1004.61 580.704 991.412C569.51 1004.55 556.755 1021.4 548.679 1030.74C535.733 1035.8 513.052 1043.1 502.732 1046.31C489.495 1046.7 477.455 1046.34 466.039 1045.83C457.6 1043.49 430.181 1035.74 413.574 1030.55C405.96 1021.35 391.416 1003.39 376.188 987.61H376.198Z" fill="#2D1310"/>
<path d="M285.956 653.35L444.044 698.985L526.211 692.678L677.891 615.088L659.514 587.759L682.025 591.43L646.841 548.863L672.6 518.417L664.694 503.53L643.803 519.151L664.282 478.595L638.874 453.52L636.108 380.496L604.334 372.057L526.724 412.934L405.52 423.606L313.255 395.242L289.467 409.434L302.834 483.232L283.824 508.127L305.882 546.248L284.045 534.943L280.696 554.858L309.513 582.78L279.207 632.267L307.723 614.907L285.956 653.35Z" fill="#C23C27"/>
<path d="M504.649 574.904C511.64 578.435 523.076 583.705 523.076 583.705L541.171 575.538L546.14 555.753C549.449 553.118 553.161 550.221 556.47 547.576C546.482 542.406 525.239 532.247 525.239 532.247L498.835 546.66C498.835 546.66 494.52 566.365 492.207 577.278L500.063 576.584L504.649 574.914V574.904Z" fill="#F5DECD"/>
<path d="M455.131 579.28C448.825 583.917 438.414 591.028 438.414 591.028L419.162 585.979L411.247 567.23C407.545 565.178 403.592 562.693 399.891 560.642C408.883 553.882 428.145 540.344 428.145 540.344L456.57 550.181C456.57 550.181 464.787 569.101 468.881 579.481L459.678 580.416L455.121 579.29L455.131 579.28Z" fill="#F5DECD"/>
<path d="M605.954 373.164L636.964 380.707L639.358 454.315L664.976 478.676L643.803 519.151L665.972 503.842L673.013 518.376L646.841 548.863L617.078 511.396L589.166 479.048L577.579 469.603L553.479 457.392L549.898 432.166L605.954 373.164Z" fill="#F5DECD"/>
<path d="M314.015 397.676L290.841 409.595L302.398 482.86L283.9 508.962L307.045 547.264L284.423 536.803L280.078 556.166L308.885 582.207L335.973 537.769L363.009 484.62L385.58 470.368L386.968 442.224L314.015 397.676Z" fill="#F5DECD"/>
<path d="M509.36 553.963C507.69 561.668 506.201 567.682 504.582 574.894C511.573 578.425 523.079 583.756 523.079 583.756L541.124 575.588C541.124 575.588 543.8 566.073 546.123 555.743C538.811 551.217 529.426 545.272 529.426 545.272L509.35 553.953L509.36 553.963Z" fill="#2E100D"/>
<path d="M455.137 579.29C448.83 583.927 438.359 591.098 438.359 591.098L419.208 586.039C419.208 586.039 414.994 577.097 410.98 567.3C417.448 561.627 425.706 554.214 425.706 554.214L447.241 559.706L455.117 579.3L455.137 579.29Z" fill="#2E100D"/>
<path d="M367.216 471.615C373.211 465.691 378.562 460.179 386.478 452.182L385.573 470.388L363.113 484.852L325.223 440.504C325.223 440.504 356.021 463.81 367.216 471.615Z" fill="#E6B48A"/>
<path d="M330.769 487.075C320.489 495.282 309.807 501.931 301.721 508.016C304.185 519.593 310.18 542.828 312.503 552.484C301.439 554.516 294.871 555.623 284.48 557.463L309.878 580.799L334.742 539.6L313.076 518.105L330.779 487.075H330.769Z" fill="#E6B48A"/>
<path d="M550.922 439.287C558.516 445.524 564.098 450.885 570.787 455.532C580.152 446.147 607.862 414.896 607.862 414.896L577.717 469.664L553.426 457.402L550.922 439.287Z" fill="#E6B48A"/>
<path d="M644.056 479.541C643.231 492.476 641.581 512.593 640.113 523.748C644.91 523.868 659.425 524.874 666.093 525.015L646.49 547.938L616.697 512.03L632.82 487.829L611.547 463.287C611.547 463.287 635.073 474.874 644.066 479.531L644.056 479.541Z" fill="#E6B48A"/>
<path d="M412.922 425.125C430.665 436.27 450.671 451.961 468.414 463.106C487.877 446.912 504.795 432.206 523.675 416.193L412.922 425.125Z" fill="#E36337"/>
<path d="M606.068 374.35C587.249 394.095 568.51 412.864 549.902 432.156L523.941 416.193L606.068 374.35Z" fill="#771213"/>
<path d="M315.008 398.44C340.717 414.705 362.202 427.71 386.975 442.918L410.774 425.507L315.008 398.44Z" fill="#771213"/>
<path d="M616.72 512.1C622.141 504.154 627.925 495.524 633.346 487.578C626.567 479.913 611.821 463.347 611.821 463.347C611.821 463.347 608.713 428.907 607.918 414.534C597.941 433.333 577.703 469.573 577.703 469.573L616.72 512.1Z" fill="#2E100D"/>
<path d="M577.586 469.603C577.586 469.603 585.542 476.242 589.163 479.048C593.086 474.421 597.019 469.784 600.941 465.157C600.459 473.204 599.976 481.241 599.493 489.288C605.206 489.056 610.909 488.825 616.623 488.593C613.424 492.426 609.984 496.198 606.785 500.03L682.072 591.621L660.256 587.477L678.512 615.862L639.928 633.927L652.259 612.09L577.586 469.593V469.603Z" fill="#E36337"/>
<path d="M335.578 541.028C329.301 534.067 319.183 525.377 312.906 518.407C317.935 509.756 330.74 487.065 330.74 487.065C330.74 487.065 326.123 455.039 324.604 439.348C337.056 454.536 349.971 468.859 363.138 484.822L335.588 541.018" fill="#2E100D"/>
<path d="M363.143 484.812C363.143 484.812 357.48 494.618 354.04 499.074C350.339 494.598 346.929 491.138 342.926 485.646C344.344 495.101 344.907 502.454 346.647 510.309C340.723 511.637 336.036 512.864 330.111 514.182C333.682 517.451 340.29 521.002 343.861 524.271L280.594 631.553L309.19 614.595L286.116 654.225L347.613 673.869L320.938 643.492L363.143 484.812Z" fill="#E36337"/>
<path d="M402.782 686.291C388.962 669.936 358.727 634.098 358.727 634.098C358.727 634.098 375.786 582.368 383.088 560.34C392.975 575.749 413.404 607.876 413.404 607.876C413.404 607.876 406.232 627.399 401.615 639.399C414.017 651.217 444.374 679.672 444.374 679.672L490.733 688.292L530.343 670.831C530.343 670.831 553.718 640.022 563.586 625.327C559.391 618.678 548.096 597.626 548.096 597.626C548.096 597.626 567.991 562.382 578.412 545.292C590.542 574.251 606.997 615.188 606.997 615.188C606.997 615.188 587.504 647.757 576.43 663.659L527.184 691.219L445.339 698.049L402.762 686.301L402.782 686.291Z" fill="#771213"/>
<path d="M622.908 640.907C625.05 630.044 627.364 614.484 629.526 600.674C621.56 592.527 617.979 589.499 611.612 583.575C619.729 585.606 623.883 586.3 632.916 588.181C613.855 572.913 597.802 561.074 578.741 545.805L606.985 614.896L576.418 663.368L622.898 640.897L622.908 640.907Z" fill="#F5DECD"/>
<path d="M576.914 662.402L623.846 639.127L627.357 614.454L604.152 640.636L589.537 642.617L576.914 662.402Z" fill="#E6B48A"/>
<path d="M548.484 597.143C537.611 596.55 520.492 594.237 520.492 594.237C520.492 594.237 508.965 583.454 500.063 576.564C487.098 577.509 459.528 580.316 459.528 580.316L440.377 601.891C440.377 601.891 420.381 606.276 413.45 607.775L401.602 639.399L444.36 679.672L490.719 688.292L530.329 670.831L563.994 625.327L548.454 597.143H548.484Z" fill="#F5DECD"/>
<path d="M442.323 563.689C444.214 568.608 445.864 572.319 447.724 576.866C443.5 579.954 436.499 584.731 436.499 584.731L423.695 581.372C423.695 581.372 420.879 575.417 418.203 568.91C422.528 565.128 428.06 560.189 428.06 560.189L442.323 563.689Z" fill="#771213"/>
<path d="M438.87 567.26C439.946 570.157 440.59 572.078 441.575 574.733C438.045 577.278 435.158 579.33 435.158 579.33L426.86 577.148C426.86 577.148 425.17 573.054 423.883 569.765C426.649 567.592 429.968 564.917 429.968 564.917L438.87 567.26Z" fill="#2E100D"/>
<path d="M511.371 571.505C515.948 573.768 523.491 577.198 523.491 577.198L535.34 571.917C535.34 571.917 537.1 565.781 538.639 559.133C533.841 556.226 527.696 552.404 527.696 552.404L514.348 558.208" fill="#771213"/>
<path d="M516.992 568.548C520.311 570.147 524.596 571.967 524.596 571.967L531.174 568.92C531.174 568.92 532.09 565.339 533.096 560.712C529.696 559.093 525.331 556.99 525.331 556.99L519.044 559.837C519.044 559.837 517.706 565.439 516.992 568.537V568.548Z" fill="#2E100D"/>
<path d="M520.279 556.548L515.119 558.871L514.043 564.263L517.996 567.592L523.619 565.45L524.574 559.515L520.279 556.548Z" fill="#F5DECD"/>
<path d="M433.761 562.502L428.359 561.305L424.004 565.118L425.231 570.418L431.065 572.018L435.37 567.773L433.761 562.502Z" fill="#F5DECD"/>
<path d="M430.409 486.562C430.037 500.694 429.564 513.357 429.363 527.65C438.919 528.726 451.12 530.306 460.393 531.613C460.202 517.431 459.77 504.868 459.367 490.595C449.249 489.318 430.419 486.562 430.419 486.562H430.409Z" fill="#F5DECD"/>
<path d="M403.727 509.636C404.813 516.868 407.408 536.24 407.408 536.24L422.516 528.374C422.516 528.374 420.856 509.676 419.82 499.155C412.93 503.269 403.737 509.636 403.737 509.636H403.727Z" fill="#F5DECD"/>
<path d="M512.468 479.923C514.852 493.562 517.829 506.467 520.313 520.267C511.07 522.913 499.291 526.493 490.37 529.32C488.207 515.298 486.547 502.846 484.586 488.704C494.725 485.858 512.468 479.923 512.468 479.923Z" fill="#F5DECD"/>
<path d="M542.614 498.249C542.735 505.562 543.398 525.095 543.398 525.095L527.194 519.845C527.194 519.845 525.736 501.136 525.012 490.575C532.485 493.492 542.614 498.249 542.614 498.249Z" fill="#F5DECD"/>
<path d="M468.809 579.561C469.402 571.666 471.464 551.931 471.464 551.931C471.464 551.931 480.557 551.106 485.244 550.845C487.507 559.716 489.821 568.708 492.275 577.379L468.809 579.561Z" fill="#E36337"/>
<path d="M501.344 590.183C496.466 583.233 492.211 577.208 492.211 577.208L468.805 579.27C468.805 579.27 465.697 585.989 462.348 592.959L482.837 598.039L501.344 590.183Z" fill="#E6B48A"/>
<path d="M482.67 597.465C488.736 595.081 494.117 592.889 501.419 590.002C502.737 592.587 503.692 594.438 504.809 596.64C496.712 603.711 483.214 613.066 483.214 613.066C483.214 613.066 468.237 605.21 460.441 599.779C461.015 597.586 461.608 595.675 462.312 592.859C470.741 594.89 482.67 597.475 482.67 597.475V597.465Z" fill="#2E100D"/>
<path d="M403.737 509.646C406.955 514.977 410.385 519.966 413.604 525.286C415.364 516.858 417.476 508.509 419.941 500.261L422.506 528.384L407.398 536.25L403.727 509.646H403.737Z" fill="#E6B48A"/>
<path d="M460.069 515.54C454.879 518.336 450.564 520.8 445.374 523.597C439.641 509.837 435.859 501.277 430.367 486.773L429.371 527.65L460.401 531.613L460.069 515.54Z" fill="#E6B48A"/>
<path d="M542.586 498.28C540.031 504.315 537.758 509.183 535.294 515.137C532.256 507.755 529.067 499.909 525.074 490.736L527.207 519.855L543.411 525.105L542.586 498.28Z" fill="#E6B48A"/>
<path d="M512.43 479.923C509.422 495.131 507.048 504.204 503.679 518.728C498.096 516.837 493.59 515.188 488.008 513.287L490.372 529.32L520.315 520.267L512.43 479.923Z" fill="#E6B48A"/>
<path d="M558.504 632.8C558.504 632.8 545.518 629.793 535.48 627.58C528.55 647.626 521.026 667.14 521.026 667.14L453.394 672.159L434.745 635.828L411.219 648.512L444.381 679.682L490.74 688.302L530.35 670.841L558.504 632.81V632.8Z" fill="#E6B48A"/>
<path d="M402.777 686.291L358.721 634.098L383.022 560.229C366.476 578.123 351.177 595.987 334.621 612.945C341.109 612.543 345.052 611.839 351.026 611.718C343.11 619.936 336.693 626.423 336.693 626.423C336.693 626.423 348.602 659.405 353.913 672.803L402.777 686.301V686.291Z" fill="#F5DECD"/>
<path d="M353.68 672.35L343.672 645.554L372.429 666.999L383.674 663.639L402.775 686.291L353.68 672.35Z" fill="#E6B48A"/>
<path fill-rule="evenodd" clip-rule="evenodd" d="M529.04 694.619C508.441 696.339 449.79 700.564 442.699 701.157L279.432 656.81C282.59 651.388 299.297 623.738 299.689 623.205C296.561 625.015 275.982 634.51 269.836 637.93C269.836 637.93 338.444 533.122 343.624 524.14C338.786 533.323 289.943 619.081 287.961 622.38C289.852 621.213 317.251 606.478 317.633 605.814C313.701 612.935 291.26 651.911 291.26 651.911L445.596 694.368C466.196 692.648 523.015 687.91 526.164 687.639C526.164 687.639 673.288 614.384 673.499 614.283C673.519 614.283 673.539 614.283 673.549 614.283C673.549 614.283 673.559 614.283 673.569 614.243C673.569 614.243 656.229 586.512 654.116 583.313C654.157 583.756 672.241 585.536 672.241 585.536C672.241 585.536 630.117 529.31 615.532 510.571C630.831 528.716 689.311 594.84 689.311 594.84C689.311 594.84 674.505 593.573 667.886 592.446C669.807 595.021 684.895 618.095 684.895 618.095C684.895 618.095 529.191 694.559 529.04 694.599V694.619Z" fill="#2E100D"/>
<path d="M646.63 546.912C654.445 537.216 662.25 527.509 670.066 517.813C668.376 514.343 666.686 510.873 665.006 507.413C656.276 513.186 647.555 518.97 638.824 524.743C646.449 509.565 654.043 494.136 661.667 478.947C653.821 471.082 638.503 453.651 638.503 453.651C638.503 453.651 637.658 383.051 636.833 382.92C627.227 380.607 604.948 375.507 604.948 375.507H604.928C577.509 389.126 552.544 403.298 525.115 416.897L410.54 425.739L314.774 398.702C314.774 398.702 293.38 410.621 293.4 410.611C296.9 435.244 305.892 483.252 305.892 483.252C305.892 483.252 291.106 503.641 287.174 509.082C296.739 525.327 306.294 541.571 315.86 557.815C306.194 551.247 286.027 539.429 286.027 539.429L285.544 555.924C285.544 555.924 311.565 580.507 311.867 580.155C310.801 581.402 309.734 582.649 308.668 583.897C298.55 575.518 277.789 556.95 277.789 556.95C277.789 556.95 280.656 537.145 282.084 530.356C288.189 533.967 292.303 536.16 298.409 539.77C291.72 527.71 286.319 519.06 279.429 507.523C283.593 502.333 297.795 482.438 297.795 482.438L285.765 406.608C285.765 406.608 308.618 392.496 314.653 388.653C322.247 390.524 412.461 417.632 412.461 417.632L520.437 410.128L605.25 365.298L644.296 376.815L646.378 449.668C646.378 449.668 668.909 477.046 669.01 476.855C663.558 487.738 657.774 498.823 652.323 509.706C657.342 506.216 663.417 502.766 668.436 499.275C671.062 506.015 676.161 519.744 676.161 519.744C676.161 519.744 658.79 542.617 650.925 552.243C649.718 551.116 647.525 548.33 646.579 547.002L646.63 546.942V546.912Z" fill="#2E100D"/>
<path d="M534.805 627.147L531.778 621.223L529.424 621.786L529.796 625.387L512.315 633.957L487.048 630.205L485.358 610.571L480.309 610.994L482.019 630.577L457.959 638.584L439.854 632.941L439.331 629.169L436.746 628.767L434.805 635.556L458.13 644.367L485.006 635.898L513.18 639.771L534.805 627.147Z" fill="#2E100D"/>
<path d="M494.868 659.079L478.02 660.366L478.312 664.187L495.16 662.9L494.868 659.079Z" fill="#2E100D"/>
<path d="M461.23 640.867L472.114 652.947L501.303 650.553L510.235 636.401L484.858 632.941L461.23 640.867Z" fill="#2E100D"/>
<path fill-rule="evenodd" clip-rule="evenodd" d="M697.075 494.206L677.21 510.501L666.84 484.56L688.325 478.887L697.075 494.206Z" fill="#E14226"/>
<path fill-rule="evenodd" clip-rule="evenodd" d="M679.028 509.052L643.662 531.1L639.086 506.025L668.798 485.113L679.028 509.052Z" fill="#BC3A28"/>
<path d="M680.004 508.378C677.107 501.69 674.2 494.991 671.304 488.302C670.891 487.356 670.489 486.421 670.076 485.475C669.644 484.48 668.185 484.248 667.32 484.751C666.294 485.355 666.164 486.501 666.596 487.507C669.493 494.196 672.4 500.895 675.297 507.584C675.709 508.529 676.111 509.465 676.524 510.41C676.956 511.406 678.415 511.637 679.28 511.134C680.306 510.531 680.437 509.384 680.004 508.378Z" fill="#99291D"/>
<path fill-rule="evenodd" clip-rule="evenodd" d="M609.954 569.463L598.025 578.737C591.266 583.997 588.802 593.09 591.98 601.036L601.626 625.146C604.975 633.515 613.686 638.433 622.588 636.965L637.736 633.917C637.736 633.917 626.249 630.216 614.4 603.048C606.655 585.295 609.954 569.463 609.954 569.463Z" fill="#FFF7E3"/>
<path fill-rule="evenodd" clip-rule="evenodd" d="M621.989 619.111C623.196 622.259 636.624 633.746 636.624 633.746L621.063 637.075C604.397 639.298 597.647 621.294 595.133 610.582C595.133 610.582 603.843 627.62 621.989 619.101V619.111Z" fill="#E8D8B3"/>
<path fill-rule="evenodd" clip-rule="evenodd" d="M777.657 423.003C742.896 467.843 669.047 518.457 648.488 530.688C627.928 542.909 611.815 548.532 610.698 570.207C609.582 591.883 620.334 641.34 658.616 641.089L666.029 640.596L678.13 653.189L685.543 654.175L694.434 667.764L723.704 666.526L728.15 703.944L714.259 705.05L738.158 750.745C744.575 760.13 747.271 759.617 758.657 758.651L770.757 754.698L788.048 739.882L779.408 655.412L779.156 639.359L780.142 615.4C780.142 615.4 849.665 623.919 884.859 639.107C905.61 653.923 930.062 685.788 974.268 667.019C1023.34 646.178 1043.64 519.765 1014.28 431.15C934.256 189.598 822.125 274.813 815.457 355.079C808.295 372.118 794.706 401.015 777.667 423.003H777.657Z" fill="#FFF7E3"/>
<path fill-rule="evenodd" clip-rule="evenodd" d="M778.206 642.004L758.069 650.966L743.012 619.584L779.634 618.306L778.206 642.004Z" fill="#E8D8B3"/>
<path fill-rule="evenodd" clip-rule="evenodd" d="M669.037 640.968L649.544 638.071C642.583 636.703 636.216 633.213 631.318 628.083L622.738 619.111C622.738 619.111 630.886 618.558 634.406 615.219C646.074 634.108 669.047 640.968 669.047 640.968H669.037Z" fill="#E8D8B3"/>
<path fill-rule="evenodd" clip-rule="evenodd" d="M757.9 650.966C732.211 652.072 702.579 651.71 676.89 652.937C674.486 649.417 669.477 640.093 669.477 640.093L743.325 619.342C743.325 619.342 754.007 641.692 757.9 650.956V650.966Z" fill="#E8D8B3"/>
<path fill-rule="evenodd" clip-rule="evenodd" d="M770.135 755.513L760.469 758.963C751.557 762.141 741.68 758.289 737.204 749.89L711.716 703.33H728.02L725.053 667.019L694.677 667.763L686.52 654.838L752.442 652.444L770.145 755.513H770.135Z" fill="#E8D8B3"/>
<path d="M925.854 621.364C952.872 615.71 962.693 553.397 947.79 482.185C932.887 410.973 898.903 357.827 871.885 363.482C844.867 369.136 835.046 431.448 849.949 502.661C864.852 573.873 898.836 627.018 925.854 621.364Z" fill="#E8D8B3"/>
<path d="M945.146 639.606C981.07 632.088 995.111 553.93 976.508 465.036C957.905 376.142 913.701 310.173 877.777 317.691C841.853 325.209 827.811 403.367 846.415 492.261C865.018 581.156 909.222 647.124 945.146 639.606Z" fill="url(#paint0_linear_198_10695)"/>
<path fill-rule="evenodd" clip-rule="evenodd" d="M925.851 482.035C929.975 501.74 924.191 517.441 917.301 520.67C908.56 524.763 884.601 536.622 863.609 545.514C857.192 530.446 845.333 487.97 844.348 470.428C863.117 464.252 894.921 450.874 902.374 449.315C909.828 447.756 921.727 462.331 925.851 482.035Z" fill="#FFF7E3"/>
<path fill-rule="evenodd" clip-rule="evenodd" d="M1017.92 450.17C994.728 339.8 927.438 261.928 873.294 275.064C814.251 289.387 795.774 384.761 818.968 495.121C842.163 605.492 906.567 683.072 961.113 671.716C1015.66 660.35 1041.12 560.541 1017.92 450.17ZM958.297 649.216C915.931 658.037 865.086 586.723 844.748 489.931C824.41 393.139 842.274 307.512 884.639 298.691C927.005 289.87 977.85 361.184 998.188 457.976C1018.53 554.767 1000.66 640.394 958.297 649.216Z" fill="#7E7E89"/>
<path fill-rule="evenodd" clip-rule="evenodd" d="M917.442 520.559C908.48 523.566 881.634 538.342 863.358 545.755C859.405 536.612 845.827 479.068 842.859 468.698C851.248 466.857 858.913 463.266 865.833 461.778C849.78 479.802 862.866 487.96 893.745 478.082C896.712 505.25 908.812 523.033 917.452 520.559H917.442Z" fill="#E8D8B3"/>
<path fill-rule="evenodd" clip-rule="evenodd" d="M720.723 589.66C720.723 589.66 811.671 556.689 820.19 501.488C836.303 582.81 891.695 645.041 891.695 645.041C891.695 645.041 802.407 607.252 759.991 615.772C744.983 612.804 726.094 599.839 720.723 589.65V589.66Z" fill="#E8D8B3"/>
<path fill-rule="evenodd" clip-rule="evenodd" d="M841.863 481.291C845.193 578.354 899.287 676.896 966.346 661.336C1028.36 646.952 1033.77 536.491 1017.1 445.725C1017.1 445.725 1016.36 635.033 962.272 649.115C916.567 661.014 874.473 599.105 841.873 481.291H841.863Z" fill="#9A9AA8"/>
<path fill-rule="evenodd" clip-rule="evenodd" d="M812.238 382.005C812.59 332.729 843.731 280.123 876.632 276.794C933.21 271.061 980.656 346.81 990.563 389.418C990.563 389.418 937.847 266.052 876.632 288.281C850.189 297.886 829.217 327.921 812.238 382.015V382.005Z" fill="#9A9AA8"/>
<path fill-rule="evenodd" clip-rule="evenodd" d="M788.404 637.095L756.207 662.231L771.365 690.073L805.765 665.561L788.404 637.095Z" fill="#771213"/>
<path fill-rule="evenodd" clip-rule="evenodd" d="M794.992 691.159L754.547 706.307L770.972 758.862L802.908 740.858L794.992 691.159Z" fill="#771213"/>
<path d="M923.804 482.407C925.092 489.167 925.605 496.137 924.86 502.997C924.378 507.443 923.291 512.824 920.364 516.254C919.228 517.592 918.162 518.306 916.683 518.678C916.653 518.678 916.009 518.789 916.432 518.738C916.24 518.758 916.039 518.769 915.838 518.779C915.637 518.789 915.446 518.779 915.245 518.779C915.214 518.779 914.571 518.708 914.983 518.769C914.058 518.628 913.324 518.366 912.66 518.024C908.727 516.043 905.951 512.05 903.798 508.308C900.549 502.645 898.417 496.369 896.979 490.012C895.43 483.162 894.705 476.071 895.178 469.04C895.51 464.091 896.395 458.68 899.171 454.465C900.077 453.097 901.183 451.951 902.682 451.327C903.034 451.176 903.909 450.995 904.392 450.985C905.287 450.965 905.488 450.995 906.444 451.297C908.214 451.85 910.075 453.288 911.533 454.777C913.474 456.759 915.043 459.072 916.421 461.476C920.123 467.923 922.366 475.145 923.794 482.418C924.287 484.952 928.17 483.886 927.677 481.351C926.269 474.15 924.005 467.018 920.505 460.541C918.021 455.944 914.681 451.096 910.004 448.501C906.092 446.338 901.656 446.529 898.216 449.476C894.303 452.826 892.643 458.499 891.819 463.377C890.581 470.689 890.893 478.173 892.03 485.475C893.197 492.949 895.329 500.321 898.638 507.141C901.072 512.16 904.301 517.209 908.928 520.478C912.388 522.923 916.955 523.757 920.676 521.343C924.871 518.628 926.882 513.438 927.958 508.77C929.548 501.85 929.517 494.568 928.663 487.547C928.411 485.465 928.089 483.403 927.697 481.351C927.214 478.807 923.332 479.883 923.814 482.418L923.804 482.407Z" fill="#AA9774"/>
<path d="M845.362 471.504C851.839 469.221 858.327 466.948 864.805 464.665C875.135 461.034 885.465 457.392 895.794 453.761C898.168 452.927 900.542 452.092 902.916 451.257C905.29 450.422 904.294 446.519 901.85 447.374C895.372 449.658 888.884 451.931 882.407 454.214C872.077 457.845 861.747 461.486 851.417 465.117C849.043 465.952 846.669 466.787 844.296 467.622C841.922 468.457 842.918 472.359 845.362 471.504Z" fill="#AA9774"/>
<path d="M866.355 547.737C872.229 544.87 878.093 542.003 883.967 539.137C893.321 534.57 902.676 530.004 912.03 525.437C914.172 524.391 916.325 523.345 918.467 522.299C920.791 521.162 918.759 517.692 916.436 518.829C910.562 521.696 904.698 524.562 898.823 527.429C889.469 531.995 880.115 536.562 870.761 541.128C868.618 542.174 866.466 543.22 864.323 544.267C862 545.403 864.032 548.873 866.355 547.737Z" fill="#AA9774"/>
<path d="M758.544 649.065C754.42 639.851 750.296 630.638 746.172 621.424C745.599 620.137 745.025 618.859 744.452 617.572C744.009 616.576 742.561 616.345 741.696 616.848C740.67 617.441 740.529 618.608 740.972 619.604C745.096 628.817 749.22 638.031 753.344 647.244C753.917 648.532 754.49 649.809 755.064 651.096C755.506 652.092 756.955 652.324 757.82 651.821C758.845 651.227 758.986 650.061 758.544 649.065Z" fill="#AA9774"/>
<path fill-rule="evenodd" clip-rule="evenodd" d="M715.415 487.96L631.689 539.831C617.235 546.6 616.621 580.587 624.276 596.138L628.973 607.001C639.836 627.248 656.06 640.415 675.161 638.614L760.868 615.399C760.868 615.399 722.818 613.508 707.77 566.988C691.466 516.606 715.425 487.95 715.425 487.95L715.415 487.96Z" fill="#9A9AA8"/>
<path fill-rule="evenodd" clip-rule="evenodd" d="M653.863 613.368C635.527 617.632 632.188 610.964 632.188 610.964C643.051 631.211 658.289 639.932 677.39 637.88L757.907 615.902C752.174 612.905 725.68 600.956 719.997 589.841C692.216 600.211 653.863 613.368 653.863 613.368Z" fill="#7E7E89"/>
<path d="M683.535 582.901L680.96 582.036L674.824 592.275L678.194 592.446L683.253 590.243L685.878 585.375L683.535 582.901Z" fill="#E14226"/>
<path d="M680.97 582.036L683.544 582.901L685.888 585.375L683.273 590.243L678.213 592.446L674.844 592.285L680.98 582.036M680.225 579.582L679.541 580.738L673.396 590.978L671.414 594.216L674.854 594.398L678.224 594.568L678.566 594.589L678.877 594.458L683.947 592.265L684.47 592.034L684.772 591.481L687.387 586.612L688.222 585.043L687.015 583.766L684.671 581.291L684.359 580.96L683.957 580.829L681.392 579.974L680.225 579.592V579.582Z" fill="#FFF7E3"/>
<path d="M669.802 573.557C671.089 572.028 672.075 570.217 672.739 568.186C673.825 565.198 673.735 561.728 672.447 557.815C670.958 553.289 668.605 550.382 665.346 549.065C662.077 547.787 658.516 547.988 655.358 549.608L639.707 556.9L653.638 599.004L661.363 595.896L656.273 580.447L659.2 579.189L660.97 578.365C662.268 580.014 665.155 583.635 666.764 585.536L672.377 576.484C671.471 575.548 670.626 574.573 669.812 573.547L669.802 573.557ZM660.015 569.362L653.557 572.229L650.097 561.748L657.128 558.519C660.649 556.88 662.962 557.765 664.099 561.165C665.306 564.846 663.948 567.592 660.015 569.362Z" fill="#E14226"/>
<path d="M660.678 548.24C662.257 548.199 663.836 548.471 665.355 549.064C668.614 550.382 670.978 553.299 672.456 557.815C673.744 561.728 673.824 565.208 672.748 568.185C672.084 570.217 671.098 572.028 669.811 573.556C670.626 574.582 671.481 575.558 672.376 576.494L666.763 585.546C665.154 583.645 662.267 580.024 660.97 578.374L659.199 579.199L656.272 580.457L661.362 595.906L653.637 599.014L639.706 556.91L655.357 549.618C657.047 548.752 658.857 548.29 660.678 548.24ZM653.567 572.229L660.024 569.362C663.957 567.592 665.315 564.846 664.108 561.165C663.333 558.851 662.016 557.704 660.145 557.725C659.27 557.725 658.264 557.996 657.137 558.529L650.107 561.758L653.567 572.239M660.658 546.167C658.586 546.228 656.574 546.751 654.683 547.727L639.083 555.039L637.453 555.783L638.077 557.654L651.987 599.678L652.631 601.629L654.281 600.976L662.016 597.888L663.665 597.214L663.011 595.232L658.556 581.704L659.843 581.151L660.537 580.829C662.066 582.75 664.249 585.476 665.536 587.005L666.995 588.735L668.181 586.844L673.794 577.781L674.75 576.212L673.492 574.904C673.07 574.462 672.647 573.999 672.215 573.516C673.1 572.168 673.814 570.67 674.347 569.04C675.615 565.52 675.514 561.476 674.056 557.051C672.376 551.941 669.63 548.592 665.888 547.083C664.178 546.419 662.418 546.117 660.638 546.167H660.658ZM652.37 562.935L657.771 560.46C658.696 560.038 659.491 559.817 660.155 559.807C660.99 559.807 661.845 560.048 662.478 561.939C663.082 563.77 663.132 565.721 659.38 567.421L654.562 569.573L652.37 562.925V562.935Z" fill="#FFF7E3"/>
<path d="M674.457 578.465L668.684 587.739L672.214 590.958L678.35 581.05L674.457 578.465Z" fill="#E14226"/>
<path d="M674.467 578.465L678.359 581.05L672.224 590.958L668.693 587.739L674.457 578.465M673.924 575.719L673.038 577.168L667.265 586.431L666.219 588.081L667.657 589.389L671.188 592.617L672.616 593.935L673.652 592.285L679.787 582.368L680.984 580.406L679.164 579.189L675.271 576.614L673.924 575.729V575.719Z" fill="#FFF7E3"/>
<path d="M763.765 617.31C756.674 616.657 749.733 614.534 743.437 611.275C737.12 608.017 731.437 603.641 726.478 598.602C716.571 588.473 709.53 575.83 705.225 562.442C700.95 549.034 699.371 534.681 701.272 520.67C702.228 513.669 704.099 506.779 706.975 500.301C709.842 493.824 713.745 487.789 718.552 482.558L720.272 484.138C715.646 489.167 711.884 494.991 709.108 501.247C706.332 507.503 704.521 514.192 703.586 520.991C701.735 534.61 703.274 548.632 707.448 561.738C711.652 574.824 718.532 587.165 728.138 596.972C732.936 601.861 738.428 606.075 744.493 609.213C750.548 612.352 757.187 614.373 763.976 615.007L763.765 617.331V617.31Z" fill="#656572"/>
<path d="M672.299 640.646C666.817 640.274 661.426 638.785 656.507 636.391C651.579 634.007 647.103 630.769 643.15 627.047C635.234 619.554 629.339 610.219 625.085 600.302C620.87 590.384 618.195 579.652 618.376 568.739C618.476 563.297 619.352 557.835 621.212 552.675C623.063 547.515 625.93 542.697 629.661 538.664L631.381 540.243C627.861 544.055 625.165 548.582 623.415 553.47C621.655 558.358 620.82 563.558 620.719 568.789C620.538 579.26 623.133 589.71 627.247 599.386C631.391 609.053 637.145 618.135 644.769 625.347C648.581 628.938 652.856 632.026 657.543 634.289C662.22 636.562 667.31 637.97 672.48 638.322L672.319 640.656L672.299 640.646Z" fill="#656572"/>
<path d="M783.107 618.518L782.02 643.784L759.248 654.225L676.528 657.172L663.754 640.787L669.276 636.472L679.847 650.041L757.599 647.264L775.201 639.198L776.106 618.216L783.107 618.518Z" fill="#310401"/>
<path d="M606.401 600.754C605.583 598.73 603.28 597.751 601.255 598.569C599.231 599.386 598.253 601.69 599.07 603.714L603.514 614.72C604.332 616.744 606.635 617.722 608.66 616.905C610.684 616.087 611.662 613.784 610.845 611.759L606.401 600.754Z" fill="#AA9774"/>
<path d="M730.834 640.163C732.656 640.163 734.133 638.686 734.133 636.864C734.133 635.042 732.656 633.565 730.834 633.565C729.012 633.565 727.535 635.042 727.535 636.864C727.535 638.686 729.012 640.163 730.834 640.163Z" fill="#AA9774"/>
<path d="M689.846 645.454C691.668 645.454 693.145 643.977 693.145 642.155C693.145 640.333 691.668 638.855 689.846 638.855C688.024 638.855 686.547 640.333 686.547 642.155C686.547 643.977 688.024 645.454 689.846 645.454Z" fill="#AA9774"/>
<path d="M694.549 705.08L723.658 702.706L721.716 673.698L681.915 674.834L674.874 705.412L702.475 766.185L717.623 770.57L715.671 777.299L697.425 772.019L667.512 706.146L676.303 667.985L728.264 666.506L731.121 709.123L695.122 712.071L694.549 705.08Z" fill="#310401"/>
<path d="M791.397 635.265L810.458 666.516L770.174 695.213L751.707 661.296L786.248 634.329L790.563 639.851L760.699 663.167L772.548 684.923L801.074 664.595L785.413 638.916L791.397 635.265Z" fill="#310401"/>
<path d="M798.437 690.606L806.735 742.708L768.906 764.042L750.207 704.195L793.75 687.88L796.214 694.438L758.867 708.429L773.009 753.682L799.04 738.997L791.517 691.712L798.437 690.606Z" fill="#310401"/>
<path d="M798.99 713.515L763.547 731.333L765.648 735.512L801.091 717.694L798.99 713.515Z" fill="#2E100D"/>
<path d="M786.602 681.125L779.695 682.328L782.137 696.349L789.044 695.146L786.602 681.125Z" fill="#310401"/>
<path d="M688.22 652.778L682.336 656.589L693.589 673.964L699.473 670.153L688.22 652.778Z" fill="#310401"/>
<path d="M772.481 758.51L761.779 761.739L760.441 762.141C760.2 762.212 760.039 762.272 759.727 762.342L758.862 762.534C758.279 762.674 757.705 762.755 757.152 762.805C756.589 762.886 756.026 762.926 755.472 762.926C753.249 762.986 751.077 762.715 748.995 762.202C744.851 761.105 740.958 759.124 737.75 756.076C736.965 755.301 736.201 754.487 735.527 753.571C735.175 753.139 734.863 752.646 734.551 752.153L734.088 751.409L733.756 750.785L731.151 745.857L710.32 706.448L716.516 703.169L737.317 742.527L739.912 747.446L740.234 748.049L740.516 748.482C740.697 748.774 740.868 749.075 741.109 749.357C741.532 749.94 742.054 750.484 742.578 751.017C744.75 753.109 747.677 754.618 750.695 755.412C752.213 755.784 753.762 755.975 755.241 755.925C756.8 755.875 757.846 755.633 759.818 755L770.439 751.791L772.461 758.5L772.481 758.51Z" fill="#310401"/>
<path d="M638.078 636.431L624.892 639.087L623.242 639.419C622.719 639.539 622.005 639.59 621.392 639.67C620.124 639.791 618.877 639.801 617.63 639.7C615.125 639.499 612.661 638.866 610.388 637.819C605.821 635.737 602.029 632.006 599.897 627.459C599.344 626.272 598.961 625.277 598.549 624.231L597.302 621.113L594.807 614.886L589.828 602.434C588.913 600.191 588.289 597.666 588.189 595.172C588.068 592.667 588.39 590.143 589.134 587.749C589.879 585.355 591.035 583.092 592.544 581.09C592.906 580.577 593.339 580.125 593.741 579.642C594.163 579.179 594.616 578.747 595.059 578.304L596.487 577.087L597.815 576.061L608.406 567.823L611.273 571.515L600.681 579.752L599.354 580.778L598.227 581.734C597.885 582.086 597.523 582.418 597.191 582.78C596.879 583.162 596.537 583.514 596.256 583.917C595.069 585.486 594.163 587.256 593.59 589.137C592.413 592.909 592.604 597.003 594.163 600.704L599.142 613.156L601.637 619.382L602.884 622.501C603.296 623.537 603.719 624.623 604.121 625.458C605.791 629.008 608.748 631.935 612.329 633.565C614.119 634.38 616.051 634.882 618.002 635.033C618.978 635.104 619.973 635.104 620.929 635.013C621.422 634.933 621.834 634.943 622.397 634.812L624.037 634.48L637.153 631.835L638.078 636.411V636.431Z" fill="#2E100D"/>
<path d="M810.821 354.153C794.174 398.893 764.924 437.879 729.579 469.623C714.009 483.615 697.091 495.634 679.509 506.96C670.516 512.744 661.414 518.356 652.14 523.667C644.646 527.962 636.781 531.663 629.589 536.461C617.006 544.85 607.521 556.437 606.082 571.927C605.117 582.247 607.772 592.778 611.484 602.334C615.195 611.889 619.52 620.328 625.968 627.781C636.811 640.324 652.391 645.202 668.625 643.412C678.704 642.306 688.189 639.177 697.795 636.069C710.76 631.865 723.796 627.832 737.043 624.623C749.374 621.646 761.635 619.684 774.339 619.745C787.043 619.805 800.32 621.052 813.134 623.134C839.366 627.399 865.408 634.852 889.387 646.409C893.45 648.371 897.021 642.296 892.937 640.334C872.398 630.427 850.501 623.436 828.192 618.789C806.989 614.373 784.508 611.326 762.822 613.036C738.742 614.947 715.105 622.983 692.303 630.447C676.119 635.737 657.249 640.907 641.428 631.694C625.153 622.219 615.437 599.859 613.284 581.915C611.283 565.178 619.098 552.012 632.697 542.828C639.617 538.151 647.211 534.56 654.463 530.436C663.717 525.176 672.8 519.603 681.752 513.87C698.418 503.188 714.653 491.923 729.619 478.948C768.133 445.584 799.767 403.982 817.62 356.004C819.199 351.749 812.4 349.919 810.831 354.133L810.821 354.153Z" fill="#2E100D"/>
<path d="M674.345 646.339C674.264 648.371 674.154 650.443 673.52 652.485C672.926 654.516 671.991 656.518 670.583 658.248C669.195 659.978 667.344 661.376 665.282 662.251C663.22 663.126 660.957 663.478 658.754 663.307C658.201 663.237 657.648 663.207 657.105 663.086L656.29 662.895C656.018 662.835 655.757 662.774 655.415 662.644C654.147 662.181 653.252 661.567 652.387 660.934C650.697 659.646 649.289 658.198 648.012 656.629C646.755 655.049 645.608 653.36 644.743 651.358C644.32 650.342 643.948 649.256 643.848 647.908C643.828 647.214 643.838 646.48 644.109 645.665C644.371 644.87 644.874 644.046 645.548 643.482C645.869 643.201 646.242 642.959 646.563 642.788C646.875 642.637 647.197 642.487 647.519 642.366C647.881 642.265 648.243 642.165 648.615 642.094C649.008 642.064 649.4 642.024 649.802 642.044C651.432 642.145 652.81 642.979 653.725 643.844C654.671 644.73 655.314 645.705 655.827 646.671C656.34 647.647 656.753 648.632 657.064 649.628C658.302 653.601 658.573 657.685 657.839 661.799C657.437 663.841 656.743 665.933 655.425 667.834C654.791 668.789 653.926 669.654 652.971 670.368C652.458 670.69 651.995 671.052 651.432 671.304C650.858 671.525 650.315 671.837 649.692 671.948C647.237 672.601 644.673 672.098 642.671 671.123C640.649 670.127 639 668.749 637.581 667.2C636.183 665.631 634.946 663.901 634.161 661.738C633.457 659.676 633.075 657.695 633.095 655.422C633.115 654.848 633.166 654.255 633.296 653.621L633.447 653.028C633.508 652.796 633.608 652.595 633.709 652.394L633.991 651.77C634.101 651.579 634.242 651.398 634.373 651.217C634.624 650.835 635.006 650.604 635.328 650.302C635.71 650.091 636.083 649.829 636.525 649.769L637.159 649.608L637.813 649.658C638.034 649.688 638.255 649.658 638.466 649.729L639.1 649.93C639.311 650.01 639.533 650.04 639.734 650.161C639.935 650.272 640.136 650.392 640.327 650.523C640.518 650.654 640.709 650.785 640.891 650.926L641.253 651.268C641.756 651.72 642.087 652.193 642.45 652.666C643.083 653.611 643.606 654.577 644.009 655.552C644.833 657.504 645.316 659.515 645.538 661.618C645.648 662.664 645.658 663.75 645.538 664.877C645.417 666.053 645.125 667.049 644.813 668.065C644.139 670.047 643.244 671.897 642.047 673.627C640.85 675.347 639.372 677.007 637.239 678.164C636.183 678.717 634.946 679.169 633.628 679.21C632.331 679.3 631.245 679.109 630.148 678.838C627.996 678.254 625.974 677.309 624.224 675.538C622.464 673.657 621.719 671.435 621.327 669.342C620.945 667.23 620.935 665.138 621.216 663.056C621.367 662.01 621.578 660.974 621.941 659.918C622.313 658.862 622.755 657.795 623.64 656.709C624.033 656.216 624.847 655.472 625.682 655.16C626.527 654.808 627.473 654.707 628.358 654.929C629.253 655.12 630.068 655.613 630.691 656.307C631.365 657.041 631.627 657.624 631.888 658.218C632.371 659.405 632.572 660.501 632.683 661.587C632.784 662.674 632.794 663.73 632.663 664.887C632.381 667.16 631.516 669.181 630.53 670.962C629.525 672.732 628.428 674.331 627.111 675.911C625.793 677.47 624.234 678.918 622.373 680.065C621.438 680.628 620.432 681.101 619.366 681.443C618.32 681.795 617.203 682.026 616.026 682.086C613.723 682.207 611.279 681.624 609.287 680.185C608.794 679.843 608.311 679.411 607.919 678.998C607.557 678.596 607.175 678.224 606.843 677.771C606.149 676.916 605.545 675.911 605.093 674.824C604.147 672.621 604.147 670.036 604.701 667.914C605.264 665.752 606.169 663.941 607.215 662.181C608.382 660.31 609.82 658.721 611.772 657.433C612.757 656.82 613.914 656.226 615.483 656.116C616.248 656.055 617.153 656.206 617.957 656.568C618.762 656.971 619.416 657.514 619.889 658.168C620.402 658.801 620.703 659.606 620.874 660.36C620.955 660.743 620.975 661.115 620.995 661.477C620.985 661.819 620.995 662.191 620.935 662.513C620.754 663.83 620.301 664.927 619.788 665.923C619.255 666.918 618.651 667.814 617.907 668.658C617.113 669.564 616.308 670.218 615.483 670.851C613.813 672.109 611.973 673.094 610.052 673.839C609.086 674.211 608.1 674.523 607.104 674.754C606.602 674.875 606.099 674.975 605.586 675.066C605.043 675.156 604.439 675.227 603.876 675.237C601.582 675.287 599.299 674.744 597.267 673.507C596.262 672.883 595.316 672.068 594.572 671.062C593.827 670.067 593.264 668.85 593.013 667.653C592.751 666.456 592.721 665.289 592.812 664.182C592.892 663.106 593.133 661.939 593.465 660.934C594.139 658.882 595.125 657.061 596.272 655.371C597.428 653.692 598.756 652.133 600.345 650.755C601.14 650.071 601.995 649.427 602.991 648.864C603.986 648.32 605.093 647.818 606.481 647.647C607.175 647.566 607.949 647.596 608.724 647.787C609.448 647.948 610.454 648.512 610.927 649.035C611.057 649.165 611.188 649.266 611.319 649.417L611.691 649.91C611.812 650.081 611.932 650.242 612.033 650.423C612.124 650.624 612.214 650.835 612.295 651.046C612.637 651.881 612.647 652.867 612.496 653.661C612.144 655.281 611.349 656.287 610.625 657.152C609.87 658.007 609.066 658.711 608.251 659.354C607.426 659.978 606.591 660.551 605.726 661.074L605.073 661.457C604.841 661.587 604.54 661.728 604.278 661.859C603.735 662.121 603.222 662.281 602.699 662.462C600.647 663.076 598.665 663.368 596.644 663.488C594.622 663.589 592.59 663.539 590.438 663.036C589.372 662.794 588.225 662.402 587.058 661.587C586.766 661.346 586.475 661.165 586.203 660.843C585.942 660.521 585.66 660.169 585.449 659.847C585.127 659.264 584.865 658.63 584.704 657.956C584.373 656.609 584.493 655.21 584.825 654.024C585.167 652.827 585.7 651.811 586.284 650.885C586.867 649.96 587.521 649.145 588.205 648.381C588.537 647.988 588.899 647.636 589.251 647.274L590.257 646.289C591.373 645.192 592.278 643.875 592.912 642.446C593.546 641.018 593.888 639.489 593.908 637.97C593.928 637.206 593.827 636.452 593.687 635.707L593.375 634.42C593.304 634.168 593.254 633.887 593.204 633.595C593.143 633.323 593.103 633.032 593.083 632.71C592.952 631.523 593.103 629.944 593.868 628.636C594.622 627.349 595.648 626.534 596.573 625.91C598.454 624.713 600.255 623.989 602.045 623.285L603.725 627.64C602.055 628.284 600.416 628.988 599.158 629.793C598.545 630.195 598.112 630.618 597.921 630.95C597.75 631.261 597.68 631.624 597.74 632.267C597.74 632.418 597.77 632.579 597.81 632.76C597.841 632.931 597.871 633.112 597.921 633.303L598.263 634.722C598.474 635.798 598.605 636.894 598.585 637.99C598.555 640.183 598.062 642.346 597.187 644.317C596.312 646.289 595.075 648.079 593.546 649.588L592.56 650.553C592.268 650.865 591.967 651.157 591.695 651.479C591.132 652.102 590.629 652.736 590.227 653.39C589.382 654.687 589.009 655.975 589.251 656.85C589.301 657.081 589.402 657.303 589.522 657.534C589.573 657.594 589.603 657.584 589.613 657.645C589.623 657.695 589.754 657.745 589.814 657.805C590.166 658.047 590.79 658.339 591.534 658.489C592.993 658.842 594.713 658.912 596.402 658.821C598.082 658.721 599.802 658.459 601.311 658.007C601.673 657.886 602.045 657.765 602.337 657.624C602.488 657.544 602.618 657.494 602.789 657.403L603.333 657.081C604.057 656.639 604.751 656.166 605.405 655.673C606.058 655.17 606.642 654.637 607.114 654.104C607.587 653.581 607.909 653.008 607.929 652.786C607.929 652.686 607.949 652.686 607.929 652.676C607.929 652.676 607.929 652.666 607.929 652.656C607.929 652.646 607.889 652.625 607.869 652.605C607.849 652.585 607.839 652.565 607.829 652.535C607.809 652.505 607.748 652.475 607.718 652.434C607.547 652.283 607.718 652.394 607.547 652.324C607.416 652.304 607.255 652.273 607.024 652.304C606.058 652.404 604.61 653.249 603.423 654.295C600.999 656.427 598.927 659.395 597.931 662.362C597.458 663.78 597.328 665.4 597.589 666.637C597.861 667.834 598.575 668.799 599.732 669.523C600.868 670.228 602.337 670.6 603.755 670.56C604.117 670.56 604.439 670.509 604.811 670.459C605.213 670.389 605.616 670.308 606.018 670.207C606.823 670.016 607.607 669.765 608.382 669.473C609.921 668.88 611.389 668.085 612.687 667.109C613.331 666.617 613.974 666.084 614.397 665.581C614.88 665.027 615.322 664.374 615.664 663.73C616.006 663.086 616.248 662.422 616.308 661.899C616.388 661.346 616.278 661.125 616.157 660.964C615.956 660.763 616.046 660.773 615.745 660.773C615.443 660.773 614.849 660.994 614.286 661.366C613.129 662.11 611.983 663.328 611.208 664.605C610.353 666.033 609.609 667.592 609.237 669.031C608.875 670.489 608.895 671.817 609.418 673.054C609.679 673.678 610.021 674.291 610.504 674.875C610.715 675.176 611.007 675.448 611.259 675.74C611.51 676.001 611.721 676.192 611.993 676.383C613.019 677.128 614.397 677.49 615.785 677.419C616.469 677.389 617.183 677.238 617.897 677.007C618.601 676.776 619.285 676.454 619.939 676.061C622.554 674.472 624.737 671.636 626.437 668.679C627.251 667.22 627.835 665.742 628.016 664.313C628.177 662.915 628.016 661.105 627.563 660.018C627.251 659.354 627.342 659.626 627.332 659.566C627.302 659.596 627.402 659.485 627.211 659.707C626.909 660.059 626.588 660.712 626.356 661.406C626.115 662.11 625.944 662.895 625.833 663.69C625.612 665.279 625.632 666.949 625.914 668.498C626.185 670.036 626.769 671.455 627.583 672.3C628.438 673.195 629.877 673.939 631.305 674.301C632.009 674.482 632.783 674.593 633.337 674.533C633.89 674.533 634.443 674.321 635.026 674.03C636.183 673.416 637.29 672.279 638.205 670.952C639.13 669.634 639.855 668.105 640.378 666.576C640.619 665.812 640.83 665.017 640.901 664.343C640.971 663.619 640.981 662.845 640.901 662.04C640.74 660.451 640.347 658.811 639.714 657.343C639.412 656.598 639.03 655.935 638.637 655.331C638.426 655.08 638.225 654.778 638.024 654.617L637.893 654.476C637.893 654.476 637.893 654.476 637.873 654.557C637.813 654.828 637.783 655.16 637.772 655.512C637.742 656.961 638.064 658.681 638.567 660.119C639.04 661.467 639.975 662.835 641.051 664.022C642.128 665.208 643.395 666.234 644.713 666.878C646.04 667.512 647.348 667.703 648.505 667.401C648.806 667.381 649.078 667.17 649.37 667.079C649.661 666.959 649.923 666.727 650.205 666.566C650.718 666.164 651.21 665.721 651.593 665.118C652.407 663.961 652.951 662.452 653.252 660.873C653.846 657.685 653.614 654.134 652.629 651.026C652.146 649.507 651.392 647.999 650.537 647.214C650.114 646.822 649.772 646.681 649.531 646.661C649.46 646.661 649.39 646.681 649.319 646.661C649.239 646.691 649.159 646.721 649.068 646.721C648.967 646.771 648.867 646.822 648.756 646.862C648.676 646.912 648.656 646.922 648.625 646.952C648.575 646.983 648.595 646.993 648.555 647.063C648.515 647.123 648.515 647.335 648.515 647.566C648.555 648.079 648.746 648.783 649.048 649.477C649.651 650.885 650.597 652.324 651.653 653.641C652.709 654.949 653.926 656.186 655.194 657.142C655.817 657.604 656.491 658.027 656.974 658.188C657.064 658.228 657.256 658.268 657.447 658.308L657.99 658.439C658.352 658.52 658.734 658.53 659.096 658.59C662.094 658.841 665.111 657.594 666.962 655.241C667.907 654.074 668.581 652.666 669.024 651.137C669.517 649.618 669.597 647.938 669.668 646.279H674.345V646.339Z" fill="#2E100D"/>
<path d="M993.125 459.273C1000.14 493.13 1003.51 528.093 1000.53 562.623C998.507 586.079 993.87 612.865 978.963 631.935C968.03 645.917 951.614 650.664 935.38 642.869C914.831 633.002 900.186 612.352 888.991 593.251C872.425 564.977 861.24 533.625 853.545 501.871C845.227 467.561 840.821 431.995 842.411 396.67C843.537 371.504 847.229 343.884 860.616 321.966C869.719 307.06 884.686 297.203 902.409 302.715C923.049 309.142 938.468 329.068 949.663 346.459C966.732 372.972 978.42 402.856 986.809 433.152C989.192 441.782 991.285 450.492 993.135 459.263C994.071 463.689 1000.86 461.818 999.925 457.392C992.592 422.731 981.367 388.432 964.278 357.281C952.49 335.787 936.969 312.874 915.042 300.612C898.637 291.439 879.798 291.811 865.525 304.756C847.701 320.93 841.083 347.796 837.804 370.649C832.795 405.521 834.977 441.259 840.972 475.87C847.198 511.828 857.79 547.405 873.984 580.185C885.571 603.641 900.629 627.822 922.294 643.251C937.261 653.903 956.744 658.319 972.838 647.365C991.778 634.47 999.804 609.485 1004.04 588.121C1010.66 554.757 1009.56 520.016 1004.95 486.471C1003.62 476.725 1001.92 467.038 999.915 457.402C998.999 452.967 992.21 454.848 993.125 459.273Z" fill="#656572"/>
<path d="M695.118 495.946L687.182 482.307L668.081 486.974L639.153 507.926L643.941 528.052L695.822 492.838L698.448 496.7L640.964 535.727L633.883 505.964L666.08 482.649L689.465 476.946L699.162 493.592L695.118 495.946Z" fill="#2E100D"/>
<path d="M816.934 478.083C815.466 467.682 814.379 458.107 813.635 448.823C813.434 446.499 813.323 444.196 813.162 441.903C813.001 439.609 812.85 437.326 812.78 435.043C812.679 432.759 812.589 430.476 812.488 428.193C812.438 425.91 812.398 423.616 812.347 421.303C812.247 412.069 812.378 402.594 813.041 392.375C813.725 382.166 814.922 371.182 817.346 359.122C818.624 352.594 820.847 342.797 825.303 331.321C827.475 325.567 830.312 319.442 833.943 313.266C837.574 307.1 842.05 300.894 847.602 295.302C848.93 293.833 850.489 292.606 851.967 291.248C852.692 290.554 853.526 289.981 854.321 289.357C855.126 288.744 855.93 288.13 856.735 287.506C860.115 285.263 863.635 283.051 867.498 281.451C871.29 279.691 875.393 278.524 879.558 277.619C881.65 277.327 883.722 276.855 885.864 276.845C886.93 276.804 887.997 276.674 889.073 276.714C890.149 276.764 891.225 276.804 892.302 276.855C893.378 276.855 894.454 277.046 895.53 277.187C896.606 277.347 897.693 277.448 898.759 277.659L901.968 278.394C902.501 278.524 903.044 278.615 903.567 278.786L905.146 279.299L908.314 280.315L911.412 281.582C913.505 282.357 915.476 283.483 917.508 284.449C918.534 284.911 919.479 285.555 920.465 286.108L923.392 287.828C925.263 289.116 927.194 290.313 929.025 291.671C932.686 294.376 936.226 297.253 939.576 300.331C946.295 306.466 952.36 313.216 957.852 320.136C963.344 327.076 968.192 334.258 972.598 341.319C977.033 348.36 980.795 355.431 984.265 362.13C987.625 368.879 990.652 375.296 993.167 381.311C993.801 382.81 994.424 384.278 995.038 385.706C995.631 387.145 996.164 388.563 996.718 389.941C997.794 392.697 998.84 395.282 999.705 397.766C1000.59 400.231 1001.45 402.534 1002.19 404.666C1002.9 406.809 1003.56 408.78 1004.15 410.551C1005.37 414.081 1006.14 416.907 1006.74 418.798C1007.32 420.699 1007.62 421.705 1007.62 421.705C1007.62 421.705 1007.94 422.711 1008.46 424.622C1008.98 426.533 1009.75 429.36 1010.75 432.961C1012.58 440.203 1015.15 450.643 1017.48 463.498C1019.81 476.342 1021.87 491.601 1022.92 508.298C1023.24 512.472 1023.32 516.737 1023.51 521.062C1023.54 523.225 1023.57 525.417 1023.59 527.61C1023.6 528.706 1023.61 529.813 1023.62 530.919C1023.6 532.026 1023.58 533.132 1023.57 534.248C1023.5 543.16 1022.97 552.293 1022.01 561.466C1020.15 579.803 1016.34 598.401 1009.85 615.359C1006.6 623.818 1002.67 631.855 997.975 639.027C993.278 646.178 987.836 652.525 981.67 657.283C975.545 662.08 968.826 665.349 962.167 666.979C955.518 668.739 948.98 668.669 943.167 667.864C937.333 667.029 932.173 665.329 927.828 663.468C926.721 663.046 925.715 662.503 924.72 662.05C924.227 661.819 923.734 661.588 923.261 661.366C922.799 661.115 922.346 660.873 921.903 660.632C921.018 660.149 920.173 659.697 919.369 659.264C918.584 658.791 917.84 658.349 917.146 657.926C912.006 654.788 907.409 651.338 903.185 647.818C898.95 644.307 895.158 640.646 891.618 637.015C888.047 633.404 884.838 629.692 881.72 626.081C878.682 622.4 875.755 618.769 873.02 615.068C867.508 607.695 862.478 600.241 857.59 592.315C852.712 584.389 847.974 576.001 843.247 566.626C846.828 576.494 850.589 585.436 854.673 593.915C858.767 602.394 863.193 610.41 868.282 618.357C870.817 622.34 873.583 626.252 876.52 630.215C879.548 634.118 882.696 638.111 886.307 642.004C889.888 645.917 893.77 649.859 898.186 653.661C902.591 657.474 907.48 661.215 913.042 664.625C913.796 665.078 914.601 665.571 915.456 666.084C916.331 666.556 917.256 667.059 918.222 667.582C918.705 667.844 919.208 668.105 919.711 668.387C920.234 668.638 920.767 668.89 921.31 669.151C922.406 669.644 923.513 670.248 924.74 670.721C929.538 672.783 935.321 674.714 942.01 675.679C948.669 676.615 956.293 676.695 964.038 674.663C971.803 672.772 979.618 668.95 986.538 663.519C993.509 658.117 999.494 651.117 1004.56 643.392C1009.64 635.647 1013.81 627.107 1017.22 618.216C1024.03 600.392 1027.93 581.161 1029.85 562.301C1030.83 552.867 1031.37 543.502 1031.44 534.369C1031.46 533.233 1031.48 532.086 1031.49 530.959C1031.48 529.823 1031.47 528.696 1031.46 527.57C1031.43 525.317 1031.4 523.084 1031.37 520.871C1031.18 516.445 1031.1 512.08 1030.77 507.825C1029.7 490.766 1027.58 475.216 1025.19 462.12C1022.81 449.024 1020.19 438.382 1018.32 430.999C1017.31 427.328 1016.52 424.451 1015.98 422.5C1015.46 420.539 1015.12 419.523 1015.12 419.523C1015.12 419.523 1014.81 418.497 1014.22 416.555C1013.61 414.624 1012.82 411.748 1011.58 408.137C1010.98 406.326 1010.32 404.324 1009.58 402.132C1008.83 399.949 1007.95 397.605 1007.05 395.081C1006.16 392.546 1005.1 389.901 1004 387.084C1003.45 385.676 1002.89 384.228 1002.29 382.759C1001.67 381.291 1001.03 379.792 1000.38 378.263C997.804 372.107 994.716 365.539 991.266 358.609C987.705 351.739 983.843 344.477 979.276 337.215C974.74 329.933 969.731 322.51 964.028 315.288C958.315 308.076 951.978 301.025 944.877 294.537C941.336 291.288 937.574 288.211 933.641 285.324C931.68 283.875 929.598 282.568 927.576 281.19L924.388 279.319C923.311 278.715 922.296 278.031 921.159 277.508C918.926 276.432 916.774 275.225 914.44 274.35L911 272.942L907.449 271.795L905.669 271.232C905.076 271.041 904.462 270.94 903.859 270.789L900.217 269.955C899 269.703 897.753 269.592 896.516 269.401C895.279 269.24 894.052 269.029 892.804 269.019C891.557 268.969 890.32 268.919 889.073 268.858C887.836 268.818 886.588 268.959 885.351 269.009C882.867 269.049 880.433 269.562 878.009 269.914C876.792 270.105 875.645 270.478 874.468 270.749C873.301 271.071 872.114 271.292 870.988 271.725C869.851 272.117 868.725 272.509 867.588 272.892L866.743 273.183L865.928 273.545L864.299 274.26C859.914 276.08 855.94 278.565 852.148 281.099C851.243 281.793 850.338 282.477 849.443 283.161C848.558 283.855 847.632 284.509 846.828 285.273C845.188 286.772 843.458 288.17 841.99 289.77C835.854 295.945 831.006 302.695 827.113 309.313C823.211 315.941 820.213 322.459 817.92 328.525C813.233 340.645 810.939 350.854 809.622 357.643C807.137 370.196 806.091 381.552 805.749 392.063C805.417 402.584 805.799 412.271 806.564 421.645C806.785 423.989 807.006 426.302 807.238 428.625C807.53 430.929 807.821 433.232 808.113 435.526C808.395 437.829 808.757 440.112 809.139 442.405C809.531 444.699 809.863 447.002 810.306 449.316C812.016 458.559 814.198 468.004 816.904 478.143L816.934 478.083Z" fill="#2E100D"/>
<path fill-rule="evenodd" clip-rule="evenodd" d="M402.766 332.869C448.331 280.043 513.308 277.176 556.83 333.131C581.524 265.046 618.086 252.05 681.444 278.172C665.38 214.07 687.67 169.209 737.529 136.419C697.084 126.401 639.963 88.5714 650.263 11.997C595.897 72.307 495.555 64.894 476.625 4.43311C453.058 63.0533 398.934 89.537 354.949 40.6734C345.715 91.6594 302.062 116.936 251.418 108.366C272.48 147.161 269.724 189.94 219.281 222.177C260.973 221.674 296.811 241.761 284.248 303.298C332.639 264.875 380.507 273.334 402.776 332.879L402.766 332.869Z" fill="#FFFF7D"/>
<path d="M404.899 337.275C423.939 315.438 449.98 298.42 479.783 298.218C509.737 298.017 535.145 315.237 553.139 338.09C555.442 341.017 559.667 338.915 560.703 336.088C567.975 316.213 577.802 295.11 594.901 281.753C608.893 270.819 626.505 268.023 643.765 270.498C656.509 272.318 668.861 276.492 680.74 281.351C684.109 282.729 687.046 278.796 686.312 275.778C679.885 249.647 679.341 221.825 690.858 196.971C701.983 172.982 721.727 154.524 743.112 139.598C746.038 137.556 746.149 132.175 742.035 131.33C717.02 126.15 692.739 114.824 675.66 95.3812C656.107 73.1321 651.279 43.4096 656.358 14.8639C657.133 10.5287 652.264 7.17928 648.794 10.4583C629.09 29.0864 604.256 42.4641 577.681 48.0968C553.813 53.1561 527.41 51.4864 506.84 37.2739C494.841 28.9758 486.231 16.7046 480.98 3.20622C479.3 -1.11888 473.969 -1.0183 472.249 3.20622C462.905 26.079 446.47 49.8167 422.229 58.4669C397.727 67.2077 374.744 55.6204 358.137 37.4449C355.955 35.051 351.197 36.1172 350.573 39.4466C346.49 61.1324 335.375 80.9474 316.415 92.9169C297.455 104.886 274.391 107.532 252.605 103.971C248.772 103.347 245.504 106.918 247.495 110.62C257.131 128.564 262.905 149.827 258.469 170.145C253.057 194.929 233.564 211.455 211.375 221.684C207.181 223.615 209.404 230.163 213.659 230.123C231.734 229.912 253.148 230.686 268.014 242.415C286.2 256.748 284.52 282.869 280.466 303.217C279.531 307.895 284.5 310.399 288.03 307.623C305.582 293.833 328.847 281.491 351.851 286.873C375.267 292.354 389.288 314.141 397.325 335.263C399.377 340.655 408.127 338.321 406.055 332.859C396.912 308.82 380.909 284.388 354.265 278.142C327.781 271.936 301.901 285.283 281.633 301.216L289.197 305.621C293.039 286.329 294.961 263.658 283.655 246.337C274.793 232.769 259.636 225.959 244.136 223.203C234.077 221.413 223.858 220.96 213.669 221.071L215.952 229.51C240.132 218.355 261.325 199.475 267.199 172.559C272.178 149.777 266.153 126.24 255.32 106.063C253.621 108.276 251.911 110.499 250.211 112.712C274.371 116.665 299.939 114.039 320.992 100.742C341.853 87.5658 354.798 65.8498 359.314 41.8606L351.75 43.8622C370.388 64.2606 397.234 76.9844 424.653 67.2077C452.203 57.3907 470.348 31.7016 481 5.62023H472.27C482.469 31.8223 503.119 51.1344 530.829 57.3203C558.581 63.5163 587.961 57.3806 613.328 45.4715C628.698 38.2496 642.86 28.5232 655.201 16.8554L647.637 12.4499C643.252 37.0325 644.992 62.5305 657.203 84.7193C667.704 103.8 684.914 118.526 704.326 128.061C715.531 133.573 727.42 137.516 739.641 140.05L738.565 131.782C715.632 147.785 694.198 167.62 682.55 193.531C670.45 220.437 670.651 249.908 677.601 278.182L683.174 272.61C662.574 264.191 639.732 257.723 617.362 261.898C597.677 265.569 582.137 278.534 571.033 294.718C562.835 306.678 556.961 320.116 551.992 333.684L559.556 331.683C544.217 312.2 523.467 296.358 498.834 291.137C476.152 286.329 452.756 290.926 432.71 302.282C419.705 309.655 408.308 319.633 398.512 330.868C394.699 335.243 401.076 341.671 404.909 337.265L404.899 337.275Z" fill="#E14226"/>
<path d="M354.605 226.261L323.786 154.223L323.534 154.243L320.426 229.641L304.102 231.25L307.783 140.735L332.657 138.28L363.476 210.318L363.728 210.298L366.705 134.921L383.03 133.312L379.348 223.827L354.605 226.271V226.261Z" fill="#E14226"/>
<path d="M413.347 145.502L412.261 168.405L453.329 164.341L452.786 178.433L411.718 182.497L410.903 205.5L451.85 201.457L451.167 216.725L393.773 222.398L397.455 131.883L454.848 126.21L454.425 141.448L413.357 145.512L413.347 145.502Z" fill="#E14226"/>
<path d="M537.766 208.156L523.121 136.832L522.869 136.852L502.441 211.636L478.975 213.959L460.457 125.637L477.677 123.937L490.924 195.392L491.175 195.371L511.604 120.587L534.306 118.344L549.977 189.568L550.228 189.538L569.248 114.884L587.746 113.054L562.006 205.752L537.776 208.146L537.766 208.156Z" fill="#E14226"/>
<path d="M651.688 122.84L643.813 135.725L643.048 135.806C638.371 128.926 630.013 122.539 618.536 123.675C609.735 124.54 604.535 129.308 605.178 135.816C605.591 140.02 609.222 142.887 626.17 147.524C644.708 152.643 652.956 157.884 654.243 170.899C655.732 185.947 645.311 199.083 623.112 201.286C606.788 202.895 592.756 196.428 584.891 187.285L592.002 171.895L592.766 171.815C599.385 180.173 609.966 186.862 622.851 185.585C632.799 184.599 638.341 179.419 637.677 172.66C637.144 167.299 632.537 164.925 616.916 160.67C601.155 156.305 590.121 151.467 588.833 138.461C587.305 123.032 598.178 110.489 618.073 108.527C634.277 106.928 647.132 115.83 651.688 122.851V122.84Z" fill="#E14226"/>
<defs>
<linearGradient id="paint0_linear_198_10695" x1="1073.01" y1="418.072" x2="778.83" y2="526.589" gradientUnits="userSpaceOnUse">
<stop offset="0.34" stop-color="#FFF7E3"/>
<stop offset="0.45" stop-color="#F7EED8"/>
<stop offset="0.66" stop-color="#E2D6BB"/>
<stop offset="0.85" stop-color="#CCBC9B"/>
</linearGradient>
</defs>
</svg>
