<svg width="1500" height="1500" viewBox="0 0 1500 1500" fill="none" xmlns="http://www.w3.org/2000/svg">
<path d="M513.878 1099.86C592.382 1099.86 656.02 1089.93 656.02 1077.69C656.02 1065.44 592.382 1055.51 513.878 1055.51C435.376 1055.51 371.736 1065.44 371.736 1077.69C371.736 1089.93 435.376 1099.86 513.878 1099.86Z" fill="#D3D3D3" stroke="white" stroke-miterlimit="10"/>
<path d="M520.292 819.069H504.799V1084.88H520.292V819.069Z" fill="white"/>
<path d="M520.291 1082.26H504.798L507.408 1084.88V829.901C507.408 826.643 507.988 822.745 507.408 819.528C507.396 819.377 507.396 819.226 507.408 819.074L504.798 821.688H520.291L517.682 819.074V1074.05C517.682 1077.48 517.456 1081.02 517.682 1084.43C517.682 1084.57 517.682 1084.73 517.682 1084.88C517.682 1088.24 522.9 1088.24 522.9 1084.88V829.901C522.9 826.468 523.126 822.931 522.9 819.528C522.9 819.377 522.9 819.226 522.9 819.074C522.89 818.385 522.612 817.726 522.125 817.238C521.638 816.75 520.98 816.472 520.291 816.461H504.798C504.11 816.472 503.452 816.75 502.965 817.238C502.478 817.726 502.2 818.385 502.189 819.074V1074.05C502.189 1077.48 501.963 1081.02 502.189 1084.43C502.189 1084.57 502.189 1084.73 502.189 1084.88C502.198 1085.57 502.476 1086.23 502.964 1086.71C503.451 1087.2 504.109 1087.48 504.798 1087.49H520.291C523.677 1087.49 523.677 1082.26 520.291 1082.26Z" fill="#2E100D"/>
<path d="M753.772 455.366H263.496C244.471 455.366 229.049 470.815 229.049 489.873V794.593C229.049 813.65 244.471 829.1 263.496 829.1H753.772C772.796 829.1 788.218 813.65 788.218 794.593V489.873C788.218 470.815 772.796 455.366 753.772 455.366Z" fill="white"/>
<path d="M753.772 827.072H271.486C265.989 827.072 260.359 827.397 255.001 825.945C240.935 822.124 231.229 809.102 231.078 794.582C231.078 793.264 231.078 791.939 231.078 790.621V501.878C231.078 494.652 230.411 486.829 232.644 479.877C236.929 466.518 249.592 457.533 263.496 457.405C264.389 457.405 265.287 457.405 266.18 457.405H752.27C756.155 457.321 760.029 457.851 763.75 458.973C777.086 463.266 786.062 475.945 786.189 489.878C786.241 495.14 786.189 500.396 786.189 505.653V792.427C786.189 796.563 785.899 800.611 784.623 804.624C780.333 817.983 767.687 826.939 753.772 827.101C751.162 827.101 751.157 831.167 753.772 831.167C767.501 831.01 780.379 823.274 786.473 810.838C789.198 805.274 790.248 799.315 790.248 793.171V505.67C790.248 500.414 790.3 495.152 790.248 489.896C790.056 469.288 773.236 453.392 752.907 453.357C747.747 453.357 742.581 453.357 737.415 453.357H265.896C264.557 453.357 263.212 453.328 261.872 453.392C255.103 453.729 248.559 455.933 242.962 459.761C237.366 463.589 232.934 468.893 230.156 475.085C226.556 483.257 227.019 491.708 227.019 500.356V790.731C227.019 792.427 226.985 794.134 227.019 795.836C227.489 809.375 235.676 821.973 247.991 827.7C255.204 831.045 262.429 831.185 270.071 831.185H753.748C756.386 831.138 756.386 827.072 753.772 827.072Z" fill="#2E100D"/>
<path d="M746.652 472.837H269.358C256.889 472.837 246.78 482.963 246.78 495.454V788.588C246.78 801.079 256.889 811.205 269.358 811.205H746.652C759.122 811.205 769.23 801.079 769.23 788.588V495.454C769.23 482.963 759.122 472.837 746.652 472.837Z" fill="white"/>
<path d="M746.646 809.172H282.305C278.119 809.172 273.933 809.172 269.746 809.172C261.455 809.125 253.778 804.473 250.456 796.719C248.995 793.298 248.809 789.784 248.809 786.166V512.199C248.809 506.67 248.739 501.128 248.809 495.593C248.844 490.133 251.017 484.903 254.861 481.031C258.705 477.159 263.912 474.953 269.363 474.888C270.198 474.888 271.033 474.888 271.874 474.888H742.268C743.613 474.888 744.964 474.888 746.327 474.888C755.215 474.975 763.35 480.393 766.162 489.013C768.012 494.688 767.194 501.738 767.194 507.628V783.802C767.194 785.358 767.194 786.921 767.194 788.483C767.157 793.943 764.983 799.171 761.139 803.042C757.296 806.914 752.09 809.121 746.64 809.189C744.037 809.235 744.025 813.301 746.64 813.255C759.785 813.022 770.731 802.69 771.236 789.442C771.294 787.932 771.236 786.41 771.236 784.9V507.738C771.236 501.634 771.978 494.589 770.284 488.653C767.258 478.071 757.442 470.949 746.565 470.805C745.515 470.805 744.46 470.805 743.41 470.805H271.596C270.314 470.805 269.022 470.769 267.746 470.862C254.851 471.774 244.936 482.589 244.75 495.46C244.675 500.42 244.75 505.391 244.75 510.358V786.166C244.75 789.802 244.907 793.374 246.177 796.859C247.931 801.637 251.1 805.765 255.258 808.692C259.417 811.618 264.368 813.204 269.451 813.238C273.138 813.284 276.832 813.238 280.519 813.238H746.646C749.26 813.238 749.266 809.172 746.646 809.172Z" fill="#2E100D"/>
<path d="M236.667 498.433V770.281C236.667 773.951 236.597 777.634 236.667 781.316C236.667 781.473 236.667 781.636 236.667 781.798C236.667 783.663 239.566 783.668 239.566 781.798V509.933C239.566 506.263 239.635 502.586 239.566 498.898V498.416C239.566 496.546 236.667 496.54 236.667 498.416V498.433Z" fill="#CCCCCC"/>
<path d="M275.655 465.682H725.593C731.664 465.682 737.769 465.792 743.828 465.682C744.095 465.682 744.361 465.682 744.628 465.682C746.489 465.682 746.495 462.778 744.628 462.778H294.69C288.62 462.778 282.514 462.673 276.455 462.778H275.655C273.794 462.778 273.788 465.682 275.655 465.682Z" fill="#CCCCCC"/>
<path d="M275.655 821.224H725.593C731.664 821.224 737.769 821.334 743.828 821.224H744.588C746.449 821.224 746.455 818.32 744.588 818.32H294.69C288.62 818.32 282.514 818.215 276.455 818.32H275.655C273.794 818.32 273.788 821.224 275.655 821.224Z" fill="#CCCCCC"/>
<path d="M777.318 498.433V770.281C777.318 773.951 777.248 777.634 777.318 781.316C777.318 781.473 777.318 781.636 777.318 781.798C777.318 783.663 780.217 783.668 780.217 781.798V509.933C780.217 506.263 780.287 502.586 780.217 498.898V498.416C780.217 496.546 777.318 496.54 777.318 498.416V498.433Z" fill="#CCCCCC"/>
<path fill-rule="evenodd" clip-rule="evenodd" d="M275.656 455.279V472.198C275.656 472.198 261.995 470.688 253.913 479.464C246.242 487.793 247.279 502.203 247.279 502.203H229.05C229.05 502.203 227.206 477.228 238.13 466.506C249.054 455.785 255.704 453.92 275.656 455.279Z" fill="#2E100D"/>
<path fill-rule="evenodd" clip-rule="evenodd" d="M743.312 456.127V473.046C743.312 473.046 756.978 471.536 765.06 480.312C772.732 488.641 771.688 503.051 771.688 503.051H789.923C789.923 503.051 791.767 478.076 780.837 467.354C769.908 456.632 763.263 454.739 743.312 456.127Z" fill="#2E100D"/>
<path fill-rule="evenodd" clip-rule="evenodd" d="M275.656 828.739V811.82C275.656 811.82 261.995 813.33 253.913 804.554C246.242 796.225 247.279 781.816 247.279 781.816H229.05C229.05 781.816 227.206 806.79 238.13 817.512C249.054 828.234 255.704 830.092 275.656 828.739Z" fill="#2E100D"/>
<path fill-rule="evenodd" clip-rule="evenodd" d="M743.312 827.886V810.966C743.312 810.966 756.978 812.476 765.06 803.7C772.732 795.371 770.244 780.962 770.244 780.962H789.198C789.198 780.962 791.767 805.936 780.837 816.659C769.908 827.38 763.263 829.273 743.312 827.886Z" fill="#2E100D"/>
<path d="M519.31 1010.29L507.812 1020.69L554.841 1072.87L566.339 1062.46L519.31 1010.29Z" fill="white"/>
<path d="M564.485 1060.57L552.982 1070.97H556.675L515.462 1025.25L509.664 1018.8V1022.49L521.167 1012.09H517.473L558.687 1057.81L564.485 1064.26C566.741 1066.76 570.417 1063.06 568.173 1060.57L526.959 1014.85L521.161 1008.39C520.181 1007.31 518.471 1007.49 517.468 1008.39L505.97 1018.8C504.886 1019.78 505.065 1021.49 505.97 1022.49L547.183 1068.21L552.982 1074.66C553.962 1075.75 555.672 1075.57 556.675 1074.66L568.173 1064.26C570.672 1062 566.972 1058.31 564.485 1060.57Z" fill="#2E100D"/>
<path d="M505.387 1010.19L458.357 1062.37L469.857 1072.77L516.886 1020.6L505.387 1010.19Z" fill="white"/>
<path d="M456.522 1064.26L468.025 1074.66C469.029 1075.57 470.728 1075.76 471.713 1074.66L512.927 1028.94L518.724 1022.49C519.635 1021.49 519.815 1019.78 518.724 1018.8L507.227 1008.39C506.224 1007.48 504.519 1007.3 503.539 1008.39L462.343 1054.09L456.546 1060.54C454.301 1063.04 457.983 1066.74 460.239 1064.24L501.452 1018.52L507.25 1012.07H503.562L515.06 1022.47V1018.77L473.841 1064.55L468.043 1071H471.731L460.233 1060.6C457.728 1058.31 454.029 1062 456.522 1064.26Z" fill="#2E100D"/>
<path d="M520.292 887.97H504.799V928.255H520.292V887.97Z" fill="#2E100D"/>
<path d="M520.292 994.729H504.799V1045.58H520.292V994.729Z" fill="#2E100D"/>
<path d="M515.705 1022.07L503.825 1012.11L483.151 1036.85L495.031 1046.82L515.705 1022.07Z" fill="#2E100D"/>
<path d="M531.174 1046.77L542.673 1036.38L520.081 1011.31L508.582 1021.71L531.174 1046.77Z" fill="#2E100D"/>
<path d="M517.686 831.144H507.4V846.692H517.686V831.144Z" fill="#D3D3D3"/>
<path d="M534.769 902.078H517.978V911.539H534.769V902.078Z" fill="#2E100D"/>
<path d="M541.907 894.295H531.203V919.316H541.907V894.295Z" fill="#2E100D"/>
<path d="M354.916 738.97C354.73 747.101 348.277 753.914 339.997 753.914C336.04 753.914 332.246 752.339 329.448 749.536C326.65 746.734 325.079 742.933 325.079 738.97C325.079 735.006 326.65 731.205 329.448 728.402C332.246 725.6 336.04 724.025 339.997 724.025C348.277 724.025 354.73 730.809 354.916 738.97C354.974 741.583 359.038 741.595 358.975 738.97C358.975 735.052 357.767 731.23 355.516 728.026C353.264 724.823 350.081 722.394 346.399 721.073C342.717 719.751 338.718 719.601 334.948 720.643C331.178 721.686 327.822 723.869 325.338 726.895C322.854 729.921 321.364 733.642 321.073 737.549C320.781 741.455 321.701 745.357 323.707 748.72C325.713 752.083 328.707 754.743 332.28 756.336C335.853 757.929 339.831 758.377 343.667 757.619C352.602 755.923 358.771 747.908 358.975 738.97C359.038 736.356 354.98 736.356 354.916 738.97Z" fill="#9164E8"/>
<path d="M442.867 685.361C442.681 693.492 436.228 700.305 427.948 700.305C423.991 700.305 420.197 698.731 417.399 695.929C414.601 693.126 413.03 689.325 413.03 685.361C413.03 681.398 414.601 677.597 417.399 674.794C420.197 671.992 423.991 670.417 427.948 670.417C436.228 670.417 442.681 677.201 442.867 685.361C442.93 687.975 446.989 687.986 446.926 685.361C446.926 681.444 445.718 677.622 443.467 674.418C441.216 671.215 438.031 668.786 434.35 667.464C430.669 666.143 426.669 665.993 422.899 667.035C419.129 668.078 415.773 670.261 413.289 673.287C410.805 676.313 409.316 680.034 409.024 683.941C408.732 687.848 409.652 691.749 411.658 695.112C413.664 698.474 416.659 701.134 420.232 702.727C423.805 704.32 427.782 704.769 431.619 704.011C440.553 702.315 446.723 694.294 446.926 685.361C446.989 682.748 442.93 682.748 442.867 685.361Z" fill="#9164E8"/>
<path d="M375.07 663.633C374.878 671.764 368.425 678.577 360.151 678.577C358.167 678.616 356.195 678.259 354.35 677.525C352.505 676.792 350.825 675.697 349.408 674.305C347.991 672.913 346.865 671.252 346.097 669.419C345.328 667.586 344.932 665.618 344.932 663.63C344.932 661.642 345.328 659.674 346.097 657.841C346.865 656.008 347.991 654.347 349.408 652.955C350.825 651.563 352.505 650.468 354.35 649.735C356.195 649.001 358.167 648.644 360.151 648.683C368.431 648.683 374.878 655.467 375.07 663.633C375.127 666.241 379.186 666.252 379.129 663.633C379.131 659.713 377.924 655.889 375.674 652.683C373.423 649.477 370.238 647.046 366.555 645.722C362.873 644.399 358.871 644.247 355.099 645.29C351.327 646.331 347.969 648.515 345.483 651.542C342.998 654.569 341.507 658.292 341.215 662.2C340.923 666.109 341.843 670.012 343.85 673.377C345.857 676.741 348.854 679.401 352.428 680.995C356.004 682.588 359.983 683.036 363.821 682.277C372.756 680.581 378.897 672.566 379.129 663.633C379.186 661.013 375.127 661.013 375.07 663.633Z" fill="#9164E8"/>
<path d="M318.694 685.471C318.508 693.603 312.055 700.416 303.775 700.416C299.819 700.416 296.024 698.841 293.226 696.038C290.428 693.236 288.857 689.434 288.857 685.471C288.857 681.508 290.428 677.707 293.226 674.904C296.024 672.101 299.819 670.527 303.775 670.527C312.055 670.527 318.508 677.311 318.694 685.471C318.758 688.085 322.816 688.096 322.752 685.471C322.753 681.554 321.545 677.732 319.294 674.528C317.043 671.325 313.859 668.896 310.177 667.575C306.495 666.253 302.496 666.103 298.726 667.145C294.957 668.187 291.6 670.371 289.117 673.397C286.633 676.423 285.143 680.144 284.851 684.051C284.559 687.957 285.479 691.859 287.485 695.222C289.491 698.585 292.486 701.245 296.059 702.838C299.632 704.43 303.608 704.879 307.446 704.121C316.381 702.425 322.521 694.404 322.752 685.471C322.816 682.858 318.758 682.858 318.694 685.471Z" fill="#9164E8"/>
<path d="M500.051 685.361C499.859 693.492 493.412 700.305 485.132 700.305C481.175 700.305 477.38 698.731 474.583 695.929C471.785 693.126 470.213 689.325 470.213 685.361C470.213 681.398 471.785 677.597 474.583 674.794C477.38 671.992 481.175 670.417 485.132 670.417C493.412 670.417 499.859 677.201 500.051 685.361C500.109 687.975 504.167 687.986 504.109 685.361C504.109 681.444 502.902 677.622 500.65 674.418C498.399 671.215 495.215 668.786 491.533 667.464C487.852 666.143 483.853 665.993 480.083 667.035C476.313 668.078 472.956 670.261 470.473 673.287C467.989 676.313 466.499 680.034 466.207 683.941C465.915 687.848 466.835 691.749 468.842 695.112C470.848 698.474 473.842 701.134 477.415 702.727C480.988 704.32 484.965 704.769 488.802 704.011C497.737 702.315 503.877 694.294 504.109 685.361C504.167 682.748 500.109 682.748 500.051 685.361Z" fill="#9164E8"/>
<path d="M551.71 685.471C551.525 693.603 545.072 700.416 536.792 700.416C532.835 700.416 529.04 698.841 526.242 696.038C523.444 693.236 521.873 689.434 521.873 685.471C521.873 681.508 523.444 677.707 526.242 674.904C529.04 672.101 532.835 670.527 536.792 670.527C545.072 670.527 551.525 677.311 551.71 685.471C551.768 688.085 555.833 688.096 555.769 685.471C555.77 681.554 554.561 677.732 552.31 674.528C550.059 671.325 546.875 668.896 543.193 667.575C539.512 666.253 535.512 666.103 531.742 667.145C527.973 668.187 524.616 670.371 522.133 673.397C519.649 676.423 518.159 680.144 517.867 684.051C517.575 687.957 518.495 691.859 520.502 695.222C522.508 698.585 525.502 701.245 529.075 702.838C532.648 704.43 536.625 704.879 540.462 704.121C549.397 702.425 555.537 694.404 555.769 685.471C555.827 682.858 551.768 682.858 551.71 685.471Z" fill="#9164E8"/>
<path d="M600.514 689.031C600.329 697.163 593.875 703.976 585.595 703.976C581.639 703.976 577.844 702.401 575.046 699.599C572.249 696.796 570.677 692.995 570.677 689.031C570.677 685.068 572.249 681.267 575.046 678.464C577.844 675.662 581.639 674.088 585.595 674.088C593.875 674.088 600.329 680.865 600.514 689.031C600.578 691.64 604.637 691.651 604.573 689.031C604.573 685.114 603.365 681.292 601.114 678.089C598.863 674.885 595.679 672.456 591.997 671.135C588.315 669.813 584.317 669.663 580.547 670.706C576.776 671.748 573.42 673.932 570.936 676.958C568.453 679.984 566.963 683.704 566.671 687.611C566.379 691.518 567.299 695.419 569.305 698.782C571.312 702.145 574.306 704.804 577.879 706.397C581.452 707.99 585.429 708.439 589.266 707.682C598.201 705.98 604.37 697.965 604.573 689.031C604.637 686.441 600.578 686.441 600.514 689.031Z" fill="#9164E8"/>
<path d="M663.133 685.471C662.948 693.603 656.494 700.416 648.215 700.416C644.258 700.416 640.463 698.841 637.665 696.038C634.868 693.236 633.296 689.434 633.296 685.471C633.296 681.508 634.868 677.707 637.665 674.904C640.463 672.101 644.258 670.527 648.215 670.527C656.494 670.527 662.948 677.311 663.133 685.471C663.191 688.085 667.256 688.096 667.192 685.471C667.192 681.554 665.984 677.732 663.733 674.528C661.482 671.325 658.298 668.896 654.616 667.575C650.935 666.253 646.935 666.103 643.165 667.145C639.395 668.187 636.039 670.371 633.555 673.397C631.071 676.423 629.582 680.144 629.29 684.051C628.998 687.957 629.918 691.859 631.924 695.222C633.931 698.585 636.925 701.245 640.498 702.838C644.071 704.43 648.048 704.879 651.885 704.121C660.819 702.425 666.989 694.404 667.192 685.471C667.256 682.858 663.197 682.858 663.133 685.471Z" fill="#9164E8"/>
<path d="M525.183 737.244C524.992 745.376 518.544 752.188 510.264 752.188C506.308 752.188 502.513 750.614 499.716 747.812C496.918 745.009 495.346 741.208 495.346 737.244C495.346 733.281 496.918 729.48 499.716 726.677C502.513 723.875 506.308 722.3 510.264 722.3C518.544 722.3 524.992 729.084 525.183 737.244C525.242 739.858 529.3 739.864 529.242 737.244C529.242 733.327 528.034 729.505 525.783 726.301C523.532 723.098 520.348 720.669 516.667 719.348C512.985 718.026 508.985 717.876 505.216 718.919C501.446 719.961 498.09 722.144 495.606 725.171C493.122 728.197 491.632 731.918 491.34 735.824C491.048 739.731 491.968 743.632 493.974 746.995C495.981 750.358 498.975 753.018 502.548 754.611C506.121 756.204 510.098 756.652 513.935 755.894C522.87 754.198 529.01 746.177 529.242 737.244C529.3 734.648 525.242 734.648 525.183 737.244Z" fill="#9164E8"/>
<path d="M599.117 766.012C598.925 774.143 592.472 780.962 584.198 780.962C580.292 780.885 576.571 779.276 573.836 776.481C571.1 773.687 569.568 769.929 569.568 766.015C569.568 762.101 571.1 758.343 573.836 755.548C576.571 752.754 580.292 751.145 584.198 751.068C592.478 751.068 598.925 757.852 599.117 766.012C599.175 768.626 603.233 768.637 603.176 766.012C603.177 762.093 601.969 758.269 599.718 755.064C597.467 751.859 594.281 749.428 590.599 748.106C586.916 746.783 582.914 746.633 579.143 747.675C575.372 748.718 572.014 750.902 569.529 753.93C567.044 756.957 565.554 760.679 565.262 764.587C564.97 768.496 565.891 772.399 567.898 775.763C569.906 779.126 572.902 781.787 576.477 783.38C580.052 784.973 584.03 785.421 587.869 784.662C596.803 782.966 602.944 774.951 603.176 766.012C603.233 763.369 599.175 763.369 599.117 766.012Z" fill="#9164E8"/>
<path d="M412.931 510.311C412.501 510.474 412.154 510.056 412.803 510.462C413.213 510.669 413.635 510.851 414.067 511.008C415.679 511.815 417.239 512.716 418.769 513.663C423.828 516.836 428.653 520.368 433.207 524.233C446.473 535.367 458.139 548.755 466.181 564.175C471.505 574.233 474.894 585.203 476.171 596.515C476.444 599.088 480.508 599.116 480.23 596.515C476.444 560.824 451.094 529.234 421.419 510.555C419.436 509.306 414.496 505.392 411.852 506.414C409.434 507.343 410.484 511.275 412.931 510.334V510.311Z" fill="#9164E8"/>
<path d="M387.71 709.371C388.497 713.472 389.62 717.501 391.067 721.417C394.379 730.98 398.968 740.05 404.71 748.378C412.382 759.55 422.29 769.001 433.805 776.129C448.713 785.254 465.904 789.825 483.252 790.94C508.486 792.56 533.888 787.293 557.776 779.498C561.678 778.226 565.552 776.867 569.407 775.432C571.837 774.538 570.787 770.606 568.329 771.512C543.698 780.549 517.635 787.304 491.213 787.13C473.598 787.008 455.845 783.546 440.253 775.142C428.431 768.738 418.153 759.817 410.143 749.006C404.124 740.885 399.275 731.955 395.741 722.48C394.581 719.39 393.566 716.248 392.714 713.059C392.314 711.561 392.134 709.912 391.635 708.453C391.617 708.385 391.602 708.315 391.595 708.245C391.154 705.672 387.24 706.757 387.681 709.325L387.71 709.371Z" fill="#9164E8"/>
<path d="M361.049 647.196C364.116 636.027 361.536 622.094 349.812 617.343C341.167 613.858 330.545 614.555 322.897 608.531C315.563 602.758 316.276 591.293 316.676 582.976C317.148 573.428 318.465 563.941 320.612 554.627C321.192 552.083 317.284 550.997 316.699 553.546C314.982 561.155 313.771 568.87 313.075 576.639C312.193 586.054 310.976 597.92 315.904 606.522C319.992 613.66 328.335 616.186 335.827 618.022C340.657 619.184 346.154 619.602 350.514 622.163C353.768 624.121 356.149 627.253 357.17 630.916C358.533 635.885 358.52 641.13 357.135 646.092C356.445 648.619 360.359 649.699 361.049 647.179V647.196Z" fill="#9164E8"/>
<path d="M587.625 670.457C587.625 644.321 588.785 616.901 598.247 592.216C605.392 573.217 619.345 557.563 637.385 548.308C649.562 541.977 662.897 538.166 676.291 535.413C678.848 534.891 677.769 530.97 675.213 531.493C652.739 536.111 629.807 544.09 613.34 560.789C597.592 576.761 590.292 598.576 586.872 620.322C584.268 636.892 583.584 653.707 583.566 670.457C583.566 673.076 587.625 673.076 587.625 670.457Z" fill="#9164E8"/>
<path d="M382.676 731.128C382.798 731.97 382.862 730.722 382.989 730.141C383.25 728.98 383.569 727.818 383.876 726.656C384.688 723.665 385.569 720.686 386.462 717.717C387.68 713.656 388.929 709.608 390.208 705.573L387.227 706.792L411.806 722.277C414.027 723.677 416.062 720.157 413.859 718.792L389.274 703.284C389.005 703.132 388.705 703.042 388.396 703.022C388.087 703.003 387.778 703.053 387.491 703.17C387.204 703.287 386.948 703.467 386.741 703.697C386.534 703.927 386.381 704.201 386.294 704.498C384.899 708.912 383.546 713.34 382.236 717.781C381.354 720.749 380.496 723.729 379.684 726.726C379.226 728.468 378.524 730.391 378.791 732.191C379.157 734.77 383.07 733.672 382.705 731.111L382.676 731.128Z" fill="#9164E8"/>
<path d="M303.044 568.612C305.903 565.169 309.515 562.224 312.757 559.128C315.586 556.456 318.427 553.792 321.28 551.136L318.091 550.724L328.006 570.471C329.165 572.794 332.679 570.756 331.485 568.421L321.575 548.674C320.967 547.459 319.291 547.425 318.386 548.261C315.534 550.913 312.693 553.577 309.863 556.253C306.616 559.32 303.01 562.293 300.151 565.738C298.493 567.736 301.345 570.622 303.022 568.642L303.044 568.612Z" fill="#9164E8"/>
<path d="M419.745 526.643C419.356 523.158 416.997 519.424 415.582 516.276C414.167 513.128 412.683 509.887 411.21 506.687L410.48 509.469L431.127 500.176C433.51 499.107 431.446 495.599 429.08 496.691L408.433 505.984C407.366 506.46 407.273 507.86 407.702 508.766C409.013 511.596 410.309 514.433 411.593 517.275C412.521 519.337 413.448 521.405 414.341 523.49C414.66 524.233 414.984 524.982 415.275 525.743C415.373 525.999 415.768 527.416 415.687 526.672C415.97 529.24 420.035 529.268 419.745 526.672V526.643Z" fill="#9164E8"/>
<path d="M666.527 558.193C666.649 557.786 666.428 558.379 666.608 557.995C666.788 557.612 666.927 557.345 667.089 557.019C667.606 555.991 668.156 554.981 668.707 553.971C670.162 551.269 671.658 548.586 673.154 545.909C675.222 542.215 677.305 538.537 679.404 534.873C680.118 533.619 679.404 532.382 678.192 531.888L653.214 521.561C650.802 520.563 649.735 524.465 652.136 525.482L677.114 535.808L675.902 532.817C673.707 536.666 671.527 540.524 669.362 544.393C667.124 548.401 663.964 552.704 662.613 557.136C661.848 559.639 665.761 560.713 666.527 558.216V558.193Z" fill="#9164E8"/>
<path d="M708.557 561.422L686.889 586.043C685.149 588 688.049 590.886 689.788 588.947L711.456 564.327C713.195 562.369 710.296 559.482 708.586 561.422H708.557Z" fill="#D64141"/>
<path d="M685.127 565.685L710.1 587.53C712.059 589.243 714.941 586.368 712.97 584.626L687.997 562.781C686.037 561.068 683.156 563.943 685.098 565.685H685.127Z" fill="#D64141"/>
<path d="M712.262 612.255L690.588 636.875C688.849 638.832 691.748 641.719 693.487 639.779L715.16 615.158C716.9 613.201 714.001 610.315 712.291 612.255H712.262Z" fill="#D64141"/>
<path d="M688.826 616.518L713.799 638.362C715.764 640.075 718.646 637.2 716.669 635.458L691.696 613.613C689.736 611.9 686.855 614.775 688.797 616.518H688.826Z" fill="#D64141"/>
<path d="M651.816 608.096L630.142 632.716C628.403 634.674 631.302 637.561 633.012 635.62L654.686 611C656.425 609.043 653.526 606.156 651.787 608.125L651.816 608.096Z" fill="#D64141"/>
<path d="M628.35 612.359L653.329 634.203C655.289 635.946 658.17 633.042 656.193 631.328L631.22 609.484C629.261 607.742 626.379 610.646 628.35 612.388V612.359Z" fill="#D64141"/>
<path d="M545.328 613.927L523.677 638.548C521.938 640.505 524.837 643.391 526.548 641.452L548.221 616.831C549.96 614.874 547.061 611.987 545.351 613.927H545.328Z" fill="#D64141"/>
<path d="M521.892 618.19L546.871 640.035C548.83 641.748 551.712 638.873 549.74 637.131L524.762 615.292C522.802 613.55 519.921 616.454 521.892 618.161V618.19Z" fill="#D64141"/>
<path d="M592.971 501.849L571.303 526.475C569.563 528.426 572.463 531.313 574.202 529.35L595.87 504.723C597.61 502.772 594.71 499.886 593 501.82L592.971 501.849Z" fill="#D64141"/>
<path d="M569.541 506.118L594.514 527.956C596.473 529.699 599.355 526.795 597.384 525.052L572.411 503.214C570.451 501.471 567.57 504.375 569.512 506.089L569.541 506.118Z" fill="#D64141"/>
<path d="M542.098 549.249L520.43 573.869C518.691 575.826 521.59 578.713 523.301 576.773L544.968 552.152C546.707 550.195 543.808 547.308 542.098 549.249Z" fill="#D64141"/>
<path d="M518.667 553.512L543.64 575.356C545.599 577.098 548.481 574.194 546.539 572.452L521.566 550.607C519.607 548.894 516.724 551.769 518.696 553.512H518.667Z" fill="#D64141"/>
<path d="M491.88 611.952L470.207 636.573C468.467 638.531 471.366 641.417 473.076 639.477L494.75 614.857C496.49 612.899 493.59 610.013 491.851 611.952H491.88Z" fill="#D64141"/>
<path d="M468.443 616.216L493.421 638.06C495.381 639.773 498.262 636.898 496.291 635.156L471.312 613.312C469.353 611.598 466.471 614.473 468.413 616.216H468.443Z" fill="#D64141"/>
<path d="M432.448 613.642L410.775 638.263C409.035 640.22 411.935 643.107 413.645 641.167L435.319 616.546C437.058 614.589 434.159 611.703 432.419 613.642H432.448Z" fill="#D64141"/>
<path d="M409.017 617.906L433.99 639.75C435.95 641.463 438.832 638.589 436.86 636.846L411.882 615.002C409.922 613.288 407.04 616.163 409.017 617.906Z" fill="#D64141"/>
<path d="M437.353 565.459L415.679 590.079C413.939 592.036 416.839 594.923 418.578 592.954L440.251 568.334C441.991 566.376 439.092 563.49 437.353 565.459Z" fill="#D64141"/>
<path d="M413.919 569.699L438.897 591.543C440.857 593.285 443.739 590.382 441.767 588.668L416.789 566.823C414.829 565.082 411.948 567.985 413.89 569.699H413.919Z" fill="#D64141"/>
<path d="M369.66 568.015L347.992 592.641C346.253 594.592 349.152 597.479 350.892 595.545L372.565 570.919C374.304 568.967 371.406 566.08 369.666 568.043L369.66 568.015Z" fill="#D64141"/>
<path d="M346.254 572.283L371.232 594.121C373.192 595.864 376.074 592.96 374.102 591.247L349.124 569.408C347.164 567.666 344.283 570.57 346.225 572.312L346.254 572.283Z" fill="#D64141"/>
<path d="M414.717 656.123H440.849C443.458 656.123 443.464 652.057 440.849 652.057H414.717C412.108 652.057 412.102 656.123 414.717 656.123Z" fill="#9164E8"/>
<path d="M472.56 653.335H498.692C501.301 653.335 501.306 649.27 498.692 649.27H472.56C469.951 649.27 469.945 653.335 472.56 653.335Z" fill="#9164E8"/>
<path d="M430.123 667.588L429.126 654.09C428.934 651.494 424.876 651.476 425.067 654.09L426.064 667.588C426.256 670.178 430.314 670.202 430.123 667.588Z" fill="#9164E8"/>
<path d="M717.776 685.471C717.59 693.603 711.137 700.416 702.858 700.416C698.901 700.416 695.106 698.841 692.308 696.038C689.51 693.236 687.939 689.434 687.939 685.471C687.939 681.508 689.51 677.707 692.308 674.904C695.106 672.101 698.901 670.527 702.858 670.527C711.137 670.527 717.59 677.311 717.776 685.471C717.84 688.085 721.898 688.096 721.835 685.471C721.835 681.554 720.627 677.732 718.376 674.528C716.125 671.325 712.941 668.896 709.259 667.575C705.578 666.253 701.578 666.103 697.808 667.145C694.039 668.187 690.682 670.371 688.199 673.397C685.715 676.423 684.225 680.144 683.933 684.051C683.641 687.957 684.561 691.859 686.567 695.222C688.573 698.585 691.568 701.245 695.141 702.838C698.714 704.43 702.691 704.879 706.528 704.121C715.463 702.425 721.603 694.404 721.835 685.471C721.898 682.858 717.84 682.858 717.776 685.471Z" fill="#9164E8"/>
<path d="M689.626 656.239H715.759C718.368 656.239 718.373 652.174 715.759 652.174H689.626C687.017 652.174 687.011 656.239 689.626 656.239Z" fill="#9164E8"/>
<path d="M705.026 667.698L704.035 654.2C703.844 651.605 699.785 651.581 699.976 654.2L700.968 667.698C701.159 670.289 705.224 670.312 705.026 667.698Z" fill="#9164E8"/>
<path d="M634.846 656.239H660.973C663.588 656.239 663.593 652.174 660.973 652.174H634.846C632.231 652.174 632.231 656.239 634.846 656.239Z" fill="#9164E8"/>
<path d="M650.246 667.698L649.255 654.2C649.064 651.605 644.999 651.581 645.196 654.2L646.187 667.698C646.379 670.289 650.438 670.312 650.246 667.698Z" fill="#9164E8"/>
<path d="M487.659 666.008L486.661 652.51C486.47 649.914 482.411 649.891 482.602 652.51L483.6 666.008C483.785 668.599 487.85 668.622 487.659 666.008Z" fill="#9164E8"/>
<path d="M522.859 653.916H548.991C551.6 653.916 551.606 649.85 548.991 649.85H522.859C520.244 649.85 520.244 653.916 522.859 653.916Z" fill="#9164E8"/>
<path d="M537.952 666.606L536.96 653.108C536.769 650.518 532.705 650.495 532.901 653.108L533.893 666.606C534.085 669.203 538.143 669.226 537.952 666.606Z" fill="#9164E8"/>
<path fill-rule="evenodd" clip-rule="evenodd" d="M1127.09 753.606L1097.76 835.442L1028.27 864.557L999.741 938.676L1170.96 940.512L1287.03 755.046L1294.23 601.678L1229.49 542.168L1131.16 553.5L1089.24 626.502L1127.09 753.606Z" fill="#2F110F"/>
<path fill-rule="evenodd" clip-rule="evenodd" d="M1135.15 753.368L1105.18 841.645L1030.21 869.471L1006.62 931.991L1163.95 931.153L1279.56 752.711L1286.49 604.849L1226.72 549.928L1136.12 562.805L1099.42 629.748L1135.15 753.368Z" fill="#C93C27"/>
<path fill-rule="evenodd" clip-rule="evenodd" d="M1135.14 753.368L1105.18 841.645L1030.2 869.471L1019.75 897.228L1114.66 896.095L1197.78 762.62L1156.33 637.793L1192.99 554.72L1136.12 562.804L1099.42 629.749L1135.14 753.368Z" fill="#AF3225"/>
<path fill-rule="evenodd" clip-rule="evenodd" d="M1164.42 931.656L1279.56 752.711L1286.49 604.849L1226.72 549.928L1251.66 616.854L1254.93 755.18L1153.58 919.862L1011.71 918.463L1006.62 931.991L1164.42 931.656Z" fill="#EB6435"/>
<path fill-rule="evenodd" clip-rule="evenodd" d="M1136.12 562.805L1110.05 610.349L1156.34 637.792L1251.84 625.921L1276.56 595.713L1226.72 549.928L1136.12 562.805Z" fill="#401714"/>
<path fill-rule="evenodd" clip-rule="evenodd" d="M1118.39 695.415L1106.84 655.53L1158.69 685.941L1252.75 671.154L1284.43 649.089L1281.46 712.38L1253.79 722.172L1160.22 722.312L1118.39 695.415Z" fill="#401714"/>
<path fill-rule="evenodd" clip-rule="evenodd" d="M1135.15 753.368L1127.33 726.238L1173.89 763.787L1246.02 769.688L1279.56 752.711L1249.79 798.973L1223.73 805.873L1163.63 787.443L1132.04 762.527L1135.15 753.368Z" fill="#401714"/>
<path fill-rule="evenodd" clip-rule="evenodd" d="M1204.08 869.988L1232.31 826.137L1204.28 837.527L1162.61 819.133L1122.22 791.452L1114.45 813.789L1144.7 847.883L1184.91 868.92L1204.08 869.988Z" fill="#401714"/>
<path fill-rule="evenodd" clip-rule="evenodd" d="M1164.43 931.656L1184.52 902.891L1166.86 898.32L1128.11 874.553L1105.18 841.644L1091.62 846.686L1111.49 896.089L1136.72 919.723L1154.73 931.685L1164.43 931.656Z" fill="#401714"/>
<path d="M1042.05 1104.48C1159.02 1104.48 1253.84 1092.65 1253.84 1078.05C1253.84 1063.45 1159.02 1051.61 1042.05 1051.61C925.086 1051.61 830.262 1063.45 830.262 1078.05C830.262 1092.65 925.086 1104.48 1042.05 1104.48Z" fill="#D3D3D3" stroke="white" stroke-miterlimit="10"/>
<path fill-rule="evenodd" clip-rule="evenodd" d="M851.834 658.324L778.577 700.38L696.017 683.816H661.819L659.807 706.99L638.679 700.944L623.592 727.649L665.843 770.978L701.206 762.103L724.3 754.855L786.503 784.836L869.681 768.683L865.369 686.209L851.834 658.324Z" fill="#771213"/>
<path fill-rule="evenodd" clip-rule="evenodd" d="M660.642 697.36L522.263 569.449L517.717 576.907L640.279 699.847L659.807 705.48L660.642 697.36Z" fill="#AAAAAA"/>
<path fill-rule="evenodd" clip-rule="evenodd" d="M714.628 748.559L676.471 714.047L702.556 762.417L730.985 789.993L747.324 777.489L714.628 748.559Z" fill="#AAAAAA"/>
<path fill-rule="evenodd" clip-rule="evenodd" d="M790.496 694.166L817.7 721.58L817.735 777.123L832.528 775.101L867.741 768.457L850.933 662.657L790.496 694.166Z" fill="#CA3C27"/>
<path fill-rule="evenodd" clip-rule="evenodd" d="M861.638 906.004L856.222 959.585L891.923 1031.96L860.498 1042.37L846.088 1070.5L921.602 1089.06L970.157 1065.4L992.134 1015.57L989.861 1001.71L1022.69 1053.25L1024.33 1064.3L985.525 1082.35L980.114 1110.74L1046.28 1124.09L1092.31 1107.73L1117.01 1036.67L1098.65 977.887L1124.05 865.702L1062.94 778.534L1036.95 682.05L998.655 642.067L850.97 648.416L832.364 705.986L851.058 768.713L861.638 906.004Z" fill="#2F110F"/>
<path fill-rule="evenodd" clip-rule="evenodd" d="M941.37 628.058L857.472 653.614L840.87 705.985L858.248 762.184L864.228 840.634L870.972 905.342L866.443 958.414L903.348 1037.68L865.556 1047.93L856.215 1066.17L919.539 1079.84L962.425 1061.94L985.524 1014.6L976.025 966.417L914.205 932.503L881.876 897.35L917.683 928.365L977.047 957.784L976.177 899.307L987.809 985.625L1028.79 1050.96L1031.24 1067.59L993.32 1090.16L990.512 1104.26L1043.57 1113.84L1083.44 1102.44L1105.42 1037.61L1085.96 984.301L1117.01 868.472L1050.11 784.33L1027.98 686.081L991.675 644.518L941.37 628.058Z" fill="#CA3C27"/>
<path fill-rule="evenodd" clip-rule="evenodd" d="M987.803 985.625L1028.79 1050.97L1031.24 1067.59L993.02 1086.13L990.506 1104.27L1043.57 1113.84L1083.44 1102.44L1109.96 1036.5L1090.35 979.817L1095.92 947.15L1082.04 973.585L1073.92 1031.38L1040.29 1027.57L987.803 985.625ZM866.443 958.414L903.348 1037.68L865.556 1047.93L856.215 1066.17L919.533 1079.83L962.442 1061.94L985.542 1014.6L928.974 1011.58L866.443 958.414Z" fill="#771213"/>
<path fill-rule="evenodd" clip-rule="evenodd" d="M929.439 655.223L890.589 657.157L855.957 651.012L838.356 705.254L858.536 767.981L864.094 840.053L881.877 897.391L917.683 928.412L977.042 957.838L976.172 899.354L978.111 914.542L1034.51 871.109L1003.59 762.19L929.439 655.223Z" fill="#771213"/>
<path fill-rule="evenodd" clip-rule="evenodd" d="M874.58 419.2L945.488 422.957L1048.03 403.674L1081.79 412.613L1057.92 471.652L1071.6 491.493L1076.77 533.526L1046.82 561.143L1070.25 605.221L1049.31 599.61L1059.66 628.151L960.903 655.124L903.248 659.608L831.559 650.228L734.863 616.971L747.144 589.208L725.864 593.366L752.258 551.002L725.939 522.073L735.999 478.238L830.225 381.517C842.738 379.478 849.359 377.399 864.046 375" fill="#2E100D"/>
<path fill-rule="evenodd" clip-rule="evenodd" d="M976.871 436.014C1062.4 340.454 1036.54 569.188 1035.23 557.775L1032.03 558.53L1030.15 555.835C1008.99 525.505 953.736 466.448 976.871 436.014Z" fill="#2E100D"/>
<path fill-rule="evenodd" clip-rule="evenodd" d="M830.63 430.984C743.16 412.149 759.238 585.717 764.068 548.441L767.205 549.411L769.269 546.85C792.462 518.053 851.603 462.934 830.63 430.984Z" fill="#2E100D"/>
<path fill-rule="evenodd" clip-rule="evenodd" d="M944.531 431.002L970.157 436.594L996.687 486.068L1008.24 474.631L1005.01 494.588L1023.23 500.1L1007.73 506.843L1053.15 592.297L1035.41 587.547L1048.29 623.051L961.479 648.351L896.299 650.988L831.442 643.88L746.576 612.667L761.861 578.132L743.834 581.651L795.003 499.519L779.991 491.731L798.557 487.485L796.701 467.348L807.446 479.551L830.813 435.7L834.826 442.409L864.74 428.254L944.531 431.002Z" fill="#CA3C27"/>
<path fill-rule="evenodd" clip-rule="evenodd" d="M850.71 579.044L803.142 552.931L808.147 518.721L784.994 590.021L812.02 636.736L831.441 643.88L903.994 654.694L961.479 648.352L995.658 597.659L973.011 529.216L952.655 570.988L928.433 581.722L890.018 567.538L850.71 579.044Z" fill="#771213"/>
<path fill-rule="evenodd" clip-rule="evenodd" d="M997.192 485.568L1008.24 474.632L1005.01 494.588L1023.23 500.1L1007.73 506.843L1053.15 592.298L1035.41 587.547L1048.29 623.052L1008.56 634.633L1035.35 613.741L991.476 476.206L997.192 485.568Z" fill="#EB6337"/>
<path fill-rule="evenodd" clip-rule="evenodd" d="M881.149 560.197L908.625 582.581L929.98 582.732L941.471 608.281L912.303 649.357L902.979 654.543L855.864 647.411L814.241 613.747L813.157 585.165L828.487 573.613L854.442 559.273L881.149 560.197Z" fill="#FDE6D5"/>
<path fill-rule="evenodd" clip-rule="evenodd" d="M882.453 633.901L911.838 601.684L941.471 608.282L912.302 649.357L902.973 654.543L855.864 647.411L814.235 613.747L813.562 595.899L814.617 595.469L819.005 604.309L820.756 610.634L843.251 631.293L882.453 633.901Z" fill="#EEBC92"/>
<path fill-rule="evenodd" clip-rule="evenodd" d="M882.416 513.651L881.576 476.688L908.688 473.157L906.338 507.79L882.416 513.651Z" fill="#EEBC92"/>
<path fill-rule="evenodd" clip-rule="evenodd" d="M927.752 492.939L914.945 479.343L912.842 507.761L924.063 507.059L927.752 492.939Z" fill="#EEBC92"/>
<path fill-rule="evenodd" clip-rule="evenodd" d="M972.188 461.982L970.144 436.595L1045.5 414.855L1069.45 420.466L1044.93 474.539L1061.41 493.694L1044.84 531.644L1063.78 512.018L1067.31 531.046L1041.05 555.266L1015.93 522.258L1037.99 503.893L1025.09 478.61L1037.63 439.795L991.469 476.206L972.188 461.982Z" fill="#FDE6D5"/>
<path fill-rule="evenodd" clip-rule="evenodd" d="M1037.62 439.795L991.47 476.188L972.189 461.964L990.965 465.896L1037.62 439.795ZM1041.05 555.271L1015.94 522.258L1037.97 503.893L1025.08 478.61L1037.61 439.795L1030.81 478.825L1045.92 497.028L1044.82 531.644L1041.05 555.271Z" fill="#EEBC92"/>
<path fill-rule="evenodd" clip-rule="evenodd" d="M970.145 436.595L944.531 431.002L1045.5 414.855L970.145 436.595Z" fill="#771213"/>
<path fill-rule="evenodd" clip-rule="evenodd" d="M845.558 566.858L822.024 558.588L817.7 552.803L830.589 538.166L845.188 542.47L853.119 560.62L845.558 566.858Z" fill="#2E100D"/>
<path fill-rule="evenodd" clip-rule="evenodd" d="M833.311 543.254L844.954 547.268L848.479 559.848L842.687 565.854L827.389 560.476L825.086 552.78L833.311 543.254Z" fill="#771213"/>
<path fill-rule="evenodd" clip-rule="evenodd" d="M835.714 546.768L844.332 549.277L846.817 557.531L840.496 563.53L832.159 561.439L829.48 553.134L835.714 546.768Z" fill="#2E100D"/>
<path fill-rule="evenodd" clip-rule="evenodd" d="M840.077 544.3L844.436 545.699L845.858 550.712L842.263 554.121L837.522 552.931L836 548.215L840.077 544.3Z" fill="#FDE6D5"/>
<path fill-rule="evenodd" clip-rule="evenodd" d="M845.194 542.355L852.314 561.434L857.73 555.492L850.98 536.599L826.929 529.699L811.045 546.571L817.7 552.803L829.684 539.194L845.194 542.355Z" fill="#FDE6D5"/>
<path fill-rule="evenodd" clip-rule="evenodd" d="M930.848 556.625L914.205 541.831L897.403 546.844L888.38 565.226L902.303 570.593L927.6 560.522L930.848 556.625Z" fill="#2E100D"/>
<path fill-rule="evenodd" clip-rule="evenodd" d="M991.646 603.606L961.479 648.351L1008.56 634.633L1021.87 600.725L1008.81 584.829L1021.57 585.049L973.012 529.211L991.646 603.606Z" fill="#FDE6D5"/>
<path fill-rule="evenodd" clip-rule="evenodd" d="M881.153 560.197L880.236 543.614L871.877 543.33L863.517 543.04L854.44 559.273L881.153 560.197Z" fill="#EB6337"/>
<path fill-rule="evenodd" clip-rule="evenodd" d="M913.037 545.781L899.184 549.742L895.495 562.34L904.143 569.78L920.263 563.42L923.383 555.37L913.037 545.781Z" fill="#771213"/>
<path fill-rule="evenodd" clip-rule="evenodd" d="M911.492 548.65L902.38 551.252L899.954 559.546L906.845 565.477L915.663 563.293L918.295 554.958L911.492 548.65Z" fill="#2E100D"/>
<path fill-rule="evenodd" clip-rule="evenodd" d="M912.613 546.693L908.002 548.139L906.621 553.169L910.54 556.543L915.557 555.306L917.055 550.561L912.613 546.693Z" fill="#FDE6D5"/>
<path fill-rule="evenodd" clip-rule="evenodd" d="M869.481 461.732L938.78 430.699L903.842 429.497L868.905 428.289L869.481 461.732Z" fill="#EB6337"/>
<path fill-rule="evenodd" clip-rule="evenodd" d="M961.479 648.352L972.659 631.776L1000.2 620.601L1010.85 600.975L1008.81 584.829L1021.87 600.725L1008.56 634.633L961.479 648.352Z" fill="#EEBC92"/>
<path fill-rule="evenodd" clip-rule="evenodd" d="M908.688 473.157L881.576 476.682L882.299 508.719L894.783 504.224L908.688 473.157Z" fill="#FDE6D5"/>
<path fill-rule="evenodd" clip-rule="evenodd" d="M927.753 492.939L914.946 479.343L918.271 502.546L927.753 492.939Z" fill="#FDE6D5"/>
<path fill-rule="evenodd" clip-rule="evenodd" d="M812.664 469.753L807.446 479.551L796.701 467.349L798.557 487.485L779.991 491.731L795.003 499.52L743.834 581.651L761.861 578.132L746.576 612.667L785.418 626.949L760.115 604.263L812.664 469.753Z" fill="#EB6337"/>
<path fill-rule="evenodd" clip-rule="evenodd" d="M860.61 511.891L868.653 475.805L842.745 467.035L838.292 501.453L860.61 511.891Z" fill="#EEBC92"/>
<path fill-rule="evenodd" clip-rule="evenodd" d="M820.644 489.93L835.853 479.104L832.364 507.389L821.501 504.503L820.644 489.93Z" fill="#EEBC92"/>
<path fill-rule="evenodd" clip-rule="evenodd" d="M834.826 442.409L864.74 428.26L857.72 386.494L834.826 442.409Z" fill="#771213"/>
<path fill-rule="evenodd" clip-rule="evenodd" d="M784.995 590.021L812.021 636.736L774.071 620.967L760.979 580.124L769.166 570.111L756.41 569.449L808.681 517.083L784.995 590.021Z" fill="#FDE6D5"/>
<path fill-rule="evenodd" clip-rule="evenodd" d="M812.02 636.736L802.006 619.422L781.481 609.403L771.131 581.518L769.165 570.111L760.979 580.13L774.731 623.023L812.02 636.736Z" fill="#EEBC92"/>
<path fill-rule="evenodd" clip-rule="evenodd" d="M842.745 467.035L868.653 475.805L861.679 507.082L850.318 500.222L842.745 467.035Z" fill="#FDE6D5"/>
<path fill-rule="evenodd" clip-rule="evenodd" d="M820.644 489.93L835.853 479.104L828.063 501.21L820.644 489.93Z" fill="#FDE6D5"/>
<path fill-rule="evenodd" clip-rule="evenodd" d="M834.827 442.409L840.402 428.789L857.726 386.494L833.44 390.449L760.098 464.729L742.344 482.711L756.289 521.712L738.732 500.826L733.902 519.575L758.446 545.543L785.772 514.336L765.021 494.501L779.615 470.16L824.71 428.167L812.665 469.753L834.827 442.409Z" fill="#FDE6D5"/>
<path fill-rule="evenodd" clip-rule="evenodd" d="M824.702 428.167L812.662 469.753L834.819 442.409L823.439 449.506L824.702 428.167ZM758.438 545.543L785.753 514.336L764.995 494.501L779.595 470.16L824.69 428.167L773.861 469.986L757.539 487.107L763.917 521.085L758.438 545.543Z" fill="#EEBC92"/>
<path fill-rule="evenodd" clip-rule="evenodd" d="M896.663 548.36L888.039 565.923L881.488 560.597L892.374 541.001L914.687 532.957L937.763 550.317L930.848 556.625L914.205 541.831L896.663 548.36Z" fill="#FDE6D5"/>
<path fill-rule="evenodd" clip-rule="evenodd" d="M847.679 571.174L865.345 568.728L879.356 560.132L854.441 559.273L830.22 567.52L847.679 571.174Z" fill="#EEBC92"/>
<path fill-rule="evenodd" clip-rule="evenodd" d="M847.704 570.64L865.346 568.728L867.537 573.462L850.23 587.395L849.76 596.811L852.233 599.267L874.687 605.953L903.913 598.251L907.25 590.556L910.123 591.241L911.838 601.684L905.259 601.899L873 612.568L846.499 604.437L841.095 605.837L827.172 607.928L823.1 603.42L819.006 604.309L814.617 595.469L817.384 593.163L825.309 601.881L841.212 598.884L843.844 596.608L844.026 587.181L827.718 572.091L830.221 567.521L847.704 570.64Z" fill="#2E100D"/>
<path d="M850.763 652.754C829.414 665.602 781.04 692.789 778.338 694.346C760.543 691.651 698.602 678.966 698.602 678.966L657.898 681.091L656.849 705.486L699.454 718.217L702.138 713.065C702.138 713.065 675.409 707.188 662.711 703.964C663.291 697.436 664.184 692.65 664.752 686.116C670.979 686.116 698.608 685.483 698.608 685.483L778.465 700.996C778.465 700.996 803.189 688.596 810.674 684.292C823.622 676.852 836.764 669.708 849.553 661.954L850.27 661.547C852.531 660.24 850.763 652.754 850.763 652.754Z" fill="#2E100D"/>
<path d="M704.805 761.098L684.662 724.548C681.955 719.634 679.589 714.093 676.377 709.505C675.351 708.041 673.942 707.867 672.318 707.426L661.168 704.382C653.903 702.396 635.819 697 635.819 697L619.979 728.997L664.665 774.933C664.665 774.933 697.332 768.387 704.939 766.615C706.626 766.221 705.588 762.527 704.805 761.098ZM640.562 702.75V702.709C640.562 702.709 640.597 702.704 640.562 702.75ZM666.653 768.103L630.775 731.303L626.78 727.237C628.712 723.64 630.67 720.053 632.653 716.475C634.305 713.483 635.964 710.492 637.669 707.53C638.301 706.426 638.938 705.317 639.605 704.231L639.762 703.987L672.232 712.85C680.383 727.646 688.534 742.437 696.682 757.224C697.32 758.386 697.956 759.547 698.59 760.709L666.653 768.103Z" fill="#2E100D"/>
<path d="M853.925 767.911L794.313 780.532L786.81 782.118C769.16 773.783 720.131 750.062 720.131 750.062L724.909 758.821L786.584 788.913L855.863 775.7C855.863 775.7 857.203 767.22 853.925 767.911Z" fill="#2E100D"/>
<path d="M701.101 763.851L729.512 791.434C730.092 792.015 731.251 792.293 731.976 791.753L748.309 779.243C749.289 778.493 749.776 777.03 748.721 776.054L686.681 718.676L677.902 710.545C675.989 708.802 673.107 711.637 675.032 713.449L737.107 770.821L745.886 778.952L746.292 775.758L729.958 788.263L732.417 788.582L704.005 761C702.127 759.181 699.257 762.051 701.136 763.874L701.101 763.851Z" fill="#2E100D"/>
<path d="M662.074 695.926L615.073 652.482L540.735 583.766L523.677 568.014C522.622 567.044 521.294 567.37 520.488 568.427L514.812 575.884C514.585 576.272 514.493 576.724 514.549 577.169C514.606 577.615 514.808 578.029 515.125 578.347L557.614 620.572L625.377 687.905L640.974 703.407C642.835 705.248 645.706 702.379 643.844 700.503L601.372 658.307L533.609 590.974L518.013 575.472L518.332 577.935L524.014 570.477L520.825 570.889L567.825 614.334L642.163 683.049L659.203 698.801C661.117 700.572 663.998 697.703 662.103 695.926H662.074Z" fill="#2E100D"/>
<path fill-rule="evenodd" clip-rule="evenodd" d="M993.227 646.295L982.964 649.101L948.044 682.05L1002 711.997L1026.62 789.471L1080.58 869.228L1117.01 868.473L1061.52 795.517L1049.78 764.682L1027.98 686.081L993.227 646.295Z" fill="#EB6337"/>
<path fill-rule="evenodd" clip-rule="evenodd" d="M811.255 684.06L835.295 696.924L846.645 662.657L811.255 684.06Z" fill="#EB6337"/>
<path fill-rule="evenodd" clip-rule="evenodd" d="M938.433 741.159L994.766 871.847L983.897 893.604L994.648 911.423L995.753 928.29L1010.84 941.319L1057.05 924.549L1075.66 887.331L1060.26 859.377L1068.78 816.113L1049.78 766.192L1004.51 693.643L948.044 682.05L938.433 741.159Z" fill="#CA3C27"/>
<path fill-rule="evenodd" clip-rule="evenodd" d="M963.137 799.251L994.766 871.847L983.898 893.604L994.649 911.423L995.753 928.29L1010.85 941.319L1057.05 924.549L1075.66 887.331L1060.26 859.377L1068.78 816.113L1051.66 767.505L1019.48 745.01L973.394 752.229L963.137 799.251Z" fill="#771213"/>
<path fill-rule="evenodd" clip-rule="evenodd" d="M1070.59 810.554L1071.95 816.031L1063.52 858.866L1079.15 887.261L1059.26 927.041L1010.2 944.85L992.751 929.788L991.611 912.381L980.367 893.744L991.352 871.754L980.748 847.151L938.433 741.159L986.435 844.688L998.179 871.946L987.434 893.459L997.697 910.465L998.76 926.786L1011.5 937.782L1054.84 922.052L1072.15 887.401L1057 859.882L1065.6 816.188L1064.58 812.053L1040.38 701.914L1070.59 810.554Z" fill="#2E100D"/>
<path fill-rule="evenodd" clip-rule="evenodd" d="M879.14 503.487L876.285 527.085L864.183 526.283L867.496 500.635L800.065 493.235L785.593 571.58L820.616 579.543L829.058 573.335L799.642 565.093L811.047 505.432L856.358 510.869L854.29 559.273L860.993 559.499L863.766 534.432L875.192 535.228L873.189 559.924L881.149 560.197L886.901 513.83L949.813 519.859L946.623 573.857L898.762 574.397L907.815 582.842L956.058 584.829L961.316 509.376L879.14 503.487Z" fill="#2E100D"/>
<path fill-rule="evenodd" clip-rule="evenodd" d="M1001.39 1107.54L1008.84 1087.57L1006.03 1107.73L1001.39 1107.54Z" fill="#2E100D"/>
<path fill-rule="evenodd" clip-rule="evenodd" d="M1023.27 1111.81L1030.71 1091.86L1027.92 1112.01L1023.27 1111.81Z" fill="#2E100D"/>
<path fill-rule="evenodd" clip-rule="evenodd" d="M872.682 1070.6L880.407 1051.45L877.317 1071.66L872.682 1070.6Z" fill="#2E100D"/>
<path fill-rule="evenodd" clip-rule="evenodd" d="M895.399 1075.26L903.125 1056.11L900.035 1076.33L895.399 1075.26Z" fill="#2E100D"/>
<path fill-rule="evenodd" clip-rule="evenodd" d="M688.925 740.009L670.997 746.352L686.571 735.955L688.925 740.009Z" fill="#2E100D"/>
<path fill-rule="evenodd" clip-rule="evenodd" d="M1005.85 898.907L1007.92 917.847L1001.37 900.278L1005.85 898.907Z" fill="#2E100D"/>
<path fill-rule="evenodd" clip-rule="evenodd" d="M673.722 714.767L653.214 726.017L670.243 710.4L673.722 714.767Z" fill="#2E100D"/>
</svg>
